M48
<<<<<<< HEAD
; DRILL file {KiCad 9.0.0} date 2025-08-24T13:48:56+0300
; FORMAT={-:-/ absolute / inch / decimal}
; #@! TF.CreationDate,2025-08-24T13:48:56+03:00
=======
; DRILL file {KiCad 9.0.0} date 2025-08-18T13:42:09+0300
; FORMAT={-:-/ absolute / metric / decimal}
; #@! TF.CreationDate,2025-08-18T13:42:09+03:00
>>>>>>> origin/main
; #@! TF.GenerationSoftware,Kicad,Pcbnew,9.0.0
; #@! TF.FileFunction,Plated,1,4,PTH
FMAT,2
METRIC
; #@! TA.AperFunction,Plated,PTH,ViaDrill
<<<<<<< HEAD
T1C0.0098
; #@! TA.AperFunction,Plated,PTH,ComponentDrill
T2C0.0157
; #@! TA.AperFunction,Plated,PTH,ComponentDrill
T3C0.0236
; #@! TA.AperFunction,Plated,PTH,ComponentDrill
T4C0.0256
; #@! TA.AperFunction,Plated,PTH,ComponentDrill
T5C0.0394
; #@! TA.AperFunction,Plated,PTH,ComponentDrill
T6C0.0787
; #@! TA.AperFunction,Plated,PTH,ComponentDrill
T7C0.0984
=======
T1C0.200
; #@! TA.AperFunction,Plated,PTH,ComponentDrill
T2C0.600
; #@! TA.AperFunction,Plated,PTH,ComponentDrill
T3C0.650
; #@! TA.AperFunction,Plated,PTH,ComponentDrill
T4C1.000
; #@! TA.AperFunction,Plated,PTH,ComponentDrill
T5C2.000
; #@! TA.AperFunction,Plated,PTH,ComponentDrill
T6C2.500
>>>>>>> origin/main
%
G90
G05
T1
<<<<<<< HEAD
X0.0827Y0.9035
X0.0827Y0.8248
X0.0848Y1.4703
X0.0866Y1.5689
X0.0906Y2.628
X0.0945Y1.4941
X0.0984Y1.8957
X0.1063Y0.9114
X0.1063Y0.4744
X0.1063Y0.3406
X0.1102Y2.5531
X0.1102Y2.0886
X0.1102Y1.6398
X0.122Y2.4075
X0.122Y1.9941
X0.126Y1.3327
X0.1299Y0.3839
X0.1378Y1.8091
X0.1417Y1.7579
X0.1496Y1.6791
X0.1535Y2.3524
X0.1535Y0.9094
X0.1575Y1.8878
X0.1575Y1.8248
X0.1614Y2.6319
X0.1614Y2.128
X0.1654Y2.2382
X0.1654Y1.4232
X0.1693Y1.3602
X0.1693Y1.3091
X0.1693Y0.2539
X0.1732Y2.7067
X0.1736Y0.1722
X0.1752Y2.6831
X0.1756Y0.1486
X0.1772Y2.5571
X0.1811Y2.7303
X0.1811Y0.5256
X0.1815Y0.1958
X0.185Y2.6614
X0.1854Y0.1269
X0.189Y1.7382
X0.1926Y0.9237
X0.1949Y2.75
X0.1953Y0.2155
X0.2008Y2.6437
X0.2008Y1.687
X0.2008Y0.9783
X0.2012Y0.1092
X0.2047Y2.4508
X0.2047Y1.4902
X0.2073Y0.8509
X0.2087Y2.3957
X0.2087Y1.9547
X0.2087Y1.935
X0.2087Y1.9154
X0.2087Y1.3327
X0.2126Y2.2815
X0.2165Y2.7618
X0.2169Y0.2273
X0.2205Y2.5059
X0.2205Y2.1949
X0.2244Y2.6339
X0.2248Y0.0994
X0.2283Y1.9547
X0.2283Y1.935
X0.2283Y1.9154
X0.2323Y2.313
X0.2362Y2.3563
X0.2402Y2.7657
X0.2406Y0.2313
X0.2441Y0.9941
X0.248Y1.9547
X0.248Y1.935
X0.248Y1.9154
X0.25Y2.6319
X0.2504Y0.0974
X0.2638Y1.7224
X0.2638Y1.2579
X0.2657Y2.7598
X0.2661Y0.2254
X0.2677Y2.5531
X0.2717Y2.2736
X0.2717Y1.4783
X0.2736Y2.6417
X0.274Y0.1072
X0.2756Y2.3878
X0.2795Y2.5925
X0.2795Y1.6555
X0.2874Y2.7461
X0.2874Y1.935
X0.2874Y1.9154
X0.2874Y1.8957
X0.2878Y0.2116
X0.2913Y2.6575
X0.2917Y0.123
X0.3012Y2.7264
X0.3016Y0.1919
X0.3031Y1.5217
X0.3051Y2.6791
X0.3055Y0.1447
X0.3071Y2.7028
X0.3071Y1.935
X0.3071Y1.9154
X0.3071Y1.8957
X0.3071Y1.5846
X0.3075Y0.1683
X0.3081Y0.9133
X0.3081Y0.8922
X0.3081Y0.8725
X0.3081Y0.8528
X0.3084Y0.9362
X0.3085Y0.9573
X0.3085Y0.978
X0.311Y2.0571
X0.311Y2.0374
X0.311Y2.0177
X0.315Y1.7224
X0.3228Y1.6122
X0.3228Y0.7421
X0.3268Y1.935
X0.3268Y1.9154
X0.3268Y1.8957
X0.3307Y2.0571
X0.3307Y2.0374
X0.3307Y2.0177
X0.3386Y2.6358
X0.3425Y2.1437
X0.3425Y1.4232
X0.3425Y1.2933
X0.3465Y2.1909
X0.3465Y1.5335
X0.3504Y2.0571
X0.3504Y2.0374
X0.3504Y2.0177
X0.3504Y1.6083
X0.3504Y0.9705
X0.3504Y0.9469
X0.3504Y0.8681
X0.3543Y2.7067
X0.3583Y2.1122
X0.3583Y0.9311
X0.3583Y0.9114
X0.3583Y0.8878
X0.3622Y2.565
X0.3622Y2.502
X0.3622Y1.3484
X0.3661Y1.6516
X0.374Y0.939
X0.374Y0.9193
X0.374Y0.8996
X0.378Y2.6319
X0.378Y1.935
X0.378Y1.9154
X0.378Y1.8957
X0.3819Y2.2067
X0.3819Y1.7106
X0.3858Y2.4823
X0.3937Y2.7343
X0.3937Y2.5413
X0.3976Y1.935
X0.3976Y1.9154
X0.3976Y1.8957
X0.4016Y0.1713
X0.4028Y0.8514
X0.4055Y2.6673
X0.4055Y0.6122
X0.4134Y0.872
X0.4173Y2.2579
X0.4173Y2.1122
X0.4173Y1.935
X0.4173Y1.9154
X0.4173Y1.8957
X0.4213Y0.8366
X0.4277Y0.9441
X0.4294Y0.9217
X0.437Y1.0453
X0.4409Y2.7421
X0.4409Y1.4232
X0.4449Y2.561
X0.4449Y2.1122
X0.4724Y2.2303
X0.4921Y2.187
X0.4961Y2.561
X0.5Y2.1122
X0.5118Y1.935
X0.5118Y1.9154
X0.5118Y1.8957
X0.5197Y1.0177
X0.5276Y2.5886
X0.5276Y0.1752
X0.5315Y2.6594
X0.5315Y2.0925
X0.5315Y1.935
X0.5315Y1.9154
X0.5315Y1.8957
X0.5354Y2.1161
X0.5354Y0.872
X0.5394Y2.1713
X0.5472Y2.7185
X0.5472Y0.9429
X0.5512Y1.935
X0.5512Y1.9154
X0.5512Y1.8957
X0.5512Y0.7894
X0.5591Y2.0886
X0.5591Y1.3799
X0.5669Y2.6201
X0.5748Y1.628
X0.5748Y0.0925
X0.5866Y2.2657
X0.5906Y2.0413
X0.5984Y2.6437
X0.5984Y2.5138
X0.5984Y2.4941
X0.5984Y2.4744
X0.5984Y2.4547
X0.5984Y2.435
X0.5984Y2.4154
X0.5984Y2.3957
X0.5984Y2.376
X0.5984Y2.3563
X0.5984Y2.3366
X0.5984Y2.3169
X0.5984Y2.2028
X0.5984Y2.1791
X0.5984Y2.1594
X0.5984Y2.1358
X0.5984Y2.1161
X0.6142Y2.2657
X0.6142Y2.0413
X0.6181Y2.5138
X0.6181Y2.4941
X0.6181Y2.4744
X0.6181Y2.4547
X0.6181Y2.435
X0.6181Y2.4154
X0.6181Y2.3957
X0.6181Y2.376
X0.6181Y2.3563
X0.6181Y2.3366
X0.6181Y2.3169
X0.6181Y2.1161
X0.6181Y1.935
X0.6181Y1.9154
X0.6181Y1.8957
X0.6181Y1.2697
X0.6181Y1.0295
X0.622Y2.1634
X0.622Y1.1122
X0.626Y2.1909
X0.626Y0.7894
X0.6299Y1.6358
X0.6378Y2.7224
X0.6378Y2.1752
X0.6378Y2.1476
X0.6378Y1.935
X0.6378Y1.9154
X0.6378Y1.8957
X0.6417Y2.6083
X0.6417Y2.128
X0.6496Y2.0335
X0.6535Y2.6634
X0.6535Y2.1122
X0.6575Y2.2657
X0.6575Y2.1594
X0.6575Y1.935
X0.6575Y1.9154
X0.6575Y1.8957
X0.6575Y1.3248
X0.6575Y1.0413
X0.6614Y2.1791
X0.6614Y1.376
X0.6693Y2.3287
X0.6693Y2.1319
X0.6693Y0.8327
X0.6732Y0.8799
X0.6811Y2.1614
X0.685Y2.1437
X0.685Y2.1161
X0.689Y2.313
X0.689Y2.2618
X0.6929Y2.3799
X0.6969Y2.5413
X0.7047Y1.6319
X0.7126Y2.3917
X0.7283Y2.687
X0.7283Y2.5374
X0.7323Y2.2343
X0.7323Y0.1988
X0.7559Y2.6201
X0.7559Y2.3878
X0.7559Y0.1083
X0.7628Y2.1447
X0.7717Y1.4272
X0.7913Y1.9469
X0.7913Y1.9272
X0.7913Y1.9075
X0.8031Y0.9232
X0.8033Y2.2714
X0.8063Y2.1187
X0.8071Y2.4193
X0.8071Y2.3996
X0.8086Y2.3805
X0.811Y2.2894
X0.811Y2.0965
X0.811Y1.9469
X0.811Y1.9272
X0.811Y1.9075
X0.8189Y2.5965
X0.8228Y1.6516
X0.8228Y0.8366
X0.8268Y2.4193
X0.8268Y2.3996
X0.8268Y2.3799
X0.8268Y2.2736
X0.8268Y0.9705
X0.8307Y1.9469
X0.8307Y1.9272
X0.8307Y1.9075
X0.8425Y0.9933
X0.8465Y2.4193
X0.8465Y2.3996
X0.8465Y2.3799
X0.8499Y2.3305
X0.8504Y2.1791
X0.8543Y2.0374
X0.8543Y0.8287
X0.8583Y2.6555
X0.8661Y2.3287
X0.8661Y2.3051
X0.8661Y2.065
X0.8701Y2.2618
X0.874Y2.0846
X0.8858Y2.7106
X0.8858Y2.5571
X0.8858Y2.5374
X0.8858Y2.5177
X0.8858Y2.498
X0.8858Y2.4783
X0.8858Y2.4587
X0.8858Y2.2854
X0.9055Y2.6358
X0.9055Y2.5571
X0.9055Y2.5374
X0.9055Y2.5177
X0.9055Y2.498
X0.9055Y2.4783
X0.9055Y2.4587
X0.9094Y2.5965
X0.9213Y2.2854
X0.9213Y2.2657
X0.9213Y0.1831
X0.9214Y0.9062
X0.9214Y0.8851
X0.9214Y0.8654
X0.9214Y0.8458
X0.9216Y0.9292
X0.9217Y0.9503
X0.9218Y0.9709
X0.9252Y2.5571
X0.9252Y2.5374
X0.9252Y2.5177
X0.9252Y2.498
X0.9252Y2.4783
X0.9252Y2.4587
X0.9331Y2.0768
X0.9331Y2.0571
X0.9331Y2.0374
X0.9409Y2.2854
X0.9409Y2.2657
X0.9409Y1.4075
X0.9449Y1.6358
X0.9449Y0.1122
X0.9528Y2.0768
X0.9528Y2.0571
X0.9528Y2.0374
X0.9597Y2.2647
X0.9606Y2.2854
X0.9627Y0.9665
X0.9627Y0.9429
X0.9627Y0.8642
X0.9705Y0.9271
X0.9705Y0.9075
X0.9705Y0.8838
X0.9724Y2.6358
X0.9724Y2.0768
X0.9724Y2.0571
X0.9724Y2.0374
X0.9863Y0.935
X0.9863Y0.9153
X0.9863Y0.8956
X0.9894Y0.7854
X1.0Y2.7264
X1.0118Y2.5846
X1.0276Y2.5492
X1.0276Y2.2461
X1.0276Y2.2264
X1.0276Y2.2067
X1.0276Y2.1752
X1.0276Y2.1555
X1.0276Y2.1358
X1.0276Y2.1083
X1.0276Y2.0886
X1.0276Y2.0689
X1.0276Y0.9547
X1.0276Y0.8465
X1.0315Y0.7657
X1.0433Y0.9311
X1.0433Y0.8878
X1.0472Y2.2461
X1.0472Y2.2264
X1.0472Y2.2067
X1.0472Y2.1752
X1.0472Y2.1555
X1.0472Y2.1358
X1.0472Y2.1083
X1.0472Y2.0886
X1.0472Y2.0689
X1.0669Y2.2461
X1.0669Y2.2264
X1.0669Y2.2067
X1.0669Y2.1752
X1.0669Y2.1555
X1.0669Y2.1358
X1.0669Y2.1083
X1.0669Y2.0886
X1.0669Y2.0689
X1.0709Y2.6594
X1.0866Y1.3051
X1.0945Y2.1791
X1.1024Y2.7185
X1.1142Y0.187
X1.126Y2.5768
X1.126Y2.5138
X1.1339Y2.6161
X1.1378Y0.1083
X1.1496Y2.1043
X1.1614Y1.4783
X1.1654Y2.3681
X1.1732Y2.1909
X1.2008Y2.0846
X1.2126Y2.4783
X1.2441Y1.4705
X1.2598Y2.1791
X1.2598Y2.0453
X1.2677Y1.0846
X1.2677Y1.061
X1.2835Y1.1004
X1.2835Y1.0413
X1.2874Y1.0728
X1.2913Y1.998
X1.2913Y0.2106
X1.2953Y1.6634
X1.3031Y1.1043
X1.3031Y0.1161
X1.3071Y1.061
X1.3071Y1.0413
X1.311Y1.0846
X1.3268Y1.5768
X1.3307Y1.1043
X1.3307Y1.0807
X1.3307Y1.061
X1.3307Y1.0413
X1.3425Y1.8406
X1.3543Y1.6673
X1.3543Y1.1043
X1.3543Y1.0807
X1.3543Y1.061
X1.3543Y1.0413
X1.3543Y0.7697
X1.3583Y1.939
X1.3583Y1.7421
X1.374Y2.0217
X1.374Y1.1004
X1.374Y1.0807
X1.374Y1.061
X1.374Y1.0413
X1.3858Y2.1201
X1.3898Y0.7815
X1.4016Y1.1004
X1.4016Y1.0807
X1.4016Y1.061
X1.4016Y1.0413
X1.4016Y0.7657
X1.4173Y0.7815
X1.4252Y1.9035
X1.4252Y1.0413
X1.4291Y1.1004
X1.4291Y1.0807
X1.4291Y1.061
X1.4331Y1.7382
X1.4331Y1.5768
X1.437Y0.7697
X1.4528Y1.8524
X1.4528Y1.6673
X1.4606Y0.7815
X1.4646Y0.8051
X1.4646Y0.7618
X1.4724Y0.1161
X1.4843Y0.8051
X1.4843Y0.7815
X1.4843Y0.75
X1.5Y0.7618
X1.502Y1.5906
X1.5039Y0.8051
X1.5079Y0.7854
X1.5118Y1.7539
X1.5157Y0.2382
X1.5236Y1.6122
X1.5551Y1.7815
X1.5591Y1.6083
X1.5709Y1.3366
X1.5709Y1.2933
X1.6181Y0.8799
X1.622Y0.9272
X1.622Y0.128
X1.626Y1.3642
X1.6378Y0.8799
X1.6417Y1.0886
X1.6417Y1.065
X1.6417Y0.8366
X1.6457Y0.9272
X1.6575Y1.1043
X1.6575Y1.0453
X1.6575Y0.8799
X1.6614Y1.0768
X1.6654Y0.8406
X1.6732Y0.8996
X1.6732Y0.8563
X1.6772Y1.1083
X1.6772Y0.9193
X1.6772Y0.8799
X1.6811Y1.065
X1.6811Y1.0453
X1.685Y1.0886
X1.689Y1.7894
X1.689Y1.7461
X1.6929Y1.6161
X1.7047Y2.3091
X1.7047Y1.1083
X1.7047Y1.0846
X1.7047Y1.065
X1.7047Y1.0453
X1.7057Y2.2864
X1.7077Y2.2018
X1.7126Y1.3051
X1.7165Y1.3917
X1.7283Y2.2421
X1.7283Y1.1083
X1.7283Y1.0846
X1.7283Y1.065
X1.7283Y1.0453
X1.7322Y2.3279
X1.736Y2.2039
X1.7362Y0.2146
X1.7402Y0.876
X1.7402Y0.8524
X1.7441Y0.8996
X1.7455Y2.2235
X1.748Y2.2933
X1.748Y1.4547
X1.748Y1.1043
X1.748Y1.0846
X1.748Y1.065
X1.748Y1.0453
X1.7559Y2.0886
X1.7559Y1.7776
X1.7559Y0.9154
X1.7598Y1.5059
X1.7638Y0.8563
X1.7638Y0.1201
X1.7717Y1.3445
X1.7756Y1.1043
X1.7756Y1.0846
X1.7756Y1.065
X1.7756Y1.0453
X1.7795Y0.9154
X1.7874Y1.624
X1.7913Y0.8563
X1.7992Y1.4232
X1.7992Y1.0453
X1.7992Y0.8287
X1.7992Y0.5413
X1.8015Y1.6848
X1.8031Y2.2776
X1.8031Y1.1043
X1.8031Y1.0846
X1.8031Y1.065
X1.8031Y0.9154
X1.8031Y0.4783
X1.8031Y0.4193
X1.8031Y0.3563
X1.815Y0.8484
X1.8189Y2.4665
X1.8189Y1.4469
X1.8228Y0.9154
X1.8228Y0.8917
X1.8228Y0.8681
X1.8228Y0.7776
X1.8386Y1.3012
X1.8386Y0.7972
X1.8386Y0.7697
X1.8401Y2.1383
X1.8425Y1.7028
X1.8425Y0.9154
X1.8504Y1.3327
X1.8543Y2.7579
X1.8543Y2.7303
X1.8543Y1.8839
X1.8543Y1.5453
X1.8583Y2.2421
X1.8583Y2.187
X1.8622Y2.2106
X1.8622Y1.7854
X1.8622Y0.7579
X1.8622Y0.6909
X1.8661Y0.9154
X1.8661Y0.6437
X1.8701Y1.0768
X1.8701Y1.0531
X1.874Y0.7106
X1.8757Y2.4796
X1.878Y0.6594
X1.8819Y2.25
X1.8819Y0.7343
X1.8819Y0.6831
X1.8819Y0.624
X1.8858Y2.439
X1.8858Y1.0925
X1.8858Y1.0335
X1.8898Y1.065
X1.8898Y0.9154
X1.8937Y2.2106
X1.8976Y2.2579
X1.8976Y2.2303
X1.8996Y2.0463
X1.9016Y2.2854
X1.9016Y0.6437
X1.9055Y1.0965
X1.9055Y0.7579
X1.9055Y0.7303
X1.9055Y0.6673
X1.9094Y1.0531
X1.9094Y1.0335
X1.9094Y0.7028
X1.9134Y2.1909
X1.9134Y1.0768
X1.9173Y2.2146
X1.9213Y2.3091
X1.9213Y2.25
X1.9213Y2.2343
X1.9242Y2.4361
X1.9281Y2.0059
X1.9281Y1.9203
X1.9291Y2.2736
X1.9291Y0.2303
X1.9331Y2.1949
X1.9331Y1.687
X1.9331Y1.0965
X1.9331Y1.0728
X1.9331Y1.0531
X1.9331Y1.0335
X1.9413Y2.4178
X1.9449Y2.2146
X1.9488Y2.3051
X1.9488Y0.7579
X1.9528Y2.2303
X1.9567Y2.2815
X1.9567Y2.2539
X1.9567Y2.1909
X1.9567Y1.0965
X1.9567Y1.0728
X1.9567Y1.0531
X1.9567Y1.0335
X1.9567Y0.8248
X1.9613Y2.4608
X1.9646Y0.7736
X1.9724Y2.2894
X1.9764Y2.3051
X1.9764Y2.2421
X1.9764Y2.2106
X1.9764Y2.1909
X1.9764Y1.0925
X1.9764Y1.0728
X1.9764Y1.0531
X1.9764Y1.0335
X1.9764Y0.7579
X1.9803Y2.2736
X1.9882Y0.7776
X1.9996Y1.9699
X2.0Y0.7579
X2.0039Y1.0925
X2.0039Y1.0728
X2.0039Y1.0531
X2.0039Y1.0335
X2.0157Y0.7815
X2.0197Y1.7894
X2.0197Y1.7461
X2.0236Y2.4823
X2.0236Y2.4587
X2.0276Y1.0335
X2.0276Y0.7579
X2.0315Y1.0925
X2.0315Y1.0728
X2.0315Y1.0531
X2.0354Y0.8051
X2.0433Y2.3091
X2.0433Y1.4114
X2.0433Y0.7815
X2.0433Y0.2343
X2.0472Y1.3091
X2.0472Y0.7579
X2.0512Y2.2382
X2.0551Y1.3445
X2.0551Y0.8051
X2.0709Y2.2146
X2.0709Y0.7815
X2.0787Y0.7579
X2.0827Y2.4783
X2.0827Y2.4547
X2.0827Y2.1122
X2.0827Y1.3484
X2.0827Y0.8051
X2.0945Y0.7697
X2.0984Y0.7894
X2.1102Y2.2264
X2.1457Y2.1988
X2.1496Y2.1122
X2.1535Y1.2736
X2.1575Y1.3209
X2.1654Y0.1398
X2.1811Y1.939
X2.185Y1.7736
X2.2108Y0.8812
X2.2126Y1.3681
X2.2126Y0.9035
X2.2147Y0.8379
X2.2187Y0.9284
X2.2205Y2.0531
X2.2305Y0.8812
X2.2384Y0.8418
X2.2441Y2.4744
X2.2441Y1.0846
X2.2441Y1.061
X2.2462Y0.9009
X2.2462Y0.8576
X2.2502Y0.9206
X2.2502Y0.8812
X2.2559Y1.3366
X2.2559Y0.187
X2.2598Y1.1004
X2.2598Y1.0413
X2.2638Y1.0728
X2.2707Y2.4343
X2.2727Y2.2226
X2.2795Y1.1043
X2.2835Y1.061
X2.2835Y1.0413
X2.2874Y1.0846
X2.2992Y2.3563
X2.3071Y1.1043
X2.3071Y1.0807
X2.3071Y1.061
X2.3071Y1.0413
X2.311Y2.5098
X2.3119Y0.8668
X2.3135Y0.8902
X2.3303Y0.8529
X2.3307Y1.1043
X2.3307Y1.0807
X2.3307Y1.061
X2.3307Y1.0413
X2.3307Y0.6634
X2.3317Y0.9153
X2.3386Y0.7421
X2.341Y1.5982
X2.3465Y0.5295
X2.3504Y1.1004
X2.3504Y1.0807
X2.3504Y1.061
X2.3504Y1.0413
X2.3563Y0.8537
X2.3583Y0.3563
X2.3611Y0.9162
X2.3622Y2.7539
X2.3622Y2.7146
X2.3622Y0.6358
X2.3649Y0.7755
X2.3661Y2.7382
X2.3675Y0.8039
X2.3679Y0.8264
X2.3701Y0.7185
X2.3701Y0.435
X2.378Y1.1004
X2.378Y1.0807
X2.378Y1.061
X2.378Y1.0413
X2.3877Y0.9148
X2.3898Y0.8909
X2.3902Y0.8678
X2.3937Y1.3484
X2.3937Y0.565
X2.3976Y0.3091
X2.4016Y2.2579
X2.4016Y1.3169
X2.4016Y1.0413
X2.4055Y1.1004
X2.4055Y1.0807
X2.4055Y1.061
X2.4127Y0.9164
X2.4291Y0.2224
X2.4331Y0.5138
X2.4372Y0.9164
X2.4488Y2.3524
X2.4646Y1.6083
X2.4803Y1.2894
X2.4803Y0.5453
X2.4921Y2.4862
X2.4921Y0.1122
X2.4961Y2.4587
X2.4961Y0.8839
X2.4961Y0.8091
X2.5079Y1.3091
X2.5079Y0.7382
X2.5118Y1.1988
X2.5157Y0.2146
X2.5276Y1.9193
X2.5276Y1.8445
X2.5315Y1.8799
X2.5315Y1.8248
X2.5315Y0.9075
X2.5433Y0.5768
X2.5472Y0.5177
X2.5512Y1.8563
X2.5512Y1.8248
X2.5551Y2.5335
X2.5551Y0.7382
X2.5709Y1.561
X2.5827Y0.5453
X2.5906Y2.7165
X2.5906Y1.4075
X2.5906Y0.8996
X2.5906Y0.1823
X2.5925Y2.6929
X2.5925Y0.1587
X2.5984Y2.7402
X2.5984Y0.2059
X2.6024Y2.6713
X2.6024Y0.5059
X2.6024Y0.137
X2.6063Y1.2106
X2.6122Y2.7598
X2.6122Y0.2256
X2.6181Y2.6535
X2.6181Y0.1193
X2.626Y1.6437
X2.6339Y2.7717
X2.6339Y0.2374
X2.6417Y2.6437
X2.6417Y0.1095
X2.6575Y2.7756
X2.6575Y0.2414
X2.6673Y2.6417
X2.6673Y0.1075
X2.6732Y1.8996
X2.6831Y2.7697
X2.6831Y0.2355
X2.6909Y2.6516
X2.6909Y0.1173
X2.7047Y2.7559
X2.7047Y0.2217
X2.7087Y2.6673
X2.7087Y1.0925
X2.7087Y1.0728
X2.7087Y1.0531
X2.7087Y1.0374
X2.7087Y0.1331
X2.7165Y0.9547
X2.7185Y2.7362
X2.7185Y0.202
X2.7224Y2.689
X2.7224Y0.1547
X2.7244Y2.7126
X2.7244Y1.0768
X2.7244Y1.0571
X2.7244Y0.1784
X2.7283Y1.0925
X2.7283Y0.9705
X2.7323Y1.0374
X2.7441Y1.0689
X2.7441Y1.0531
X2.748Y1.9783
X2.748Y1.0925
X2.7481Y1.3188
X2.752Y1.4587
X2.752Y1.0374
X2.7559Y0.876
X2.7598Y1.0807
X2.7598Y1.0571
X2.7638Y1.2343
X2.7795Y0.9902
X2.7835Y1.1319
X2.7874Y1.1122
X2.8071Y1.1358
X2.811Y1.2421
X2.8189Y1.1122
X2.8189Y1.0846
X2.8228Y1.0531
X2.8425Y0.9705
X2.8465Y1.0531
X2.8504Y1.1161
X2.8504Y0.8484
X2.8543Y0.9429
X2.8543Y0.9114
X2.8661Y1.0571
X2.8701Y1.1161
T2
X0.2343Y0.4272
X0.2343Y0.4016
X0.2343Y0.376
X0.2402Y0.3465
X0.248Y0.4528
X0.2638Y0.3268
X0.2736Y0.4724
X0.3031Y0.3209
X0.3051Y0.4783
X0.3346Y0.4724
X0.3484Y0.3287
X0.3583Y0.4528
X0.3642Y0.3504
X0.372Y0.4272
X0.372Y0.4016
X0.372Y0.376
X0.4646Y0.4291
X0.4646Y0.4035
X0.4646Y0.378
X0.4705Y0.3484
X0.4783Y0.4547
X0.4941Y0.3287
X0.5039Y0.4744
X0.5335Y0.3228
X0.5354Y0.4803
X0.565Y0.4744
X0.5787Y0.3307
X0.5886Y0.4547
X0.5945Y0.3524
X0.6024Y0.4291
X0.6024Y0.4035
X0.6024Y0.378
X0.7539Y0.4291
X0.7539Y0.4035
X0.7539Y0.378
X0.7598Y0.3484
X0.7677Y0.4547
X0.7835Y0.3287
X0.7933Y0.4744
X0.8228Y0.3228
X0.8248Y0.4803
X0.8543Y0.4744
X0.8681Y0.3307
X0.878Y0.4547
X0.8839Y0.3524
X0.8917Y0.4291
X0.8917Y0.4035
X0.8917Y0.378
X0.9862Y0.4291
X0.9862Y0.4035
X0.9862Y0.378
X0.9921Y0.3484
X1.0Y0.4547
X1.0157Y0.3287
X1.0256Y0.4744
X1.0551Y0.3228
X1.0571Y0.4803
X1.0866Y1.6732
X1.0866Y0.4744
X1.0886Y1.8996
X1.0925Y1.7028
X1.0925Y1.6417
X1.0945Y1.9291
X1.0945Y1.8681
X1.1004Y0.3307
X1.1102Y0.4547
X1.1122Y1.7264
X1.1122Y1.6161
X1.1142Y1.9528
X1.1142Y1.8425
X1.1161Y0.3524
X1.124Y0.4291
X1.124Y0.4035
X1.124Y0.378
X1.1378Y1.7402
X1.1378Y1.6024
X1.1398Y1.9665
X1.1398Y1.8287
X1.1634Y1.7402
X1.1634Y1.6024
X1.1654Y1.9665
X1.1654Y1.8287
X1.189Y1.7402
X1.189Y1.6024
X1.1909Y1.9665
X1.1909Y1.8287
X1.2146Y1.7323
X1.2165Y1.9587
X1.2185Y1.6083
X1.2205Y1.8346
X1.2362Y1.7165
X1.2382Y1.9429
X1.2382Y1.6319
X1.2402Y1.8583
X1.2441Y1.6713
X1.2461Y1.8976
X1.313Y0.4291
X1.313Y0.4035
X1.313Y0.378
X1.3189Y0.3484
X1.3268Y0.4547
X1.3425Y0.3287
X1.3524Y0.4744
X1.3819Y0.3228
X1.3839Y0.4803
X1.4134Y0.4744
X1.4272Y0.3307
X1.437Y0.4547
X1.4429Y0.3524
X1.4508Y0.4291
X1.4508Y0.4035
X1.4508Y0.378
X1.5472Y0.4291
X1.5472Y0.4035
X1.5472Y0.378
X1.5531Y0.3484
X1.561Y0.4547
X1.5768Y0.3287
X1.5866Y0.4744
X1.6161Y0.3228
X1.6181Y0.4803
X1.6476Y0.4744
X1.6614Y0.3307
X1.6713Y0.4547
X1.6772Y0.3524
X1.685Y0.4291
X1.685Y0.4035
X1.685Y0.378
X1.8957Y0.4291
X1.8957Y0.4035
X1.8957Y0.378
X1.9016Y0.3484
X1.9094Y0.4547
X1.9252Y0.3287
X1.935Y0.4744
X1.9646Y0.3228
X1.9665Y0.4803
X1.9961Y0.4744
X2.0098Y0.3307
X2.0197Y0.4547
X2.0256Y0.3524
X2.0335Y0.4291
X2.0335Y0.4035
X2.0335Y0.378
X2.1299Y0.4291
X2.1299Y0.4035
X2.1299Y0.378
X2.1358Y0.3484
X2.1437Y0.4547
X2.1594Y0.3287
X2.1693Y0.4744
X2.1988Y0.3228
X2.2008Y0.4803
X2.2303Y0.4744
X2.2441Y0.3307
X2.2539Y0.4547
X2.2598Y0.3524
X2.2677Y0.4291
X2.2677Y0.4035
X2.2677Y0.378
X2.4469Y0.4272
X2.4469Y0.4016
X2.4469Y0.376
X2.4528Y0.3465
X2.4606Y0.4528
X2.4764Y0.3268
X2.4862Y0.4724
X2.5157Y0.3209
X2.5177Y0.4783
X2.5472Y0.4724
X2.561Y0.3287
X2.5709Y0.4528
X2.5768Y0.3504
X2.5846Y0.4272
X2.5846Y0.4016
X2.5846Y0.376
X2.6811Y0.4291
X2.6811Y0.4035
X2.6811Y0.378
X2.687Y0.3484
X2.6949Y0.4547
X2.7106Y0.3287
X2.7205Y0.4744
X2.75Y0.3228
X2.752Y0.4803
X2.7815Y0.4744
X2.7953Y0.3307
X2.8051Y0.4547
X2.811Y0.3524
X2.8189Y0.4291
X2.8189Y0.4035
X2.8189Y0.378
T4
X2.6811Y2.561
X2.6811Y2.511
X2.6811Y2.461
X2.6811Y2.411
X2.6811Y2.361
X2.6811Y2.311
X2.6811Y2.261
X2.6811Y2.211
X2.6811Y2.161
X2.6811Y2.111
X2.6811Y2.061
X2.7677Y2.561
X2.7677Y2.511
X2.7677Y2.461
X2.7677Y2.411
X2.7677Y2.361
X2.7677Y2.311
X2.7677Y2.261
X2.7677Y2.211
X2.7677Y2.161
X2.7677Y2.111
X2.7677Y2.061
X2.8465Y1.7638
X2.8465Y1.7138
X2.8465Y1.6638
X2.8465Y1.6138
X2.8465Y1.5638
X2.8465Y1.5138
X2.8465Y1.4638
X2.8543Y2.561
X2.8543Y2.511
X2.8543Y2.461
X2.8543Y2.411
X2.8543Y2.361
X2.8543Y2.311
X2.8543Y2.261
X2.8543Y2.211
X2.8543Y2.161
X2.8543Y2.111
X2.8543Y2.061
T5
X2.69Y1.7421
X2.69Y1.6421
X2.69Y1.5421
X2.69Y1.4421
T7
X0.2402Y2.6988
X0.2402Y0.1646
X2.6575Y2.7087
X2.6575Y0.1744
T3
G00X0.1388Y2.5106
M15
G01X0.1073Y2.5106
M16
G05
G00X0.1388Y2.1705
M15
G01X0.1073Y2.1705
M16
G05
G00X0.31Y2.5106
M15
G01X0.2667Y2.5106
M16
G05
G00X0.31Y2.1705
M15
G01X0.2667Y2.1705
M16
G05
T6
G00X0.3031Y0.4173
M15
G01X0.3031Y0.378
M16
G05
G00X0.5335Y0.4193
M15
G01X0.5335Y0.3799
M16
G05
G00X0.8228Y0.4193
M15
G01X0.8228Y0.3799
M16
G05
G00X1.0551Y0.4193
M15
G01X1.0551Y0.3799
M16
G05
G00X1.1476Y1.6713
M15
G01X1.187Y1.6713
M16
G05
G00X1.1496Y1.8976
M15
G01X1.189Y1.8976
M16
G05
G00X1.3819Y0.4193
M15
G01X1.3819Y0.3799
M16
G05
G00X1.6161Y0.4193
M15
G01X1.6161Y0.3799
M16
G05
G00X1.9646Y0.4193
M15
G01X1.9646Y0.3799
M16
G05
G00X2.1988Y0.4193
M15
G01X2.1988Y0.3799
M16
G05
G00X2.5157Y0.4173
M15
G01X2.5157Y0.378
M16
G05
G00X2.75Y0.4193
M15
G01X2.75Y0.3799
=======
X121.2Y-111.1
X121.2Y-113.1
X121.3Y-94.2
X121.4Y-67.3
X121.5Y-96.1
X121.6Y-85.9
X121.8Y-110.9
X121.8Y-122.0
X121.8Y-125.4
X121.9Y-69.2
X121.9Y-81.0
X121.9Y-92.4
X122.2Y-72.9
X122.2Y-83.4
X122.2Y-97.3
X122.3Y-100.2
X122.4Y-124.3
X122.6Y-88.1
X122.7Y-89.4
X122.9Y-91.4
X123.0Y-74.3
X123.1Y-86.1
X123.1Y-87.7
X123.1Y-111.0
X123.2Y-67.2
X123.2Y-80.0
X123.3Y-77.2
X123.3Y-97.9
X123.4Y-99.5
X123.4Y-100.8
X123.4Y-127.6
X123.6Y-69.1
X123.7Y-120.7
X123.9Y-89.9
X124.1Y-110.6
X124.2Y-91.2
X124.2Y-109.2
X124.3Y-71.8
X124.3Y-96.2
X124.4Y-73.2
X124.4Y-84.4
X124.4Y-84.9
X124.4Y-85.4
X124.4Y-100.2
X124.4Y-112.6
X124.5Y-76.1
X124.7Y-70.4
X124.7Y-78.3
X124.9Y-84.4
X124.9Y-84.9
X124.9Y-85.4
X125.0Y-75.3
X125.01Y-122.739
X125.01Y-123.489
X125.01Y-124.239
X125.01Y-124.989
X125.1Y-74.2
X125.3Y-108.8
X125.4Y-84.4
X125.4Y-84.9
X125.4Y-85.4
X125.51Y-122.239
X125.51Y-125.739
X125.8Y-90.3
X125.8Y-102.1
X125.9Y-69.2
X126.0Y-76.3
X126.0Y-96.5
X126.1Y-73.4
X126.2Y-68.2
X126.2Y-92.0
X126.26Y-121.989
X126.26Y-125.989
X126.4Y-84.9
X126.4Y-85.4
X126.4Y-85.9
X126.8Y-95.4
X126.9Y-65.4
X126.9Y-84.9
X126.9Y-85.4
X126.9Y-85.9
X126.9Y-93.8
X126.926Y-110.853
X126.926Y-111.388
X126.926Y-111.888
X126.926Y-112.388
X126.932Y-110.27
X126.935Y-109.734
X126.937Y-109.21
X127.0Y-81.8
X127.0Y-82.3
X127.0Y-82.8
X127.1Y-90.3
X127.26Y-121.989
X127.26Y-125.989
X127.3Y-93.1
X127.3Y-115.2
X127.4Y-84.9
X127.4Y-85.4
X127.4Y-85.9
X127.5Y-81.8
X127.5Y-82.3
X127.5Y-82.8
X127.7Y-67.1
X127.8Y-79.6
X127.8Y-97.9
X127.8Y-101.2
X127.9Y-78.4
X127.9Y-95.1
X128.0Y-81.8
X128.0Y-82.3
X128.0Y-82.8
X128.0Y-93.2
X128.0Y-109.4
X128.0Y-110.0
X128.0Y-112.0
X128.01Y-122.239
X128.01Y-125.739
X128.1Y-65.3
X128.2Y-80.4
X128.2Y-110.4
X128.2Y-110.9
X128.2Y-111.5
X128.3Y-68.9
X128.3Y-70.5
X128.3Y-99.8
X128.4Y-92.1
X128.51Y-122.739
X128.51Y-123.489
X128.51Y-124.239
X128.51Y-124.989
X128.6Y-110.2
X128.6Y-110.7
X128.6Y-111.2
X128.7Y-67.2
X128.7Y-84.9
X128.7Y-85.4
X128.7Y-85.9
X128.8Y-78.0
X128.8Y-90.6
X128.9Y-71.0
X129.1Y-64.6
X129.1Y-69.5
X129.2Y-84.9
X129.2Y-85.4
X129.2Y-85.9
X129.3Y-112.5
X129.3Y-129.7
X129.4Y-66.3
X129.4Y-118.5
X129.6Y-111.9
X129.7Y-76.7
X129.7Y-80.4
X129.7Y-84.9
X129.7Y-85.4
X129.7Y-85.9
X129.8Y-112.8
X129.9Y-110.1
X130.008Y-110.639
X130.2Y-107.5
X130.3Y-64.4
X130.3Y-97.9
X130.4Y-69.0
X130.4Y-80.4
X130.876Y-122.676
X130.876Y-123.426
X130.876Y-124.176
X130.876Y-124.926
X131.1Y-77.4
X131.376Y-122.176
X131.376Y-125.676
X131.6Y-78.5
X131.7Y-69.0
X131.8Y-80.4
X132.1Y-84.9
X132.1Y-85.4
X132.1Y-85.9
X132.126Y-121.926
X132.126Y-125.926
X132.3Y-108.2
X132.5Y-68.3
X132.5Y-129.6
X132.6Y-66.5
X132.6Y-80.9
X132.6Y-84.9
X132.6Y-85.4
X132.6Y-85.9
X132.7Y-80.3
X132.7Y-111.9
X132.8Y-78.9
X133.0Y-65.0
X133.0Y-110.1
X133.1Y-84.9
X133.1Y-85.4
X133.1Y-85.9
X133.1Y-114.0
X133.126Y-121.926
X133.126Y-125.926
X133.3Y-81.0
X133.3Y-99.0
X133.5Y-67.5
X133.7Y-92.7
X133.7Y-131.7
X133.876Y-122.176
X133.876Y-125.676
X134.0Y-76.5
X134.1Y-82.2
X134.3Y-66.9
X134.3Y-70.2
X134.3Y-70.7
X134.3Y-71.2
X134.3Y-71.7
X134.3Y-72.2
X134.3Y-72.7
X134.3Y-73.2
X134.3Y-73.7
X134.3Y-74.2
X134.3Y-74.7
X134.3Y-75.2
X134.3Y-78.1
X134.3Y-78.7
X134.3Y-79.2
X134.3Y-79.8
X134.3Y-80.3
X134.376Y-122.676
X134.376Y-123.426
X134.376Y-124.176
X134.376Y-124.926
X134.7Y-76.5
X134.7Y-82.2
X134.8Y-70.2
X134.8Y-70.7
X134.8Y-71.2
X134.8Y-71.7
X134.8Y-72.2
X134.8Y-72.7
X134.8Y-73.2
X134.8Y-73.7
X134.8Y-74.2
X134.8Y-74.7
X134.8Y-75.2
X134.8Y-80.3
X134.8Y-84.9
X134.8Y-85.4
X134.8Y-85.9
X134.8Y-101.8
X134.8Y-107.9
X134.9Y-79.1
X134.9Y-105.8
X135.0Y-78.4
X135.0Y-114.0
X135.1Y-92.5
X135.3Y-64.9
X135.3Y-78.8
X135.3Y-79.5
X135.3Y-84.9
X135.3Y-85.4
X135.3Y-85.9
X135.4Y-67.8
X135.4Y-80.0
X135.6Y-82.4
X135.7Y-66.4
X135.7Y-80.4
X135.8Y-76.5
X135.8Y-79.2
X135.8Y-84.9
X135.8Y-85.4
X135.8Y-85.9
X135.8Y-100.4
X135.8Y-107.6
X135.9Y-78.7
X135.9Y-99.1
X136.1Y-74.9
X136.1Y-79.9
X136.1Y-112.9
X136.2Y-111.7
X136.5Y-79.0
X136.5Y-79.6
X136.5Y-80.3
X136.6Y-75.3
X136.6Y-76.6
X136.7Y-73.6
X136.8Y-69.5
X137.0Y-92.6
X137.2Y-73.3
X137.6Y-65.8
X137.6Y-69.6
X137.7Y-77.3
X137.7Y-129.0
X138.219Y-122.66
X138.219Y-123.41
X138.219Y-124.16
X138.219Y-124.91
X138.3Y-67.5
X138.3Y-73.4
X138.3Y-131.3
X138.4Y-79.5
X138.7Y-97.8
X138.719Y-122.16
X138.719Y-125.66
X139.2Y-84.6
X139.2Y-85.1
X139.2Y-85.6
X139.469Y-121.91
X139.469Y-125.91
X139.5Y-110.6
X139.504Y-76.355
X139.6Y-72.6
X139.6Y-73.1
X139.6Y-80.0
X139.638Y-73.585
X139.7Y-75.9
X139.7Y-80.8
X139.7Y-84.6
X139.7Y-85.1
X139.7Y-85.6
X139.9Y-68.1
X140.0Y-92.1
X140.0Y-112.8
X140.1Y-72.6
X140.1Y-73.1
X140.1Y-73.6
X140.1Y-76.3
X140.1Y-109.4
X140.2Y-84.6
X140.2Y-85.1
X140.2Y-85.6
X140.469Y-121.91
X140.469Y-125.91
X140.6Y-72.6
X140.6Y-73.1
X140.6Y-73.6
X140.686Y-74.857
X140.7Y-78.7
X140.7Y-108.9
X140.8Y-82.3
X140.8Y-113.0
X140.9Y-66.6
X141.1Y-74.9
X141.1Y-75.5
X141.1Y-81.6
X141.2Y-76.6
X141.219Y-122.16
X141.219Y-125.66
X141.3Y-81.1
X141.6Y-65.2
X141.6Y-69.1
X141.6Y-69.6
X141.6Y-70.1
X141.6Y-70.6
X141.6Y-71.1
X141.6Y-71.6
X141.6Y-76.0
X141.719Y-122.66
X141.719Y-123.41
X141.719Y-124.16
X141.719Y-124.91
X142.1Y-67.1
X142.1Y-69.1
X142.1Y-69.6
X142.1Y-70.1
X142.1Y-70.6
X142.1Y-71.1
X142.1Y-71.6
X142.2Y-68.1
X142.5Y-76.0
X142.5Y-76.5
X142.5Y-129.4
X142.503Y-111.033
X142.503Y-111.568
X142.503Y-112.068
X142.503Y-112.568
X142.509Y-110.449
X142.512Y-109.914
X142.514Y-109.389
X142.6Y-69.1
X142.6Y-69.6
X142.6Y-70.1
X142.6Y-70.6
X142.6Y-71.1
X142.6Y-71.6
X142.8Y-81.3
X142.8Y-81.8
X142.8Y-82.3
X143.0Y-76.0
X143.0Y-76.5
X143.0Y-98.3
X143.1Y-92.5
X143.1Y-131.2
X143.3Y-81.3
X143.3Y-81.8
X143.3Y-82.3
X143.5Y-76.0
X143.5Y-76.5
X143.552Y-109.501
X143.552Y-110.101
X143.552Y-112.101
X143.752Y-110.501
X143.752Y-111.001
X143.752Y-111.601
X143.8Y-67.1
X143.8Y-81.3
X143.8Y-81.8
X143.8Y-82.3
X144.124Y-122.66
X144.124Y-123.41
X144.124Y-124.16
X144.124Y-124.91
X144.152Y-110.301
X144.152Y-110.801
X144.152Y-111.301
X144.2Y-113.9
X144.5Y-64.8
X144.624Y-122.16
X144.624Y-125.66
X144.8Y-68.4
X145.2Y-69.3
X145.2Y-77.0
X145.2Y-77.5
X145.2Y-78.0
X145.2Y-78.8
X145.2Y-79.3
X145.2Y-79.8
X145.2Y-80.5
X145.2Y-81.0
X145.2Y-81.5
X145.2Y-109.8
X145.3Y-112.5
X145.3Y-114.6
X145.374Y-121.91
X145.374Y-125.91
X145.6Y-110.4
X145.6Y-111.5
X145.7Y-77.0
X145.7Y-77.5
X145.7Y-78.0
X145.7Y-78.8
X145.7Y-79.3
X145.7Y-79.8
X145.7Y-80.5
X145.7Y-81.0
X145.7Y-81.5
X146.2Y-77.0
X146.2Y-77.5
X146.2Y-78.0
X146.2Y-78.8
X146.2Y-79.3
X146.2Y-79.8
X146.2Y-80.5
X146.2Y-81.0
X146.2Y-81.5
X146.3Y-66.5
X146.374Y-121.91
X146.374Y-125.91
X146.7Y-100.9
X146.742Y-91.209
X146.742Y-92.209
X146.75Y-85.3
X146.75Y-86.3
X146.9Y-78.7
X146.992Y-90.459
X146.992Y-92.959
X147.0Y-84.55
X147.0Y-87.05
X147.1Y-65.0
X147.124Y-122.16
X147.124Y-125.66
X147.4Y-129.3
X147.624Y-122.66
X147.624Y-123.41
X147.624Y-124.16
X147.624Y-124.91
X147.7Y-68.6
X147.7Y-70.2
X147.742Y-89.959
X147.742Y-93.459
X147.75Y-84.05
X147.75Y-87.55
X147.9Y-67.6
X148.0Y-131.3
X148.3Y-80.6
X148.492Y-89.959
X148.492Y-93.459
X148.5Y-84.05
X148.5Y-87.55
X148.6Y-96.5
X148.7Y-73.9
X148.9Y-78.4
X149.242Y-89.959
X149.242Y-93.459
X149.25Y-84.05
X149.25Y-87.55
X149.6Y-81.1
X149.9Y-71.1
X149.992Y-89.959
X149.992Y-93.459
X150.0Y-84.05
X150.0Y-87.55
X150.492Y-90.459
X150.492Y-92.959
X150.5Y-84.55
X150.5Y-87.05
X150.7Y-96.7
X150.742Y-91.209
X150.742Y-92.209
X150.75Y-85.3
X150.75Y-86.3
X151.1Y-78.7
X151.1Y-82.1
X151.3Y-106.5
X151.3Y-107.1
X151.7Y-106.1
X151.7Y-107.6
X151.8Y-106.8
X151.9Y-83.3
X151.9Y-128.7
X152.0Y-91.8
X152.2Y-106.0
X152.2Y-131.1
X152.3Y-107.1
X152.3Y-107.6
X152.4Y-106.5
X152.463Y-122.66
X152.463Y-123.41
X152.463Y-124.16
X152.463Y-124.91
X152.8Y-94.0
X152.9Y-106.0
X152.9Y-106.6
X152.9Y-107.1
X152.9Y-107.6
X152.963Y-122.16
X152.963Y-125.66
X153.2Y-87.3
X153.5Y-91.7
X153.5Y-106.0
X153.5Y-106.6
X153.5Y-107.1
X153.5Y-107.6
X153.5Y-114.5
X153.6Y-84.8
X153.6Y-89.8
X153.713Y-121.91
X153.713Y-125.91
X154.0Y-82.7
X154.0Y-106.1
X154.0Y-106.6
X154.0Y-107.1
X154.0Y-107.6
X154.3Y-80.2
X154.4Y-114.2
X154.7Y-106.1
X154.7Y-106.6
X154.7Y-107.1
X154.7Y-107.6
X154.7Y-114.6
X154.713Y-121.91
X154.713Y-125.91
X155.1Y-114.2
X155.3Y-85.7
X155.3Y-107.6
X155.4Y-106.1
X155.4Y-106.6
X155.4Y-107.1
X155.463Y-122.16
X155.463Y-125.66
X155.5Y-89.9
X155.5Y-94.0
X155.6Y-114.5
X155.963Y-122.66
X155.963Y-123.41
X155.963Y-124.16
X155.963Y-124.91
X156.0Y-87.0
X156.0Y-91.7
X156.2Y-114.2
X156.3Y-113.6
X156.3Y-114.7
X156.5Y-131.1
X156.8Y-113.6
X156.8Y-114.2
X156.8Y-115.0
X157.2Y-114.7
X157.25Y-93.65
X157.3Y-113.6
X157.4Y-114.1
X157.5Y-82.3
X157.5Y-85.0
X157.5Y-89.5
X157.6Y-128.0
X157.8Y-93.1
X158.345Y-122.66
X158.345Y-123.41
X158.345Y-124.16
X158.345Y-124.91
X158.6Y-88.8
X158.7Y-93.2
X158.845Y-122.16
X158.845Y-125.66
X159.0Y-100.1
X159.0Y-101.2
X159.595Y-121.91
X159.595Y-125.91
X160.2Y-111.7
X160.3Y-110.5
X160.3Y-130.8
X160.4Y-99.4
X160.595Y-121.91
X160.595Y-125.91
X160.7Y-111.7
X160.8Y-106.4
X160.8Y-107.0
X160.8Y-112.8
X160.9Y-110.5
X161.2Y-106.0
X161.2Y-107.5
X161.2Y-111.7
X161.3Y-106.7
X161.345Y-122.16
X161.345Y-125.66
X161.4Y-112.7
X161.6Y-111.2
X161.6Y-112.3
X161.7Y-105.9
X161.7Y-110.7
X161.7Y-111.7
X161.8Y-107.0
X161.8Y-107.5
X161.845Y-122.66
X161.845Y-123.41
X161.845Y-124.16
X161.845Y-124.91
X161.9Y-106.4
X162.0Y-88.6
X162.0Y-89.7
X162.1Y-93.0
X162.4Y-75.4
X162.4Y-76.0
X162.4Y-105.9
X162.4Y-106.5
X162.4Y-107.0
X162.4Y-107.5
X162.477Y-78.123
X162.6Y-100.9
X162.7Y-98.7
X163.0Y-77.1
X163.0Y-105.9
X163.0Y-106.5
X163.0Y-107.0
X163.0Y-107.5
X163.2Y-74.9
X163.2Y-128.6
X163.3Y-78.1
X163.3Y-111.8
X163.3Y-112.4
X163.4Y-111.2
X163.408Y-77.561
X163.5Y-75.8
X163.5Y-97.1
X163.5Y-106.0
X163.5Y-106.5
X163.5Y-107.0
X163.5Y-107.5
X163.7Y-81.0
X163.7Y-88.9
X163.7Y-110.8
X163.8Y-95.8
X163.9Y-112.3
X163.9Y-131.0
X164.1Y-99.9
X164.2Y-106.0
X164.2Y-106.5
X164.2Y-107.0
X164.2Y-107.5
X164.3Y-110.8
X164.5Y-92.8
X164.6Y-112.3
X164.8Y-97.9
X164.8Y-107.5
X164.8Y-113.0
X164.8Y-120.3
X164.857Y-91.257
X164.9Y-76.2
X164.9Y-106.0
X164.9Y-106.5
X164.9Y-107.0
X164.9Y-110.8
X164.9Y-121.9
X164.9Y-123.4
X164.9Y-125.0
X165.2Y-112.5
X165.3Y-71.4
X165.3Y-97.3
X165.4Y-110.8
X165.4Y-111.4
X165.4Y-112.0
X165.4Y-114.3
X165.8Y-101.0
X165.8Y-113.8
X165.8Y-114.5
X165.838Y-79.737
X165.9Y-90.8
X165.9Y-110.8
X166.1Y-100.2
X166.2Y-64.0
X166.2Y-64.7
X166.2Y-86.2
X166.2Y-94.8
X166.3Y-77.1
X166.3Y-78.5
X166.4Y-77.9
X166.4Y-88.7
X166.4Y-114.8
X166.4Y-116.5
X166.5Y-110.8
X166.5Y-117.7
X166.6Y-106.7
X166.6Y-107.3
X166.7Y-116.0
X166.8Y-71.0
X166.8Y-117.3
X166.9Y-76.9
X166.9Y-115.4
X166.9Y-116.7
X166.9Y-118.2
X167.0Y-72.1
X167.0Y-106.3
X167.0Y-107.8
X167.1Y-107.0
X167.1Y-110.8
X167.2Y-77.9
X167.221Y-122.618
X167.221Y-123.368
X167.221Y-124.118
X167.221Y-124.868
X167.3Y-76.7
X167.3Y-77.4
X167.35Y-82.075
X167.4Y-76.0
X167.4Y-117.7
X167.5Y-106.2
X167.5Y-114.8
X167.5Y-115.5
X167.5Y-117.1
X167.6Y-107.3
X167.6Y-107.8
X167.6Y-116.2
X167.7Y-78.4
X167.7Y-106.7
X167.721Y-122.118
X167.721Y-125.618
X167.8Y-77.8
X167.9Y-75.4
X167.9Y-76.9
X167.9Y-77.3
X168.0Y-72.2
X168.075Y-83.1
X168.075Y-85.275
X168.1Y-76.3
X168.1Y-128.2
X168.2Y-78.3
X168.2Y-91.2
X168.2Y-106.2
X168.2Y-106.8
X168.2Y-107.3
X168.2Y-107.8
X168.41Y-72.637
X168.471Y-121.868
X168.471Y-125.868
X168.5Y-77.8
X168.6Y-75.5
X168.6Y-114.8
X168.7Y-77.4
X168.8Y-76.1
X168.8Y-76.8
X168.8Y-78.4
X168.8Y-106.2
X168.8Y-106.8
X168.8Y-107.3
X168.8Y-107.8
X168.8Y-113.1
X168.9Y-71.5
X169.0Y-114.4
X169.2Y-75.9
X169.3Y-75.5
X169.3Y-77.1
X169.3Y-77.9
X169.3Y-78.4
X169.3Y-106.3
X169.3Y-106.8
X169.3Y-107.3
X169.3Y-107.8
X169.3Y-114.8
X169.4Y-76.3
X169.471Y-121.868
X169.471Y-125.868
X169.6Y-114.3
X169.89Y-84.015
X169.9Y-114.8
X170.0Y-106.3
X170.0Y-106.8
X170.0Y-107.3
X170.0Y-107.8
X170.221Y-122.118
X170.221Y-125.618
X170.3Y-114.2
X170.4Y-88.6
X170.4Y-89.7
X170.5Y-71.0
X170.5Y-71.6
X170.6Y-107.8
X170.6Y-114.8
X170.7Y-106.3
X170.7Y-106.8
X170.7Y-107.3
X170.721Y-122.618
X170.721Y-123.368
X170.721Y-124.118
X170.721Y-124.868
X170.8Y-113.6
X171.0Y-75.4
X171.0Y-98.2
X171.0Y-114.2
X171.0Y-128.1
X171.1Y-100.8
X171.1Y-114.8
X171.2Y-77.2
X171.3Y-99.9
X171.3Y-113.6
X171.7Y-77.8
X171.7Y-114.2
X171.9Y-114.8
X172.0Y-71.1
X172.0Y-71.7
X172.0Y-80.4
X172.0Y-99.8
X172.0Y-113.6
X172.3Y-114.5
X172.4Y-114.0
X172.7Y-77.5
X173.181Y-122.607
X173.181Y-123.357
X173.181Y-124.107
X173.181Y-124.857
X173.6Y-78.2
X173.681Y-122.107
X173.681Y-125.607
X173.7Y-80.4
X173.8Y-101.7
X173.9Y-100.5
X174.1Y-130.5
X174.431Y-121.857
X174.431Y-125.857
X174.5Y-84.8
X174.6Y-89.0
X175.254Y-111.668
X175.3Y-99.3
X175.3Y-111.1
X175.354Y-112.768
X175.431Y-121.857
X175.431Y-125.857
X175.454Y-110.468
X175.5Y-81.9
X175.754Y-111.668
X175.954Y-112.668
X176.1Y-71.2
X176.1Y-106.5
X176.1Y-107.1
X176.154Y-111.168
X176.154Y-112.268
X176.181Y-122.107
X176.181Y-125.607
X176.254Y-110.668
X176.254Y-111.668
X176.4Y-100.1
X176.4Y-129.3
X176.5Y-106.1
X176.5Y-107.6
X176.6Y-106.8
X176.681Y-122.607
X176.681Y-123.357
X176.681Y-124.107
X176.681Y-124.857
X177.0Y-72.2
X177.0Y-77.6
X177.0Y-106.0
X177.1Y-107.1
X177.1Y-107.6
X177.2Y-106.5
X177.5Y-74.2
X177.7Y-106.0
X177.7Y-106.6
X177.7Y-107.1
X177.7Y-107.6
X177.8Y-70.3
X177.822Y-112.033
X177.864Y-111.439
X178.29Y-112.386
X178.3Y-106.0
X178.3Y-106.6
X178.3Y-107.1
X178.3Y-107.6
X178.3Y-117.2
X178.325Y-110.803
X178.4Y-93.4
X178.5Y-115.2
X178.7Y-120.6
X178.8Y-106.1
X178.8Y-106.6
X178.8Y-107.1
X178.8Y-107.6
X178.951Y-112.365
X179.0Y-125.0
X179.073Y-110.778
X179.1Y-64.1
X179.1Y-65.1
X179.1Y-117.9
X179.167Y-114.353
X179.2Y-64.5
X179.234Y-113.63
X179.244Y-113.06
X179.3Y-115.8
X179.3Y-123.0
X179.5Y-106.1
X179.5Y-106.6
X179.5Y-107.1
X179.5Y-107.6
X179.748Y-110.813
X179.8Y-111.421
X179.81Y-112.008
X179.9Y-99.8
X179.9Y-119.7
X180.0Y-126.2
X180.1Y-76.7
X180.1Y-100.6
X180.1Y-107.6
X180.2Y-106.1
X180.2Y-106.6
X180.2Y-107.1
X180.384Y-110.775
X180.8Y-128.4
X180.9Y-121.0
X181.006Y-110.775
X181.234Y-122.728
X181.234Y-123.478
X181.234Y-124.228
X181.234Y-124.978
X181.3Y-74.3
X181.7Y-93.2
X181.734Y-122.228
X181.734Y-125.728
X182.1Y-101.3
X182.1Y-120.2
X182.4Y-70.9
X182.4Y-131.2
X182.484Y-121.978
X182.484Y-125.978
X182.5Y-71.6
X182.5Y-111.6
X182.5Y-113.5
X182.8Y-100.8
X182.8Y-115.3
X182.9Y-103.6
X183.0Y-128.6
X183.3Y-85.3
X183.3Y-87.2
X183.4Y-86.3
X183.4Y-87.7
X183.4Y-111.0
X183.484Y-121.978
X183.484Y-125.978
X183.7Y-119.4
X183.8Y-120.9
X183.9Y-86.9
X183.9Y-87.7
X184.0Y-69.7
X184.0Y-115.3
X184.234Y-122.228
X184.234Y-125.728
X184.4Y-94.4
X184.7Y-120.2
X184.734Y-122.728
X184.734Y-123.478
X184.734Y-124.228
X184.734Y-124.978
X184.9Y-98.3
X184.9Y-111.2
X185.2Y-121.2
X185.3Y-103.3
X185.8Y-92.3
X187.0Y-85.8
X187.178Y-122.613
X187.178Y-123.363
X187.178Y-124.113
X187.178Y-124.863
X187.678Y-122.113
X187.678Y-125.613
X187.9Y-106.3
X187.9Y-106.8
X187.9Y-107.3
X187.9Y-107.7
X188.1Y-109.8
X188.3Y-106.7
X188.3Y-107.2
X188.4Y-106.3
X188.4Y-109.4
X188.428Y-121.863
X188.428Y-125.863
X188.5Y-107.7
X188.8Y-106.9
X188.8Y-107.3
X188.9Y-83.8
X188.9Y-100.4
X188.9Y-106.3
X189.0Y-97.0
X189.0Y-107.7
X189.1Y-111.8
X189.2Y-106.6
X189.2Y-107.2
X189.3Y-102.7
X189.428Y-121.863
X189.428Y-125.863
X189.7Y-108.9
X189.8Y-105.3
X189.9Y-105.8
X190.178Y-122.113
X190.178Y-125.613
X190.4Y-105.2
X190.5Y-102.5
X190.678Y-122.613
X190.678Y-123.363
X190.678Y-124.113
X190.678Y-124.863
X190.7Y-105.8
X190.7Y-106.5
X190.8Y-107.3
X191.3Y-109.4
X191.4Y-107.3
X191.5Y-105.7
X191.5Y-112.5
X191.6Y-110.1
X191.6Y-110.9
X191.9Y-107.2
X192.0Y-105.7
T3
X187.2Y-69.0
X187.2Y-70.27
X187.2Y-71.54
X187.2Y-72.81
X187.2Y-74.08
X187.2Y-75.35
X187.2Y-76.62
X187.2Y-77.89
X187.2Y-79.16
X187.2Y-80.43
X187.2Y-81.7
X189.4Y-69.0
X189.4Y-70.27
X189.4Y-71.54
X189.4Y-72.81
X189.4Y-74.08
X189.4Y-75.35
X189.4Y-76.62
X189.4Y-77.89
X189.4Y-79.16
X189.4Y-80.43
X189.4Y-81.7
X191.4Y-89.25
X191.4Y-90.52
X191.4Y-91.79
X191.4Y-93.06
X191.4Y-94.33
X191.4Y-95.6
X191.4Y-96.87
X191.6Y-69.0
X191.6Y-70.27
X191.6Y-71.54
X191.6Y-72.81
X191.6Y-74.08
X191.6Y-75.35
X191.6Y-76.62
X191.6Y-77.89
X191.6Y-79.16
X191.6Y-80.43
X191.6Y-81.7
T4
X187.425Y-89.8
X187.425Y-92.34
X187.425Y-94.88
X187.425Y-97.42
T6
X125.2Y-65.5
X125.2Y-129.87
X186.6Y-65.25
X186.6Y-129.62
T2
G00X122.625Y-70.28
M15
G01X121.825Y-70.28
M16
G05
G00X122.625Y-78.92
M15
G01X121.825Y-78.92
M16
G05
G00X126.975Y-70.28
M15
G01X125.875Y-70.28
M16
G05
G00X126.975Y-78.92
M15
G01X125.875Y-78.92
M16
G05
T5
G00X126.8Y-123.45
M15
G01X126.8Y-124.45
M16
G05
G00X132.65Y-123.4
M15
G01X132.65Y-124.4
M16
G05
G00X140.0Y-123.4
M15
G01X140.0Y-124.4
M16
G05
G00X145.9Y-123.4
M15
G01X145.9Y-124.4
M16
G05
G00X148.25Y-91.6
M15
G01X149.25Y-91.6
M16
G05
G00X148.3Y-85.85
M15
G01X149.3Y-85.85
M16
G05
G00X154.2Y-123.4
M15
G01X154.2Y-124.4
M16
G05
G00X160.15Y-123.4
M15
G01X160.15Y-124.4
M16
G05
G00X169.0Y-123.4
M15
G01X169.0Y-124.4
M16
G05
G00X174.95Y-123.4
M15
G01X174.95Y-124.4
M16
G05
G00X183.0Y-123.45
M15
G01X183.0Y-124.45
M16
G05
G00X188.95Y-123.4
M15
G01X188.95Y-124.4
>>>>>>> origin/main
M16
G05
M30
