%TF.GenerationSoftware,KiCad,Pcbnew,9.0.0*%
%TF.CreationDate,2025-08-24T13:48:54+03:00*%
%TF.ProjectId,USB-PD-Voltage-supply,5553422d-5044-42d5-966f-6c746167652d,rev?*%
%TF.SameCoordinates,Original*%
%TF.FileFunction,Soldermask,Bot*%
%TF.FilePolarity,Negative*%
%FSLAX46Y46*%
G04 Gerber Fmt 4.6, Leading zero omitted, Abs format (unit mm)*
G04 Created by KiCad (PCBNEW 9.0.0) date 2025-08-24 13:48:54*
%MOMM*%
%LPD*%
G01*
G04 APERTURE LIST*
G04 Aperture macros list*
%AMRoundRect*
0 Rectangle with rounded corners*
0 $1 Rounding radius*
0 $2 $3 $4 $5 $6 $7 $8 $9 X,Y pos of 4 corners*
0 Add a 4 corners polygon primitive as box body*
4,1,4,$2,$3,$4,$5,$6,$7,$8,$9,$2,$3,0*
0 Add four circle primitives for the rounded corners*
1,1,$1+$1,$2,$3*
1,1,$1+$1,$4,$5*
1,1,$1+$1,$6,$7*
1,1,$1+$1,$8,$9*
0 Add four rect primitives between the rounded corners*
20,1,$1+$1,$2,$3,$4,$5,0*
20,1,$1+$1,$4,$5,$6,$7,0*
20,1,$1+$1,$6,$7,$8,$9,0*
20,1,$1+$1,$8,$9,$2,$3,0*%
G04 Aperture macros list end*
%ADD10C,0.100000*%
%ADD11R,1.000000X1.000000*%
%ADD12O,1.000000X1.000000*%
%ADD13C,0.650000*%
%ADD14O,2.100000X1.000000*%
%ADD15O,1.800000X1.000000*%
%ADD16O,4.000000X4.000000*%
%ADD17C,1.600000*%
%ADD18C,1.800000*%
%ADD19R,1.700000X1.700000*%
%ADD20O,1.700000X1.700000*%
%ADD21RoundRect,0.140000X-0.170000X0.140000X-0.170000X-0.140000X0.170000X-0.140000X0.170000X0.140000X0*%
%ADD22RoundRect,0.250000X0.250000X0.475000X-0.250000X0.475000X-0.250000X-0.475000X0.250000X-0.475000X0*%
%ADD23RoundRect,0.140000X0.140000X0.170000X-0.140000X0.170000X-0.140000X-0.170000X0.140000X-0.170000X0*%
G04 APERTURE END LIST*
%TO.C,TP25*%
D10*
X53350000Y12650000D02*
X58350000Y12650000D01*
X58350000Y7650000D01*
X53350000Y7650000D01*
X53350000Y12650000D01*
G36*
X53350000Y12650000D02*
G01*
X58350000Y12650000D01*
X58350000Y7650000D01*
X53350000Y7650000D01*
X53350000Y12650000D01*
G37*
%TO.C,TP18*%
X5200000Y12600000D02*
X10200000Y12600000D01*
X10200000Y7600000D01*
X5200000Y7600000D01*
X5200000Y12600000D01*
G36*
X5200000Y12600000D02*
G01*
X10200000Y12600000D01*
X10200000Y7600000D01*
X5200000Y7600000D01*
X5200000Y12600000D01*
G37*
%TO.C,TP20*%
X18400000Y12650000D02*
X23400000Y12650000D01*
X23400000Y7650000D01*
X18400000Y7650000D01*
X18400000Y12650000D01*
G36*
X18400000Y12650000D02*
G01*
X23400000Y12650000D01*
X23400000Y7650000D01*
X18400000Y7650000D01*
X18400000Y12650000D01*
G37*
%TO.C,TP17*%
X11050000Y12650000D02*
X16050000Y12650000D01*
X16050000Y7650000D01*
X11050000Y7650000D01*
X11050000Y12650000D01*
G36*
X11050000Y12650000D02*
G01*
X16050000Y12650000D01*
X16050000Y7650000D01*
X11050000Y7650000D01*
X11050000Y12650000D01*
G37*
%TO.C,TP23*%
X38550000Y12650000D02*
X43550000Y12650000D01*
X43550000Y7650000D01*
X38550000Y7650000D01*
X38550000Y12650000D01*
G36*
X38550000Y12650000D02*
G01*
X43550000Y12650000D01*
X43550000Y7650000D01*
X38550000Y7650000D01*
X38550000Y12650000D01*
G37*
%TO.C,TP16*%
X27150000Y39950000D02*
X32150000Y39950000D01*
X32150000Y44950000D01*
X27150000Y44950000D01*
X27150000Y39950000D01*
G36*
X27150000Y39950000D02*
G01*
X32150000Y39950000D01*
X32150000Y44950000D01*
X27150000Y44950000D01*
X27150000Y39950000D01*
G37*
%TO.C,TP22*%
X61400000Y12600000D02*
X66400000Y12600000D01*
X66400000Y7600000D01*
X61400000Y7600000D01*
X61400000Y12600000D01*
G36*
X61400000Y12600000D02*
G01*
X66400000Y12600000D01*
X66400000Y7600000D01*
X61400000Y7600000D01*
X61400000Y12600000D01*
G37*
%TO.C,TP15*%
X27200000Y45700000D02*
X32200000Y45700000D01*
X32200000Y50700000D01*
X27200000Y50700000D01*
X27200000Y45700000D01*
G36*
X27200000Y45700000D02*
G01*
X32200000Y45700000D01*
X32200000Y50700000D01*
X27200000Y50700000D01*
X27200000Y45700000D01*
G37*
%TO.C,TP24*%
X32600000Y12650000D02*
X37600000Y12650000D01*
X37600000Y7650000D01*
X32600000Y7650000D01*
X32600000Y12650000D01*
G36*
X32600000Y12650000D02*
G01*
X37600000Y12650000D01*
X37600000Y7650000D01*
X32600000Y7650000D01*
X32600000Y12650000D01*
G37*
%TO.C,TP21*%
X67350000Y12650000D02*
X72350000Y12650000D01*
X72350000Y7650000D01*
X67350000Y7650000D01*
X67350000Y12650000D01*
G36*
X67350000Y12650000D02*
G01*
X72350000Y12650000D01*
X72350000Y7650000D01*
X67350000Y7650000D01*
X67350000Y12650000D01*
G37*
%TO.C,TP26*%
X47400000Y12650000D02*
X52400000Y12650000D01*
X52400000Y7650000D01*
X47400000Y7650000D01*
X47400000Y12650000D01*
G36*
X47400000Y12650000D02*
G01*
X52400000Y12650000D01*
X52400000Y7650000D01*
X47400000Y7650000D01*
X47400000Y12650000D01*
G37*
%TO.C,TP19*%
X24300000Y12650000D02*
X29300000Y12650000D01*
X29300000Y7650000D01*
X24300000Y7650000D01*
X24300000Y12650000D01*
G36*
X24300000Y12650000D02*
G01*
X29300000Y12650000D01*
X29300000Y7650000D01*
X24300000Y7650000D01*
X24300000Y12650000D01*
G37*
%TD*%
D11*
%TO.C,J6*%
X70300000Y52350000D03*
D12*
X70300000Y53620000D03*
X70300000Y54890000D03*
X70300000Y56160000D03*
X70300000Y57430000D03*
X70300000Y58700000D03*
X70300000Y59970000D03*
X70300000Y61240000D03*
X70300000Y62510000D03*
X70300000Y63780000D03*
X70300000Y65050000D03*
%TD*%
D11*
%TO.C,J7*%
X72500000Y52350000D03*
D12*
X72500000Y53620000D03*
X72500000Y54890000D03*
X72500000Y56160000D03*
X72500000Y57430000D03*
X72500000Y58700000D03*
X72500000Y59970000D03*
X72500000Y61240000D03*
X72500000Y62510000D03*
X72500000Y63780000D03*
X72500000Y65050000D03*
%TD*%
D13*
%TO.C,J4*%
X6805000Y62340000D03*
X6805000Y56560000D03*
D14*
X7325000Y63770000D03*
D15*
X3125000Y63770000D03*
D14*
X7325000Y55130000D03*
D15*
X3125000Y55130000D03*
%TD*%
D16*
%TO.C,*%
X67500000Y4430440D03*
%TD*%
%TO.C,*%
X6100000Y68550000D03*
%TD*%
D11*
%TO.C,J5*%
X68100000Y52350000D03*
D12*
X68100000Y53620000D03*
X68100000Y54890000D03*
X68100000Y56160000D03*
X68100000Y57430000D03*
X68100000Y58700000D03*
X68100000Y59970000D03*
X68100000Y61240000D03*
X68100000Y62510000D03*
X68100000Y63780000D03*
X68100000Y65050000D03*
%TD*%
D16*
%TO.C,*%
X6100000Y4180440D03*
%TD*%
%TO.C,*%
X67500000Y68800000D03*
%TD*%
D11*
%TO.C,J2*%
X72300000Y44800000D03*
D12*
X72300000Y43530000D03*
X72300000Y42260000D03*
X72300000Y40990000D03*
X72300000Y39720000D03*
X72300000Y38450000D03*
X72300000Y37180000D03*
%TD*%
D17*
%TO.C,J1*%
X5400000Y45850000D03*
D18*
X9900000Y45850000D03*
%TD*%
D19*
%TO.C,J3*%
X68325000Y44250000D03*
D20*
X68325000Y41710000D03*
X68325000Y39170000D03*
X68325000Y36630000D03*
%TD*%
D21*
%TO.C,C19*%
X15825000Y57080000D03*
X15825000Y56120000D03*
%TD*%
D22*
%TO.C,C40*%
X24650000Y25250000D03*
X22750000Y25250000D03*
%TD*%
%TO.C,C37*%
X9250000Y21250000D03*
X7350000Y21250000D03*
%TD*%
%TO.C,C39*%
X9250000Y23250000D03*
X7350000Y23250000D03*
%TD*%
%TO.C,C47*%
X42250000Y23450000D03*
X40350000Y23450000D03*
%TD*%
%TO.C,C35*%
X24650000Y23250000D03*
X22750000Y23250000D03*
%TD*%
D21*
%TO.C,C21*%
X14900000Y57080000D03*
X14900000Y56120000D03*
%TD*%
D22*
%TO.C,C38*%
X24650000Y21250000D03*
X22750000Y21250000D03*
%TD*%
D23*
%TO.C,C33*%
X24180000Y26850000D03*
X23220000Y26850000D03*
%TD*%
D22*
%TO.C,C34*%
X9250000Y25250000D03*
X7350000Y25250000D03*
%TD*%
D23*
%TO.C,C32*%
X8900000Y26850000D03*
X7940000Y26850000D03*
%TD*%
D22*
%TO.C,C23*%
X14250000Y63450000D03*
X12350000Y63450000D03*
%TD*%
%TO.C,C48*%
X57050000Y21450000D03*
X55150000Y21450000D03*
%TD*%
%TO.C,C46*%
X57050000Y23450000D03*
X55150000Y23450000D03*
%TD*%
%TO.C,C22*%
X14250000Y59450000D03*
X12350000Y59450000D03*
%TD*%
D21*
%TO.C,C20*%
X16750000Y57080000D03*
X16750000Y56120000D03*
%TD*%
D22*
%TO.C,C45*%
X42250000Y21450000D03*
X40350000Y21450000D03*
%TD*%
%TO.C,C24*%
X14250000Y61450000D03*
X12350000Y61450000D03*
%TD*%
M02*
