%TF.GenerationSoftware,KiCad,Pcbnew,9.0.0*%
%TF.CreationDate,2025-08-15T19:16:38+03:00*%
%TF.ProjectId,USB-PD-Voltage-supply,5553422d-5044-42d5-966f-6c746167652d,rev?*%
%TF.SameCoordinates,Original*%
%TF.FileFunction,Paste,Top*%
%TF.FilePolarity,Positive*%
%FSLAX46Y46*%
G04 Gerber Fmt 4.6, Leading zero omitted, Abs format (unit mm)*
G04 Created by KiCad (PCBNEW 9.0.0) date 2025-08-15 19:16:38*
%MOMM*%
%LPD*%
G01*
G04 APERTURE LIST*
G04 Aperture macros list*
%AMRoundRect*
0 Rectangle with rounded corners*
0 $1 Rounding radius*
0 $2 $3 $4 $5 $6 $7 $8 $9 X,Y pos of 4 corners*
0 Add a 4 corners polygon primitive as box body*
4,1,4,$2,$3,$4,$5,$6,$7,$8,$9,$2,$3,0*
0 Add four circle primitives for the rounded corners*
1,1,$1+$1,$2,$3*
1,1,$1+$1,$4,$5*
1,1,$1+$1,$6,$7*
1,1,$1+$1,$8,$9*
0 Add four rect primitives between the rounded corners*
20,1,$1+$1,$2,$3,$4,$5,0*
20,1,$1+$1,$4,$5,$6,$7,0*
20,1,$1+$1,$6,$7,$8,$9,0*
20,1,$1+$1,$8,$9,$2,$3,0*%
G04 Aperture macros list end*
%ADD10RoundRect,0.250000X-0.900000X1.000000X-0.900000X-1.000000X0.900000X-1.000000X0.900000X1.000000X0*%
%ADD11RoundRect,0.079500X-0.079500X-0.100500X0.079500X-0.100500X0.079500X0.100500X-0.079500X0.100500X0*%
%ADD12RoundRect,0.140000X-0.140000X-0.170000X0.140000X-0.170000X0.140000X0.170000X-0.140000X0.170000X0*%
%ADD13R,0.750000X0.400000*%
%ADD14R,2.400000X2.450000*%
%ADD15R,0.400000X0.530000*%
%ADD16RoundRect,0.079500X0.079500X0.100500X-0.079500X0.100500X-0.079500X-0.100500X0.079500X-0.100500X0*%
%ADD17C,0.600000*%
%ADD18RoundRect,1.500000X-1.000000X-1.000000X1.000000X-1.000000X1.000000X1.000000X-1.000000X1.000000X0*%
%ADD19RoundRect,0.135000X0.185000X-0.135000X0.185000X0.135000X-0.185000X0.135000X-0.185000X-0.135000X0*%
%ADD20RoundRect,0.140000X0.140000X0.170000X-0.140000X0.170000X-0.140000X-0.170000X0.140000X-0.170000X0*%
%ADD21R,0.800000X0.300000*%
%ADD22R,0.300000X0.800000*%
%ADD23R,1.750000X1.750000*%
%ADD24RoundRect,0.150000X-0.512500X-0.150000X0.512500X-0.150000X0.512500X0.150000X-0.512500X0.150000X0*%
%ADD25RoundRect,0.135000X-0.185000X0.135000X-0.185000X-0.135000X0.185000X-0.135000X0.185000X0.135000X0*%
%ADD26RoundRect,0.250000X1.000000X0.650000X-1.000000X0.650000X-1.000000X-0.650000X1.000000X-0.650000X0*%
%ADD27RoundRect,0.135000X0.135000X0.185000X-0.135000X0.185000X-0.135000X-0.185000X0.135000X-0.185000X0*%
%ADD28RoundRect,0.079500X-0.100500X0.079500X-0.100500X-0.079500X0.100500X-0.079500X0.100500X0.079500X0*%
%ADD29RoundRect,0.147500X0.147500X0.172500X-0.147500X0.172500X-0.147500X-0.172500X0.147500X-0.172500X0*%
%ADD30R,0.900000X1.700000*%
%ADD31R,1.240000X0.600000*%
%ADD32R,1.240000X0.300000*%
%ADD33RoundRect,0.250000X-0.475000X0.250000X-0.475000X-0.250000X0.475000X-0.250000X0.475000X0.250000X0*%
%ADD34RoundRect,0.140000X-0.170000X0.140000X-0.170000X-0.140000X0.170000X-0.140000X0.170000X0.140000X0*%
%ADD35RoundRect,0.135000X-0.135000X-0.185000X0.135000X-0.185000X0.135000X0.185000X-0.135000X0.185000X0*%
%ADD36RoundRect,0.250000X0.475000X-0.250000X0.475000X0.250000X-0.475000X0.250000X-0.475000X-0.250000X0*%
%ADD37RoundRect,0.250000X0.900000X-1.000000X0.900000X1.000000X-0.900000X1.000000X-0.900000X-1.000000X0*%
%ADD38RoundRect,0.250002X1.799998X1.799998X-1.799998X1.799998X-1.799998X-1.799998X1.799998X-1.799998X0*%
%ADD39RoundRect,0.250000X-0.375000X-1.075000X0.375000X-1.075000X0.375000X1.075000X-0.375000X1.075000X0*%
%ADD40RoundRect,0.250000X-0.625000X0.312500X-0.625000X-0.312500X0.625000X-0.312500X0.625000X0.312500X0*%
%ADD41RoundRect,0.079500X0.100500X-0.079500X0.100500X0.079500X-0.100500X0.079500X-0.100500X-0.079500X0*%
%ADD42R,1.525000X0.650000*%
%ADD43R,2.400000X3.100000*%
%ADD44RoundRect,0.100000X-0.100000X0.225000X-0.100000X-0.225000X0.100000X-0.225000X0.100000X0.225000X0*%
%ADD45RoundRect,0.375000X0.375000X-0.625000X0.375000X0.625000X-0.375000X0.625000X-0.375000X-0.625000X0*%
%ADD46RoundRect,0.500000X1.400000X-0.500000X1.400000X0.500000X-1.400000X0.500000X-1.400000X-0.500000X0*%
%ADD47RoundRect,1.500000X1.000000X-1.000000X1.000000X1.000000X-1.000000X1.000000X-1.000000X-1.000000X0*%
%ADD48RoundRect,0.250000X-0.312500X-0.625000X0.312500X-0.625000X0.312500X0.625000X-0.312500X0.625000X0*%
%ADD49R,0.600000X0.250000*%
%ADD50R,0.250000X0.650000*%
%ADD51R,0.250000X0.600000*%
%ADD52R,0.250000X3.400000*%
%ADD53R,0.250000X0.525000*%
%ADD54R,0.330000X2.350000*%
%ADD55RoundRect,0.250000X-1.000000X-0.900000X1.000000X-0.900000X1.000000X0.900000X-1.000000X0.900000X0*%
%ADD56RoundRect,0.100000X-0.637500X-0.100000X0.637500X-0.100000X0.637500X0.100000X-0.637500X0.100000X0*%
%ADD57RoundRect,0.250000X-0.295000X-0.295000X0.295000X-0.295000X0.295000X0.295000X-0.295000X0.295000X0*%
%ADD58RoundRect,0.062500X-0.350000X-0.062500X0.350000X-0.062500X0.350000X0.062500X-0.350000X0.062500X0*%
%ADD59RoundRect,0.062500X-0.062500X-0.350000X0.062500X-0.350000X0.062500X0.350000X-0.062500X0.350000X0*%
%ADD60R,0.800000X0.550000*%
%ADD61RoundRect,0.250000X-0.250000X-0.475000X0.250000X-0.475000X0.250000X0.475000X-0.250000X0.475000X0*%
%ADD62RoundRect,0.250000X-1.450000X0.312500X-1.450000X-0.312500X1.450000X-0.312500X1.450000X0.312500X0*%
%ADD63RoundRect,0.250002X-1.799998X-1.799998X1.799998X-1.799998X1.799998X1.799998X-1.799998X1.799998X0*%
%ADD64RoundRect,0.140000X0.170000X-0.140000X0.170000X0.140000X-0.170000X0.140000X-0.170000X-0.140000X0*%
%ADD65RoundRect,0.162500X0.650000X0.162500X-0.650000X0.162500X-0.650000X-0.162500X0.650000X-0.162500X0*%
%ADD66RoundRect,0.250000X-1.000000X-0.650000X1.000000X-0.650000X1.000000X0.650000X-1.000000X0.650000X0*%
%ADD67RoundRect,0.250000X0.312500X1.450000X-0.312500X1.450000X-0.312500X-1.450000X0.312500X-1.450000X0*%
%ADD68RoundRect,0.250000X0.250000X0.475000X-0.250000X0.475000X-0.250000X-0.475000X0.250000X-0.475000X0*%
%ADD69RoundRect,0.147500X-0.172500X0.147500X-0.172500X-0.147500X0.172500X-0.147500X0.172500X0.147500X0*%
%ADD70RoundRect,0.250000X0.312500X0.625000X-0.312500X0.625000X-0.312500X-0.625000X0.312500X-0.625000X0*%
%ADD71R,0.450000X1.200000*%
%ADD72RoundRect,0.250000X-0.495000X0.495000X-0.495000X-0.495000X0.495000X-0.495000X0.495000X0.495000X0*%
%ADD73RoundRect,0.062500X-0.062500X0.337500X-0.062500X-0.337500X0.062500X-0.337500X0.062500X0.337500X0*%
%ADD74RoundRect,0.062500X-0.337500X0.062500X-0.337500X-0.062500X0.337500X-0.062500X0.337500X0.062500X0*%
%ADD75R,1.200000X1.400000*%
%ADD76R,2.400000X2.800000*%
G04 APERTURE END LIST*
D10*
%TO.C,D13*%
X134400000Y-111950000D03*
X134400000Y-116250000D03*
%TD*%
D11*
%TO.C,R28*%
X176575000Y-70800000D03*
X177265000Y-70800000D03*
%TD*%
D10*
%TO.C,D14*%
X150400000Y-111850000D03*
X150400000Y-116150000D03*
%TD*%
D12*
%TO.C,C52*%
X137120000Y-97800000D03*
X138080000Y-97800000D03*
%TD*%
D13*
%TO.C,Q1*%
X136425000Y-72075000D03*
X136425000Y-71425000D03*
X136425000Y-70775000D03*
X136425000Y-70125000D03*
D14*
X134200000Y-71100000D03*
D15*
X134900000Y-72590000D03*
X134900000Y-69610000D03*
%TD*%
D16*
%TO.C,C14*%
X164265000Y-75800000D03*
X163575000Y-75800000D03*
%TD*%
D11*
%TO.C,R9*%
X163535000Y-74200000D03*
X164225000Y-74200000D03*
%TD*%
D17*
%TO.C,TP25*%
X173200000Y-123150000D03*
X173200000Y-123800000D03*
X173200000Y-124450000D03*
X173350000Y-125200000D03*
X173550000Y-122500000D03*
X173950000Y-125700000D03*
X174200000Y-122000000D03*
D18*
X174950000Y-123900000D03*
D17*
X174950000Y-125850000D03*
X175000000Y-121850000D03*
X175750000Y-122000000D03*
X176100000Y-125650000D03*
X176350000Y-122500000D03*
X176500000Y-125100000D03*
X176700000Y-123150000D03*
X176700000Y-123800000D03*
X176700000Y-124450000D03*
%TD*%
D19*
%TO.C,R53*%
X153400000Y-110510000D03*
X153400000Y-109490000D03*
%TD*%
D20*
%TO.C,C27*%
X161280000Y-89000000D03*
X160320000Y-89000000D03*
%TD*%
D17*
%TO.C,TP18*%
X125050000Y-123200000D03*
X125050000Y-123850000D03*
X125050000Y-124500000D03*
X125200000Y-125250000D03*
X125400000Y-122550000D03*
X125800000Y-125750000D03*
X126050000Y-122050000D03*
D18*
X126800000Y-123950000D03*
D17*
X126800000Y-125900000D03*
X126850000Y-121900000D03*
X127600000Y-122050000D03*
X127950000Y-125700000D03*
X128200000Y-122550000D03*
X128350000Y-125150000D03*
X128550000Y-123200000D03*
X128550000Y-123850000D03*
X128550000Y-124500000D03*
%TD*%
D21*
%TO.C,DA1*%
X190000000Y-107750000D03*
X190000000Y-107250000D03*
X190000000Y-106750000D03*
X190000000Y-106250000D03*
D22*
X189250000Y-105500000D03*
X188750000Y-105500000D03*
X188250000Y-105500000D03*
X187750000Y-105500000D03*
D21*
X187000000Y-106250000D03*
X187000000Y-106750000D03*
X187000000Y-107250000D03*
X187000000Y-107750000D03*
D22*
X187750000Y-108500000D03*
X188250000Y-108500000D03*
X188750000Y-108500000D03*
X189250000Y-108500000D03*
D23*
X188500000Y-107000000D03*
%TD*%
D24*
%TO.C,U7*%
X162662500Y-90250000D03*
X162662500Y-91200000D03*
X162662500Y-92150000D03*
X164937500Y-92150000D03*
X164937500Y-90250000D03*
%TD*%
D25*
%TO.C,R33*%
X140325000Y-76990000D03*
X140325000Y-78010000D03*
%TD*%
D26*
%TO.C,D8*%
X138325000Y-74750000D03*
X134325000Y-74750000D03*
%TD*%
D16*
%TO.C,R35*%
X164225000Y-78900000D03*
X163535000Y-78900000D03*
%TD*%
D27*
%TO.C,R46*%
X128910000Y-113600000D03*
X127890000Y-113600000D03*
%TD*%
D28*
%TO.C,R24*%
X168750000Y-80455000D03*
X168750000Y-81145000D03*
%TD*%
D10*
%TO.C,D1*%
X130500000Y-70750000D03*
X130500000Y-75050000D03*
%TD*%
D29*
%TO.C,D5*%
X192245000Y-85975000D03*
X191275000Y-85975000D03*
%TD*%
D11*
%TO.C,R14*%
X163495000Y-80200000D03*
X164185000Y-80200000D03*
%TD*%
D28*
%TO.C,C15*%
X165000000Y-80575000D03*
X165000000Y-81265000D03*
%TD*%
D30*
%TO.C,SW2*%
X157200000Y-78250000D03*
X160600000Y-78250000D03*
%TD*%
D29*
%TO.C,D7*%
X192245000Y-84075000D03*
X191275000Y-84075000D03*
%TD*%
D31*
%TO.C,J4*%
X127025000Y-71400000D03*
X127025000Y-72200000D03*
D32*
X127025000Y-73350000D03*
X127025000Y-74350000D03*
X127025000Y-74850000D03*
X127025000Y-75850000D03*
D31*
X127025000Y-77000000D03*
X127025000Y-77800000D03*
X127025000Y-77800000D03*
X127025000Y-77000000D03*
D32*
X127025000Y-76350000D03*
X127025000Y-75350000D03*
X127025000Y-73850000D03*
X127025000Y-72850000D03*
D31*
X127025000Y-72200000D03*
X127025000Y-71400000D03*
%TD*%
D33*
%TO.C,C59*%
X182800000Y-108100000D03*
X182800000Y-110000000D03*
%TD*%
D25*
%TO.C,R32*%
X141325000Y-76990000D03*
X141325000Y-78010000D03*
%TD*%
D16*
%TO.C,R5*%
X173065000Y-78800000D03*
X172375000Y-78800000D03*
%TD*%
D34*
%TO.C,C7*%
X183300000Y-87734123D03*
X183300000Y-88694123D03*
%TD*%
D24*
%TO.C,U9*%
X166862500Y-90250000D03*
X166862500Y-91200000D03*
X166862500Y-92150000D03*
X169137500Y-92150000D03*
X169137500Y-90250000D03*
%TD*%
D17*
%TO.C,TP20*%
X138250000Y-123150000D03*
X138250000Y-123800000D03*
X138250000Y-124450000D03*
X138400000Y-125200000D03*
X138600000Y-122500000D03*
X139000000Y-125700000D03*
X139250000Y-122000000D03*
D18*
X140000000Y-123900000D03*
D17*
X140000000Y-125850000D03*
X140050000Y-121850000D03*
X140800000Y-122000000D03*
X141150000Y-125650000D03*
X141400000Y-122500000D03*
X141550000Y-125100000D03*
X141750000Y-123150000D03*
X141750000Y-123800000D03*
X141750000Y-124450000D03*
%TD*%
D35*
%TO.C,R42*%
X130690000Y-109400000D03*
X131710000Y-109400000D03*
%TD*%
D36*
%TO.C,C75*%
X178800000Y-111550000D03*
X178800000Y-109650000D03*
%TD*%
D37*
%TO.C,D2*%
X137600000Y-89650000D03*
X137600000Y-85350000D03*
%TD*%
D36*
%TO.C,C65*%
X182800000Y-106600000D03*
X182800000Y-104700000D03*
%TD*%
%TO.C,C78*%
X131000000Y-113850000D03*
X131000000Y-111950000D03*
%TD*%
D38*
%TO.C,L5*%
X147200000Y-103600000D03*
X137700000Y-103600000D03*
%TD*%
D39*
%TO.C,F1*%
X141217446Y-85353152D03*
X144017446Y-85353152D03*
%TD*%
D16*
%TO.C,L2*%
X174815000Y-75100000D03*
X174125000Y-75100000D03*
%TD*%
D40*
%TO.C,R50*%
X125900000Y-114037500D03*
X125900000Y-116962500D03*
%TD*%
D36*
%TO.C,C79*%
X147000000Y-113850000D03*
X147000000Y-111950000D03*
%TD*%
D20*
%TO.C,C44*%
X147680000Y-97800000D03*
X146720000Y-97800000D03*
%TD*%
D19*
%TO.C,R55*%
X168200000Y-110510000D03*
X168200000Y-109490000D03*
%TD*%
D29*
%TO.C,D4*%
X192245000Y-86925000D03*
X191275000Y-86925000D03*
%TD*%
D24*
%TO.C,U6*%
X158462500Y-90250000D03*
X158462500Y-91200000D03*
X158462500Y-92150000D03*
X160737500Y-92150000D03*
X160737500Y-90250000D03*
%TD*%
D19*
%TO.C,R39*%
X141800000Y-75310000D03*
X141800000Y-74290000D03*
%TD*%
D17*
%TO.C,TP17*%
X130900000Y-123150000D03*
X130900000Y-123800000D03*
X130900000Y-124450000D03*
X131050000Y-125200000D03*
X131250000Y-122500000D03*
X131650000Y-125700000D03*
X131900000Y-122000000D03*
D18*
X132650000Y-123900000D03*
D17*
X132650000Y-125850000D03*
X132700000Y-121850000D03*
X133450000Y-122000000D03*
X133800000Y-125650000D03*
X134050000Y-122500000D03*
X134200000Y-125100000D03*
X134400000Y-123150000D03*
X134400000Y-123800000D03*
X134400000Y-124450000D03*
%TD*%
D16*
%TO.C,R4*%
X173065000Y-79600000D03*
X172375000Y-79600000D03*
%TD*%
D27*
%TO.C,R48*%
X127310000Y-97800000D03*
X126290000Y-97800000D03*
%TD*%
D36*
%TO.C,C49*%
X191600000Y-104950000D03*
X191600000Y-103050000D03*
%TD*%
D17*
%TO.C,TP23*%
X158400000Y-123150000D03*
X158400000Y-123800000D03*
X158400000Y-124450000D03*
X158550000Y-125200000D03*
X158750000Y-122500000D03*
X159150000Y-125700000D03*
X159400000Y-122000000D03*
D18*
X160150000Y-123900000D03*
D17*
X160150000Y-125850000D03*
X160200000Y-121850000D03*
X160950000Y-122000000D03*
X161300000Y-125650000D03*
X161550000Y-122500000D03*
X161700000Y-125100000D03*
X161900000Y-123150000D03*
X161900000Y-123800000D03*
X161900000Y-124450000D03*
%TD*%
D36*
%TO.C,C68*%
X139800000Y-115750000D03*
X139800000Y-113850000D03*
%TD*%
D33*
%TO.C,C72*%
X184800000Y-108100000D03*
X184800000Y-110000000D03*
%TD*%
D28*
%TO.C,R26*%
X170150000Y-80475000D03*
X170150000Y-81165000D03*
%TD*%
D41*
%TO.C,R31*%
X161700000Y-77645000D03*
X161700000Y-76955000D03*
%TD*%
D13*
%TO.C,Q2*%
X137487090Y-70124304D03*
X137487090Y-70774304D03*
X137487090Y-71424304D03*
X137487090Y-72074304D03*
D14*
X139712090Y-71099304D03*
D15*
X139012090Y-69609304D03*
X139012090Y-72589304D03*
%TD*%
D11*
%TO.C,C18*%
X171200000Y-70900000D03*
X171890000Y-70900000D03*
%TD*%
D36*
%TO.C,C53*%
X123600000Y-115750000D03*
X123600000Y-113850000D03*
%TD*%
%TO.C,C71*%
X180800000Y-111550000D03*
X180800000Y-109650000D03*
%TD*%
D28*
%TO.C,R7*%
X167000000Y-72535000D03*
X167000000Y-73225000D03*
%TD*%
D20*
%TO.C,C31*%
X169600000Y-89000000D03*
X168640000Y-89000000D03*
%TD*%
D39*
%TO.C,F2*%
X128300000Y-116200000D03*
X131100000Y-116200000D03*
%TD*%
D11*
%TO.C,R2*%
X172375000Y-78000000D03*
X173065000Y-78000000D03*
%TD*%
D28*
%TO.C,C17*%
X165800000Y-80535000D03*
X165800000Y-81225000D03*
%TD*%
%TO.C,R22*%
X167350000Y-80455000D03*
X167350000Y-81145000D03*
%TD*%
D29*
%TO.C,D6*%
X192245000Y-85025000D03*
X191275000Y-85025000D03*
%TD*%
D42*
%TO.C,U12*%
X160512000Y-113505000D03*
X160512000Y-112235000D03*
X160512000Y-110965000D03*
X160512000Y-109695000D03*
X155088000Y-109695000D03*
X155088000Y-110965000D03*
X155088000Y-112235000D03*
X155088000Y-113505000D03*
D43*
X157800000Y-111600000D03*
%TD*%
D36*
%TO.C,C42*%
X137800000Y-112150000D03*
X137800000Y-110250000D03*
%TD*%
D44*
%TO.C,D3*%
X130350000Y-77350000D03*
X129700000Y-77350000D03*
X129050000Y-77350000D03*
X129050000Y-79250000D03*
X130350000Y-79250000D03*
%TD*%
D45*
%TO.C,U1*%
X179200000Y-85975000D03*
X181500000Y-85975000D03*
D46*
X181500000Y-79675000D03*
D45*
X183800000Y-85975000D03*
%TD*%
D17*
%TO.C,TP16*%
X148000000Y-93350000D03*
X148650000Y-93350000D03*
X149300000Y-93350000D03*
X150050000Y-93200000D03*
X147350000Y-93000000D03*
X150550000Y-92600000D03*
X146850000Y-92350000D03*
D47*
X148750000Y-91600000D03*
D17*
X150700000Y-91600000D03*
X146700000Y-91550000D03*
X146850000Y-90800000D03*
X150500000Y-90450000D03*
X147350000Y-90200000D03*
X149950000Y-90050000D03*
X148000000Y-89850000D03*
X148650000Y-89850000D03*
X149300000Y-89850000D03*
%TD*%
D33*
%TO.C,C77*%
X141200000Y-87850000D03*
X141200000Y-89750000D03*
%TD*%
D48*
%TO.C,R58*%
X178337500Y-113600000D03*
X181262500Y-113600000D03*
%TD*%
D27*
%TO.C,R36*%
X140220000Y-79200000D03*
X139200000Y-79200000D03*
%TD*%
D25*
%TO.C,R38*%
X141200000Y-79200000D03*
X141200000Y-80220000D03*
%TD*%
D28*
%TO.C,R25*%
X169450000Y-80455000D03*
X169450000Y-81145000D03*
%TD*%
D49*
%TO.C,U10*%
X129325000Y-111615000D03*
X129325000Y-111115000D03*
X129325000Y-110615000D03*
X129325000Y-110115000D03*
D50*
X128965000Y-109490000D03*
D51*
X128465000Y-109465000D03*
D52*
X127965000Y-110865000D03*
X127465000Y-110865000D03*
D53*
X126925000Y-109427000D03*
D52*
X126385000Y-110865000D03*
X125885000Y-110865000D03*
D51*
X125385000Y-109465000D03*
D50*
X124885000Y-109490000D03*
D49*
X124525000Y-110115000D03*
X124525000Y-110615000D03*
X124525000Y-111115000D03*
X124525000Y-111615000D03*
D50*
X124885000Y-112240000D03*
D51*
X125385000Y-112265000D03*
X128465000Y-112265000D03*
D50*
X128965000Y-112240000D03*
D54*
X126925000Y-110865000D03*
D53*
X126925000Y-112303000D03*
%TD*%
D55*
%TO.C,D16*%
X154350000Y-116600000D03*
X158650000Y-116600000D03*
%TD*%
D11*
%TO.C,R29*%
X176575000Y-71600000D03*
X177265000Y-71600000D03*
%TD*%
D56*
%TO.C,U4*%
X178737500Y-70225000D03*
X178737500Y-70875000D03*
X178737500Y-71525000D03*
X178737500Y-72175000D03*
X178737500Y-72825000D03*
X178737500Y-73475000D03*
X178737500Y-74125000D03*
X178737500Y-74775000D03*
X178737500Y-75425000D03*
X178737500Y-76075000D03*
X178737500Y-76725000D03*
X178737500Y-77375000D03*
X184462500Y-77375000D03*
X184462500Y-76725000D03*
X184462500Y-76075000D03*
X184462500Y-75425000D03*
X184462500Y-74775000D03*
X184462500Y-74125000D03*
X184462500Y-73475000D03*
X184462500Y-72825000D03*
X184462500Y-72175000D03*
X184462500Y-71525000D03*
X184462500Y-70875000D03*
X184462500Y-70225000D03*
%TD*%
D25*
%TO.C,R45*%
X177000000Y-109290000D03*
X177000000Y-110310000D03*
%TD*%
D49*
%TO.C,U11*%
X144900000Y-111700000D03*
X144900000Y-111200000D03*
X144900000Y-110700000D03*
X144900000Y-110200000D03*
D50*
X144540000Y-109575000D03*
D51*
X144040000Y-109550000D03*
D52*
X143540000Y-110950000D03*
X143040000Y-110950000D03*
D53*
X142500000Y-109512000D03*
D52*
X141960000Y-110950000D03*
X141460000Y-110950000D03*
D51*
X140960000Y-109550000D03*
D50*
X140460000Y-109575000D03*
D49*
X140100000Y-110200000D03*
X140100000Y-110700000D03*
X140100000Y-111200000D03*
X140100000Y-111700000D03*
D50*
X140460000Y-112325000D03*
D51*
X140960000Y-112350000D03*
X144040000Y-112350000D03*
D50*
X144540000Y-112325000D03*
D54*
X142500000Y-110950000D03*
D53*
X142500000Y-112388000D03*
%TD*%
D34*
%TO.C,C12*%
X181900000Y-87734123D03*
X181900000Y-88694123D03*
%TD*%
D57*
%TO.C,U3*%
X134750000Y-78512500D03*
X134750000Y-79862500D03*
X136100000Y-78512500D03*
X136100000Y-79862500D03*
D58*
X133462500Y-77937500D03*
X133462500Y-78437500D03*
X133462500Y-78937500D03*
X133462500Y-79437500D03*
X133462500Y-79937500D03*
X133462500Y-80437500D03*
D59*
X134175000Y-81150000D03*
X134675000Y-81150000D03*
X135175000Y-81150000D03*
X135675000Y-81150000D03*
X136175000Y-81150000D03*
X136675000Y-81150000D03*
D58*
X137387500Y-80437500D03*
X137387500Y-79937500D03*
X137387500Y-79437500D03*
X137387500Y-78937500D03*
X137387500Y-78437500D03*
X137387500Y-77937500D03*
D59*
X136675000Y-77225000D03*
X136175000Y-77225000D03*
X135675000Y-77225000D03*
X135175000Y-77225000D03*
X134675000Y-77225000D03*
X134175000Y-77225000D03*
%TD*%
D25*
%TO.C,R44*%
X162400000Y-109290000D03*
X162400000Y-110310000D03*
%TD*%
D60*
%TO.C,D9*%
X140600000Y-74162500D03*
X140600000Y-75412500D03*
%TD*%
D61*
%TO.C,C3*%
X190050000Y-99200000D03*
X191950000Y-99200000D03*
%TD*%
D11*
%TO.C,R27*%
X178575000Y-69200000D03*
X179265000Y-69200000D03*
%TD*%
D36*
%TO.C,C66*%
X121600000Y-115750000D03*
X121600000Y-113850000D03*
%TD*%
D27*
%TO.C,R19*%
X190387500Y-85025000D03*
X189367500Y-85025000D03*
%TD*%
D36*
%TO.C,C74*%
X164400000Y-111550000D03*
X164400000Y-109650000D03*
%TD*%
D27*
%TO.C,R20*%
X190387500Y-84075000D03*
X189367500Y-84075000D03*
%TD*%
D34*
%TO.C,C10*%
X180900000Y-87734123D03*
X180900000Y-88694123D03*
%TD*%
D35*
%TO.C,R37*%
X139200000Y-80200000D03*
X140220000Y-80200000D03*
%TD*%
D62*
%TO.C,F4*%
X188900000Y-113762500D03*
X188900000Y-118037500D03*
%TD*%
D41*
%TO.C,L3*%
X171200000Y-72345000D03*
X171200000Y-71655000D03*
%TD*%
D33*
%TO.C,C73*%
X143200000Y-87850000D03*
X143200000Y-89750000D03*
%TD*%
D41*
%TO.C,R34*%
X166200000Y-73225000D03*
X166200000Y-72535000D03*
%TD*%
D63*
%TO.C,L7*%
X168550000Y-103600000D03*
X178050000Y-103600000D03*
%TD*%
D33*
%TO.C,C58*%
X139800000Y-117250000D03*
X139800000Y-119150000D03*
%TD*%
D19*
%TO.C,R52*%
X153400000Y-112510000D03*
X153400000Y-111490000D03*
%TD*%
D11*
%TO.C,R8*%
X163535000Y-73400000D03*
X164225000Y-73400000D03*
%TD*%
D34*
%TO.C,C56*%
X176800000Y-113320000D03*
X176800000Y-114280000D03*
%TD*%
D64*
%TO.C,C36*%
X186200000Y-101360000D03*
X186200000Y-100400000D03*
%TD*%
D65*
%TO.C,U5*%
X171862500Y-86555000D03*
X171862500Y-85285000D03*
X171862500Y-84015000D03*
X171862500Y-82745000D03*
X164687500Y-82745000D03*
X164687500Y-84015000D03*
X164687500Y-85285000D03*
X164687500Y-86555000D03*
%TD*%
D42*
%TO.C,U13*%
X175200000Y-113505000D03*
X175200000Y-112235000D03*
X175200000Y-110965000D03*
X175200000Y-109695000D03*
X169776000Y-109695000D03*
X169776000Y-110965000D03*
X169776000Y-112235000D03*
X169776000Y-113505000D03*
D43*
X172488000Y-111600000D03*
%TD*%
D34*
%TO.C,C11*%
X179900000Y-87734123D03*
X179900000Y-88694123D03*
%TD*%
D66*
%TO.C,D11*%
X168000000Y-96600000D03*
X172000000Y-96600000D03*
%TD*%
D35*
%TO.C,R41*%
X146490000Y-110400000D03*
X147510000Y-110400000D03*
%TD*%
D20*
%TO.C,C67*%
X125400000Y-97800000D03*
X124440000Y-97800000D03*
%TD*%
D66*
%TO.C,D10*%
X152700000Y-96600000D03*
X156700000Y-96600000D03*
%TD*%
D17*
%TO.C,TP22*%
X181250000Y-123200000D03*
X181250000Y-123850000D03*
X181250000Y-124500000D03*
X181400000Y-125250000D03*
X181600000Y-122550000D03*
X182000000Y-125750000D03*
X182250000Y-122050000D03*
D18*
X183000000Y-123950000D03*
D17*
X183000000Y-125900000D03*
X183050000Y-121900000D03*
X183800000Y-122050000D03*
X184150000Y-125700000D03*
X184400000Y-122550000D03*
X184550000Y-125150000D03*
X184750000Y-123200000D03*
X184750000Y-123850000D03*
X184750000Y-124500000D03*
%TD*%
D36*
%TO.C,C76*%
X184800000Y-106600000D03*
X184800000Y-104700000D03*
%TD*%
D34*
%TO.C,C29*%
X142200000Y-79240000D03*
X142200000Y-80200000D03*
%TD*%
D39*
%TO.C,F3*%
X144400000Y-116200000D03*
X147200000Y-116200000D03*
%TD*%
D20*
%TO.C,C43*%
X132080000Y-97800000D03*
X131120000Y-97800000D03*
%TD*%
D17*
%TO.C,TP15*%
X148050000Y-87600000D03*
X148700000Y-87600000D03*
X149350000Y-87600000D03*
X150100000Y-87450000D03*
X147400000Y-87250000D03*
X150600000Y-86850000D03*
X146900000Y-86600000D03*
D47*
X148800000Y-85850000D03*
D17*
X150750000Y-85850000D03*
X146750000Y-85800000D03*
X146900000Y-85050000D03*
X150550000Y-84700000D03*
X147400000Y-84450000D03*
X150000000Y-84300000D03*
X148050000Y-84100000D03*
X148700000Y-84100000D03*
X149350000Y-84100000D03*
%TD*%
D11*
%TO.C,R13*%
X163575000Y-78200000D03*
X164265000Y-78200000D03*
%TD*%
D34*
%TO.C,C55*%
X162000000Y-113200000D03*
X162000000Y-114160000D03*
%TD*%
D48*
%TO.C,R57*%
X163937500Y-113466430D03*
X166862500Y-113466430D03*
%TD*%
D67*
%TO.C,F6*%
X180937500Y-116800000D03*
X176662500Y-116800000D03*
%TD*%
D20*
%TO.C,C30*%
X173880000Y-89000000D03*
X172920000Y-89000000D03*
%TD*%
D33*
%TO.C,C62*%
X137800000Y-117250000D03*
X137800000Y-119150000D03*
%TD*%
D17*
%TO.C,TP24*%
X152450000Y-123150000D03*
X152450000Y-123800000D03*
X152450000Y-124450000D03*
X152600000Y-125200000D03*
X152800000Y-122500000D03*
X153200000Y-125700000D03*
X153450000Y-122000000D03*
D18*
X154200000Y-123900000D03*
D17*
X154200000Y-125850000D03*
X154250000Y-121850000D03*
X155000000Y-122000000D03*
X155350000Y-125650000D03*
X155600000Y-122500000D03*
X155750000Y-125100000D03*
X155950000Y-123150000D03*
X155950000Y-123800000D03*
X155950000Y-124450000D03*
%TD*%
%TO.C,TP21*%
X187200000Y-123150000D03*
X187200000Y-123800000D03*
X187200000Y-124450000D03*
X187350000Y-125200000D03*
X187550000Y-122500000D03*
X187950000Y-125700000D03*
X188200000Y-122000000D03*
D18*
X188950000Y-123900000D03*
D17*
X188950000Y-125850000D03*
X189000000Y-121850000D03*
X189750000Y-122000000D03*
X190100000Y-125650000D03*
X190350000Y-122500000D03*
X190500000Y-125100000D03*
X190700000Y-123150000D03*
X190700000Y-123800000D03*
X190700000Y-124450000D03*
%TD*%
D36*
%TO.C,C54*%
X137800000Y-115750000D03*
X137800000Y-113850000D03*
%TD*%
D11*
%TO.C,C9*%
X171655000Y-74800000D03*
X172345000Y-74800000D03*
%TD*%
D28*
%TO.C,R30*%
X161700000Y-75530000D03*
X161700000Y-76220000D03*
%TD*%
D27*
%TO.C,R49*%
X142510000Y-97800000D03*
X141490000Y-97800000D03*
%TD*%
D11*
%TO.C,C16*%
X171205000Y-73100000D03*
X171895000Y-73100000D03*
%TD*%
D27*
%TO.C,R47*%
X144910000Y-113700000D03*
X143890000Y-113700000D03*
%TD*%
D12*
%TO.C,C51*%
X121720000Y-97800000D03*
X122680000Y-97800000D03*
%TD*%
D28*
%TO.C,R23*%
X168050000Y-80455000D03*
X168050000Y-81145000D03*
%TD*%
D20*
%TO.C,C69*%
X140480000Y-97800000D03*
X139520000Y-97800000D03*
%TD*%
D35*
%TO.C,R16*%
X139180000Y-82400000D03*
X140200000Y-82400000D03*
%TD*%
D30*
%TO.C,SW1*%
X160600000Y-74950000D03*
X157200000Y-74950000D03*
%TD*%
D55*
%TO.C,D17*%
X169750000Y-116600000D03*
X174050000Y-116600000D03*
%TD*%
D64*
%TO.C,C60*%
X186200000Y-103360000D03*
X186200000Y-102400000D03*
%TD*%
D68*
%TO.C,C41*%
X123053911Y-112054919D03*
X121153911Y-112054919D03*
%TD*%
D24*
%TO.C,U8*%
X171062500Y-90250000D03*
X171062500Y-91200000D03*
X171062500Y-92150000D03*
X173337500Y-92150000D03*
X173337500Y-90250000D03*
%TD*%
D36*
%TO.C,C70*%
X166400000Y-111550000D03*
X166400000Y-109650000D03*
%TD*%
D33*
%TO.C,C50*%
X191600000Y-106450000D03*
X191600000Y-108350000D03*
%TD*%
D28*
%TO.C,R21*%
X166650000Y-80455000D03*
X166650000Y-81145000D03*
%TD*%
D40*
%TO.C,R51*%
X142200000Y-114037500D03*
X142200000Y-116962500D03*
%TD*%
D12*
%TO.C,C64*%
X143520000Y-97800000D03*
X144480000Y-97800000D03*
%TD*%
D69*
%TO.C,L1*%
X169600000Y-70790000D03*
X169600000Y-71760000D03*
%TD*%
D67*
%TO.C,F5*%
X165537500Y-116600000D03*
X161262500Y-116600000D03*
%TD*%
D27*
%TO.C,R17*%
X190397500Y-85975000D03*
X189377500Y-85975000D03*
%TD*%
D17*
%TO.C,TP26*%
X167250000Y-123150000D03*
X167250000Y-123800000D03*
X167250000Y-124450000D03*
X167400000Y-125200000D03*
X167600000Y-122500000D03*
X168000000Y-125700000D03*
X168250000Y-122000000D03*
D18*
X169000000Y-123900000D03*
D17*
X169000000Y-125850000D03*
X169050000Y-121850000D03*
X169800000Y-122000000D03*
X170150000Y-125650000D03*
X170400000Y-122500000D03*
X170550000Y-125100000D03*
X170750000Y-123150000D03*
X170750000Y-123800000D03*
X170750000Y-124450000D03*
%TD*%
D20*
%TO.C,C13*%
X184000000Y-69000000D03*
X183040000Y-69000000D03*
%TD*%
D11*
%TO.C,R11*%
X163575000Y-77400000D03*
X164265000Y-77400000D03*
%TD*%
D28*
%TO.C,R6*%
X167800000Y-72535000D03*
X167800000Y-73225000D03*
%TD*%
D17*
%TO.C,TP19*%
X144150000Y-123150000D03*
X144150000Y-123800000D03*
X144150000Y-124450000D03*
X144300000Y-125200000D03*
X144500000Y-122500000D03*
X144900000Y-125700000D03*
X145150000Y-122000000D03*
D18*
X145900000Y-123900000D03*
D17*
X145900000Y-125850000D03*
X145950000Y-121850000D03*
X146700000Y-122000000D03*
X147050000Y-125650000D03*
X147300000Y-122500000D03*
X147450000Y-125100000D03*
X147650000Y-123150000D03*
X147650000Y-123800000D03*
X147650000Y-124450000D03*
%TD*%
D63*
%TO.C,L6*%
X153300000Y-103600000D03*
X162800000Y-103600000D03*
%TD*%
D35*
%TO.C,R40*%
X130690000Y-110400000D03*
X131710000Y-110400000D03*
%TD*%
D64*
%TO.C,C26*%
X163000000Y-86480000D03*
X163000000Y-85520000D03*
%TD*%
D70*
%TO.C,AE1*%
X174262500Y-69200000D03*
X171337500Y-69200000D03*
%TD*%
D16*
%TO.C,C1*%
X175745000Y-80200000D03*
X175055000Y-80200000D03*
%TD*%
D71*
%TO.C,DD1*%
X187525000Y-104000000D03*
X188175000Y-104000000D03*
X188825000Y-104000000D03*
X189475000Y-104000000D03*
X189475000Y-101500000D03*
X188825000Y-101500000D03*
X188175000Y-101500000D03*
X187525000Y-101500000D03*
%TD*%
D34*
%TO.C,C25*%
X139350000Y-77015000D03*
X139350000Y-77975000D03*
%TD*%
D11*
%TO.C,R10*%
X163535000Y-76600000D03*
X164225000Y-76600000D03*
%TD*%
D34*
%TO.C,C2*%
X168600000Y-70795000D03*
X168600000Y-71755000D03*
%TD*%
D27*
%TO.C,R15*%
X190397500Y-86920000D03*
X189377500Y-86920000D03*
%TD*%
D12*
%TO.C,C63*%
X128240000Y-97800000D03*
X129200000Y-97800000D03*
%TD*%
D72*
%TO.C,U2*%
X168850000Y-76025000D03*
X167000000Y-76025000D03*
X168850000Y-77875000D03*
X167000000Y-77875000D03*
D73*
X169675000Y-74500000D03*
X169175000Y-74500000D03*
X168675000Y-74500000D03*
X168175000Y-74500000D03*
X167675000Y-74500000D03*
X167175000Y-74500000D03*
X166675000Y-74500000D03*
X166175000Y-74500000D03*
D74*
X165475000Y-75200000D03*
X165475000Y-75700000D03*
X165475000Y-76200000D03*
X165475000Y-76700000D03*
X165475000Y-77200000D03*
X165475000Y-77700000D03*
X165475000Y-78200000D03*
X165475000Y-78700000D03*
D73*
X166175000Y-79400000D03*
X166675000Y-79400000D03*
X167175000Y-79400000D03*
X167675000Y-79400000D03*
X168175000Y-79400000D03*
X168675000Y-79400000D03*
X169175000Y-79400000D03*
X169675000Y-79400000D03*
D74*
X170375000Y-78700000D03*
X170375000Y-78200000D03*
X170375000Y-77700000D03*
X170375000Y-77200000D03*
X170375000Y-76700000D03*
X170375000Y-76200000D03*
X170375000Y-75700000D03*
X170375000Y-75200000D03*
%TD*%
D75*
%TO.C,Y1*%
X176250000Y-78700000D03*
X176250000Y-76500000D03*
X174550000Y-76500000D03*
X174550000Y-78700000D03*
%TD*%
D35*
%TO.C,R43*%
X146490000Y-109400000D03*
X147510000Y-109400000D03*
%TD*%
D38*
%TO.C,L4*%
X131650000Y-103600000D03*
X122150000Y-103600000D03*
%TD*%
D37*
%TO.C,D15*%
X184400000Y-117350000D03*
X184400000Y-113050000D03*
%TD*%
D76*
%TO.C,J1*%
X124500000Y-93900000D03*
X130600000Y-93900000D03*
X124500000Y-82500000D03*
X130600000Y-82500000D03*
%TD*%
D41*
%TO.C,R3*%
X185000000Y-95145000D03*
X185000000Y-94455000D03*
%TD*%
D33*
%TO.C,C57*%
X121600000Y-117250000D03*
X121600000Y-119150000D03*
%TD*%
%TO.C,C61*%
X123600000Y-117250000D03*
X123600000Y-119150000D03*
%TD*%
D41*
%TO.C,C6*%
X168600000Y-73265000D03*
X168600000Y-72575000D03*
%TD*%
D28*
%TO.C,C4*%
X167600000Y-70935000D03*
X167600000Y-71625000D03*
%TD*%
D19*
%TO.C,R54*%
X168200000Y-112510000D03*
X168200000Y-111490000D03*
%TD*%
D11*
%TO.C,C5*%
X175805000Y-75100000D03*
X176495000Y-75100000D03*
%TD*%
D20*
%TO.C,C28*%
X165480000Y-89000000D03*
X164520000Y-89000000D03*
%TD*%
D11*
%TO.C,R12*%
X163535000Y-75000000D03*
X164225000Y-75000000D03*
%TD*%
%TO.C,R1*%
X172375000Y-80400000D03*
X173065000Y-80400000D03*
%TD*%
D35*
%TO.C,R18*%
X139200000Y-81400000D03*
X140220000Y-81400000D03*
%TD*%
D11*
%TO.C,C8*%
X171655000Y-75600000D03*
X172345000Y-75600000D03*
%TD*%
D48*
%TO.C,R56*%
X187037500Y-110300000D03*
X189962500Y-110300000D03*
%TD*%
M02*
