M48
; DRILL file {KiCad 9.0.0} date 2025-08-24T13:48:56+0300
; FORMAT={-:-/ absolute / inch / decimal}
; #@! TF.CreationDate,2025-08-24T13:48:56+03:00
; #@! TF.GenerationSoftware,Kicad,Pcbnew,9.0.0
; #@! TF.FileFunction,Plated,1,4,PTH
FMAT,2
INCH
; #@! TA.AperFunction,Plated,PTH,ViaDrill
T1C0.0098
; #@! TA.AperFunction,Plated,PTH,ComponentDrill
T2C0.0157
; #@! TA.AperFunction,Plated,PTH,ComponentDrill
T3C0.0236
; #@! TA.AperFunction,Plated,PTH,ComponentDrill
T4C0.0256
; #@! TA.AperFunction,Plated,PTH,ComponentDrill
T5C0.0394
; #@! TA.AperFunction,Plated,PTH,ComponentDrill
T6C0.0787
; #@! TA.AperFunction,Plated,PTH,ComponentDrill
T7C0.0984
%
G90
G05
T1
X0.0827Y0.9035
X0.0827Y0.8248
X0.0848Y1.4703
X0.0866Y1.5689
X0.0906Y2.628
X0.0945Y1.4941
X0.0984Y1.8957
X0.1063Y0.9114
X0.1063Y0.4744
X0.1063Y0.3406
X0.1102Y2.5531
X0.1102Y2.0886
X0.1102Y1.6398
X0.122Y2.4075
X0.122Y1.9941
X0.126Y1.3327
X0.1299Y0.3839
X0.1378Y1.8091
X0.1417Y1.7579
X0.1496Y1.6791
X0.1535Y2.3524
X0.1535Y0.9094
X0.1575Y1.8878
X0.1575Y1.8248
X0.1614Y2.6319
X0.1614Y2.128
X0.1654Y2.2382
X0.1654Y1.4232
X0.1693Y1.3602
X0.1693Y1.3091
X0.1693Y0.2539
X0.1732Y2.7067
X0.1736Y0.1722
X0.1752Y2.6831
X0.1756Y0.1486
X0.1772Y2.5571
X0.1811Y2.7303
X0.1811Y0.5256
X0.1815Y0.1958
X0.185Y2.6614
X0.1854Y0.1269
X0.189Y1.7382
X0.1926Y0.9237
X0.1949Y2.75
X0.1953Y0.2155
X0.2008Y2.6437
X0.2008Y1.687
X0.2008Y0.9783
X0.2012Y0.1092
X0.2047Y2.4508
X0.2047Y1.4902
X0.2073Y0.8509
X0.2087Y2.3957
X0.2087Y1.9547
X0.2087Y1.935
X0.2087Y1.9154
X0.2087Y1.3327
X0.2126Y2.2815
X0.2165Y2.7618
X0.2169Y0.2273
X0.2205Y2.5059
X0.2205Y2.1949
X0.2244Y2.6339
X0.2248Y0.0994
X0.2283Y1.9547
X0.2283Y1.935
X0.2283Y1.9154
X0.2323Y2.313
X0.2362Y2.3563
X0.2402Y2.7657
X0.2406Y0.2313
X0.2441Y0.9941
X0.248Y1.9547
X0.248Y1.935
X0.248Y1.9154
X0.25Y2.6319
X0.2504Y0.0974
X0.2638Y1.7224
X0.2638Y1.2579
X0.2657Y2.7598
X0.2661Y0.2254
X0.2677Y2.5531
X0.2717Y2.2736
X0.2717Y1.4783
X0.2736Y2.6417
X0.274Y0.1072
X0.2756Y2.3878
X0.2795Y2.5925
X0.2795Y1.6555
X0.2874Y2.7461
X0.2874Y1.935
X0.2874Y1.9154
X0.2874Y1.8957
X0.2878Y0.2116
X0.2913Y2.6575
X0.2917Y0.123
X0.3012Y2.7264
X0.3016Y0.1919
X0.3031Y1.5217
X0.3051Y2.6791
X0.3055Y0.1447
X0.3071Y2.7028
X0.3071Y1.935
X0.3071Y1.9154
X0.3071Y1.8957
X0.3071Y1.5846
X0.3075Y0.1683
X0.3081Y0.9133
X0.3081Y0.8922
X0.3081Y0.8725
X0.3081Y0.8528
X0.3084Y0.9362
X0.3085Y0.9573
X0.3085Y0.978
X0.311Y2.0571
X0.311Y2.0374
X0.311Y2.0177
X0.315Y1.7224
X0.3228Y1.6122
X0.3228Y0.7421
X0.3268Y1.935
X0.3268Y1.9154
X0.3268Y1.8957
X0.3307Y2.0571
X0.3307Y2.0374
X0.3307Y2.0177
X0.3386Y2.6358
X0.3425Y2.1437
X0.3425Y1.4232
X0.3425Y1.2933
X0.3465Y2.1909
X0.3465Y1.5335
X0.3504Y2.0571
X0.3504Y2.0374
X0.3504Y2.0177
X0.3504Y1.6083
X0.3504Y0.9705
X0.3504Y0.9469
X0.3504Y0.8681
X0.3543Y2.7067
X0.3583Y2.1122
X0.3583Y0.9311
X0.3583Y0.9114
X0.3583Y0.8878
X0.3622Y2.565
X0.3622Y2.502
X0.3622Y1.3484
X0.3661Y1.6516
X0.374Y0.939
X0.374Y0.9193
X0.374Y0.8996
X0.378Y2.6319
X0.378Y1.935
X0.378Y1.9154
X0.378Y1.8957
X0.3819Y2.2067
X0.3819Y1.7106
X0.3858Y2.4823
X0.3937Y2.7343
X0.3937Y2.5413
X0.3976Y1.935
X0.3976Y1.9154
X0.3976Y1.8957
X0.4016Y0.1713
X0.4028Y0.8514
X0.4055Y2.6673
X0.4055Y0.6122
X0.4134Y0.872
X0.4173Y2.2579
X0.4173Y2.1122
X0.4173Y1.935
X0.4173Y1.9154
X0.4173Y1.8957
X0.4213Y0.8366
X0.4277Y0.9441
X0.4294Y0.9217
X0.437Y1.0453
X0.4409Y2.7421
X0.4409Y1.4232
X0.4449Y2.561
X0.4449Y2.1122
X0.4724Y2.2303
X0.4921Y2.187
X0.4961Y2.561
X0.5Y2.1122
X0.5118Y1.935
X0.5118Y1.9154
X0.5118Y1.8957
X0.5197Y1.0177
X0.5276Y2.5886
X0.5276Y0.1752
X0.5315Y2.6594
X0.5315Y2.0925
X0.5315Y1.935
X0.5315Y1.9154
X0.5315Y1.8957
X0.5354Y2.1161
X0.5354Y0.872
X0.5394Y2.1713
X0.5472Y2.7185
X0.5472Y0.9429
X0.5512Y1.935
X0.5512Y1.9154
X0.5512Y1.8957
X0.5512Y0.7894
X0.5591Y2.0886
X0.5591Y1.3799
X0.5669Y2.6201
X0.5748Y1.628
X0.5748Y0.0925
X0.5866Y2.2657
X0.5906Y2.0413
X0.5984Y2.6437
X0.5984Y2.5138
X0.5984Y2.4941
X0.5984Y2.4744
X0.5984Y2.4547
X0.5984Y2.435
X0.5984Y2.4154
X0.5984Y2.3957
X0.5984Y2.376
X0.5984Y2.3563
X0.5984Y2.3366
X0.5984Y2.3169
X0.5984Y2.2028
X0.5984Y2.1791
X0.5984Y2.1594
X0.5984Y2.1358
X0.5984Y2.1161
X0.6142Y2.2657
X0.6142Y2.0413
X0.6181Y2.5138
X0.6181Y2.4941
X0.6181Y2.4744
X0.6181Y2.4547
X0.6181Y2.435
X0.6181Y2.4154
X0.6181Y2.3957
X0.6181Y2.376
X0.6181Y2.3563
X0.6181Y2.3366
X0.6181Y2.3169
X0.6181Y2.1161
X0.6181Y1.935
X0.6181Y1.9154
X0.6181Y1.8957
X0.6181Y1.2697
X0.6181Y1.0295
X0.622Y2.1634
X0.622Y1.1122
X0.626Y2.1909
X0.626Y0.7894
X0.6299Y1.6358
X0.6378Y2.7224
X0.6378Y2.1752
X0.6378Y2.1476
X0.6378Y1.935
X0.6378Y1.9154
X0.6378Y1.8957
X0.6417Y2.6083
X0.6417Y2.128
X0.6496Y2.0335
X0.6535Y2.6634
X0.6535Y2.1122
X0.6575Y2.2657
X0.6575Y2.1594
X0.6575Y1.935
X0.6575Y1.9154
X0.6575Y1.8957
X0.6575Y1.3248
X0.6575Y1.0413
X0.6614Y2.1791
X0.6614Y1.376
X0.6693Y2.3287
X0.6693Y2.1319
X0.6693Y0.8327
X0.6732Y0.8799
X0.6811Y2.1614
X0.685Y2.1437
X0.685Y2.1161
X0.689Y2.313
X0.689Y2.2618
X0.6929Y2.3799
X0.6969Y2.5413
X0.7047Y1.6319
X0.7126Y2.3917
X0.7283Y2.687
X0.7283Y2.5374
X0.7323Y2.2343
X0.7323Y0.1988
X0.7559Y2.6201
X0.7559Y2.3878
X0.7559Y0.1083
X0.7628Y2.1447
X0.7717Y1.4272
X0.7913Y1.9469
X0.7913Y1.9272
X0.7913Y1.9075
X0.8031Y0.9232
X0.8033Y2.2714
X0.8063Y2.1187
X0.8071Y2.4193
X0.8071Y2.3996
X0.8086Y2.3805
X0.811Y2.2894
X0.811Y2.0965
X0.811Y1.9469
X0.811Y1.9272
X0.811Y1.9075
X0.8189Y2.5965
X0.8228Y1.6516
X0.8228Y0.8366
X0.8268Y2.4193
X0.8268Y2.3996
X0.8268Y2.3799
X0.8268Y2.2736
X0.8268Y0.9705
X0.8307Y1.9469
X0.8307Y1.9272
X0.8307Y1.9075
X0.8425Y0.9933
X0.8465Y2.4193
X0.8465Y2.3996
X0.8465Y2.3799
X0.8499Y2.3305
X0.8504Y2.1791
X0.8543Y2.0374
X0.8543Y0.8287
X0.8583Y2.6555
X0.8661Y2.3287
X0.8661Y2.3051
X0.8661Y2.065
X0.8701Y2.2618
X0.874Y2.0846
X0.8858Y2.7106
X0.8858Y2.5571
X0.8858Y2.5374
X0.8858Y2.5177
X0.8858Y2.498
X0.8858Y2.4783
X0.8858Y2.4587
X0.8858Y2.2854
X0.9055Y2.6358
X0.9055Y2.5571
X0.9055Y2.5374
X0.9055Y2.5177
X0.9055Y2.498
X0.9055Y2.4783
X0.9055Y2.4587
X0.9094Y2.5965
X0.9213Y2.2854
X0.9213Y2.2657
X0.9213Y0.1831
X0.9214Y0.9062
X0.9214Y0.8851
X0.9214Y0.8654
X0.9214Y0.8458
X0.9216Y0.9292
X0.9217Y0.9503
X0.9218Y0.9709
X0.9252Y2.5571
X0.9252Y2.5374
X0.9252Y2.5177
X0.9252Y2.498
X0.9252Y2.4783
X0.9252Y2.4587
X0.9331Y2.0768
X0.9331Y2.0571
X0.9331Y2.0374
X0.9409Y2.2854
X0.9409Y2.2657
X0.9409Y1.4075
X0.9449Y1.6358
X0.9449Y0.1122
X0.9528Y2.0768
X0.9528Y2.0571
X0.9528Y2.0374
X0.9597Y2.2647
X0.9606Y2.2854
X0.9627Y0.9665
X0.9627Y0.9429
X0.9627Y0.8642
X0.9705Y0.9271
X0.9705Y0.9075
X0.9705Y0.8838
X0.9724Y2.6358
X0.9724Y2.0768
X0.9724Y2.0571
X0.9724Y2.0374
X0.9863Y0.935
X0.9863Y0.9153
X0.9863Y0.8956
X0.9894Y0.7854
X1.0Y2.7264
X1.0118Y2.5846
X1.0276Y2.5492
X1.0276Y2.2461
X1.0276Y2.2264
X1.0276Y2.2067
X1.0276Y2.1752
X1.0276Y2.1555
X1.0276Y2.1358
X1.0276Y2.1083
X1.0276Y2.0886
X1.0276Y2.0689
X1.0276Y0.9547
X1.0276Y0.8465
X1.0315Y0.7657
X1.0433Y0.9311
X1.0433Y0.8878
X1.0472Y2.2461
X1.0472Y2.2264
X1.0472Y2.2067
X1.0472Y2.1752
X1.0472Y2.1555
X1.0472Y2.1358
X1.0472Y2.1083
X1.0472Y2.0886
X1.0472Y2.0689
X1.0669Y2.2461
X1.0669Y2.2264
X1.0669Y2.2067
X1.0669Y2.1752
X1.0669Y2.1555
X1.0669Y2.1358
X1.0669Y2.1083
X1.0669Y2.0886
X1.0669Y2.0689
X1.0709Y2.6594
X1.0866Y1.3051
X1.0945Y2.1791
X1.1024Y2.7185
X1.1142Y0.187
X1.126Y2.5768
X1.126Y2.5138
X1.1339Y2.6161
X1.1378Y0.1083
X1.1496Y2.1043
X1.1614Y1.4783
X1.1654Y2.3681
X1.1732Y2.1909
X1.2008Y2.0846
X1.2126Y2.4783
X1.2441Y1.4705
X1.2598Y2.1791
X1.2598Y2.0453
X1.2677Y1.0846
X1.2677Y1.061
X1.2835Y1.1004
X1.2835Y1.0413
X1.2874Y1.0728
X1.2913Y1.998
X1.2913Y0.2106
X1.2953Y1.6634
X1.3031Y1.1043
X1.3031Y0.1161
X1.3071Y1.061
X1.3071Y1.0413
X1.311Y1.0846
X1.3268Y1.5768
X1.3307Y1.1043
X1.3307Y1.0807
X1.3307Y1.061
X1.3307Y1.0413
X1.3425Y1.8406
X1.3543Y1.6673
X1.3543Y1.1043
X1.3543Y1.0807
X1.3543Y1.061
X1.3543Y1.0413
X1.3543Y0.7697
X1.3583Y1.939
X1.3583Y1.7421
X1.374Y2.0217
X1.374Y1.1004
X1.374Y1.0807
X1.374Y1.061
X1.374Y1.0413
X1.3858Y2.1201
X1.3898Y0.7815
X1.4016Y1.1004
X1.4016Y1.0807
X1.4016Y1.061
X1.4016Y1.0413
X1.4016Y0.7657
X1.4173Y0.7815
X1.4252Y1.9035
X1.4252Y1.0413
X1.4291Y1.1004
X1.4291Y1.0807
X1.4291Y1.061
X1.4331Y1.7382
X1.4331Y1.5768
X1.437Y0.7697
X1.4528Y1.8524
X1.4528Y1.6673
X1.4606Y0.7815
X1.4646Y0.8051
X1.4646Y0.7618
X1.4724Y0.1161
X1.4843Y0.8051
X1.4843Y0.7815
X1.4843Y0.75
X1.5Y0.7618
X1.502Y1.5906
X1.5039Y0.8051
X1.5079Y0.7854
X1.5118Y1.7539
X1.5157Y0.2382
X1.5236Y1.6122
X1.5551Y1.7815
X1.5591Y1.6083
X1.5709Y1.3366
X1.5709Y1.2933
X1.6181Y0.8799
X1.622Y0.9272
X1.622Y0.128
X1.626Y1.3642
X1.6378Y0.8799
X1.6417Y1.0886
X1.6417Y1.065
X1.6417Y0.8366
X1.6457Y0.9272
X1.6575Y1.1043
X1.6575Y1.0453
X1.6575Y0.8799
X1.6614Y1.0768
X1.6654Y0.8406
X1.6732Y0.8996
X1.6732Y0.8563
X1.6772Y1.1083
X1.6772Y0.9193
X1.6772Y0.8799
X1.6811Y1.065
X1.6811Y1.0453
X1.685Y1.0886
X1.689Y1.7894
X1.689Y1.7461
X1.6929Y1.6161
X1.7047Y2.3091
X1.7047Y1.1083
X1.7047Y1.0846
X1.7047Y1.065
X1.7047Y1.0453
X1.7057Y2.2864
X1.7077Y2.2018
X1.7126Y1.3051
X1.7165Y1.3917
X1.7283Y2.2421
X1.7283Y1.1083
X1.7283Y1.0846
X1.7283Y1.065
X1.7283Y1.0453
X1.7322Y2.3279
X1.736Y2.2039
X1.7362Y0.2146
X1.7402Y0.876
X1.7402Y0.8524
X1.7441Y0.8996
X1.7455Y2.2235
X1.748Y2.2933
X1.748Y1.4547
X1.748Y1.1043
X1.748Y1.0846
X1.748Y1.065
X1.748Y1.0453
X1.7559Y2.0886
X1.7559Y1.7776
X1.7559Y0.9154
X1.7598Y1.5059
X1.7638Y0.8563
X1.7638Y0.1201
X1.7717Y1.3445
X1.7756Y1.1043
X1.7756Y1.0846
X1.7756Y1.065
X1.7756Y1.0453
X1.7795Y0.9154
X1.7874Y1.624
X1.7913Y0.8563
X1.7992Y1.4232
X1.7992Y1.0453
X1.7992Y0.8287
X1.7992Y0.5413
X1.8015Y1.6848
X1.8031Y2.2776
X1.8031Y1.1043
X1.8031Y1.0846
X1.8031Y1.065
X1.8031Y0.9154
X1.8031Y0.4783
X1.8031Y0.4193
X1.8031Y0.3563
X1.815Y0.8484
X1.8189Y2.4665
X1.8189Y1.4469
X1.8228Y0.9154
X1.8228Y0.8917
X1.8228Y0.8681
X1.8228Y0.7776
X1.8386Y1.3012
X1.8386Y0.7972
X1.8386Y0.7697
X1.8401Y2.1383
X1.8425Y1.7028
X1.8425Y0.9154
X1.8504Y1.3327
X1.8543Y2.7579
X1.8543Y2.7303
X1.8543Y1.8839
X1.8543Y1.5453
X1.8583Y2.2421
X1.8583Y2.187
X1.8622Y2.2106
X1.8622Y1.7854
X1.8622Y0.7579
X1.8622Y0.6909
X1.8661Y0.9154
X1.8661Y0.6437
X1.8701Y1.0768
X1.8701Y1.0531
X1.874Y0.7106
X1.8757Y2.4796
X1.878Y0.6594
X1.8819Y2.25
X1.8819Y0.7343
X1.8819Y0.6831
X1.8819Y0.624
X1.8858Y2.439
X1.8858Y1.0925
X1.8858Y1.0335
X1.8898Y1.065
X1.8898Y0.9154
X1.8937Y2.2106
X1.8976Y2.2579
X1.8976Y2.2303
X1.8996Y2.0463
X1.9016Y2.2854
X1.9016Y0.6437
X1.9055Y1.0965
X1.9055Y0.7579
X1.9055Y0.7303
X1.9055Y0.6673
X1.9094Y1.0531
X1.9094Y1.0335
X1.9094Y0.7028
X1.9134Y2.1909
X1.9134Y1.0768
X1.9173Y2.2146
X1.9213Y2.3091
X1.9213Y2.25
X1.9213Y2.2343
X1.9242Y2.4361
X1.9281Y2.0059
X1.9281Y1.9203
X1.9291Y2.2736
X1.9291Y0.2303
X1.9331Y2.1949
X1.9331Y1.687
X1.9331Y1.0965
X1.9331Y1.0728
X1.9331Y1.0531
X1.9331Y1.0335
X1.9413Y2.4178
X1.9449Y2.2146
X1.9488Y2.3051
X1.9488Y0.7579
X1.9528Y2.2303
X1.9567Y2.2815
X1.9567Y2.2539
X1.9567Y2.1909
X1.9567Y1.0965
X1.9567Y1.0728
X1.9567Y1.0531
X1.9567Y1.0335
X1.9567Y0.8248
X1.9613Y2.4608
X1.9646Y0.7736
X1.9724Y2.2894
X1.9764Y2.3051
X1.9764Y2.2421
X1.9764Y2.2106
X1.9764Y2.1909
X1.9764Y1.0925
X1.9764Y1.0728
X1.9764Y1.0531
X1.9764Y1.0335
X1.9764Y0.7579
X1.9803Y2.2736
X1.9882Y0.7776
X1.9996Y1.9699
X2.0Y0.7579
X2.0039Y1.0925
X2.0039Y1.0728
X2.0039Y1.0531
X2.0039Y1.0335
X2.0157Y0.7815
X2.0197Y1.7894
X2.0197Y1.7461
X2.0236Y2.4823
X2.0236Y2.4587
X2.0276Y1.0335
X2.0276Y0.7579
X2.0315Y1.0925
X2.0315Y1.0728
X2.0315Y1.0531
X2.0354Y0.8051
X2.0433Y2.3091
X2.0433Y1.4114
X2.0433Y0.7815
X2.0433Y0.2343
X2.0472Y1.3091
X2.0472Y0.7579
X2.0512Y2.2382
X2.0551Y1.3445
X2.0551Y0.8051
X2.0709Y2.2146
X2.0709Y0.7815
X2.0787Y0.7579
X2.0827Y2.4783
X2.0827Y2.4547
X2.0827Y2.1122
X2.0827Y1.3484
X2.0827Y0.8051
X2.0945Y0.7697
X2.0984Y0.7894
X2.1102Y2.2264
X2.1457Y2.1988
X2.1496Y2.1122
X2.1535Y1.2736
X2.1575Y1.3209
X2.1654Y0.1398
X2.1811Y1.939
X2.185Y1.7736
X2.2108Y0.8812
X2.2126Y1.3681
X2.2126Y0.9035
X2.2147Y0.8379
X2.2187Y0.9284
X2.2205Y2.0531
X2.2305Y0.8812
X2.2384Y0.8418
X2.2441Y2.4744
X2.2441Y1.0846
X2.2441Y1.061
X2.2462Y0.9009
X2.2462Y0.8576
X2.2502Y0.9206
X2.2502Y0.8812
X2.2559Y1.3366
X2.2559Y0.187
X2.2598Y1.1004
X2.2598Y1.0413
X2.2638Y1.0728
X2.2707Y2.4343
X2.2727Y2.2226
X2.2795Y1.1043
X2.2835Y1.061
X2.2835Y1.0413
X2.2874Y1.0846
X2.2992Y2.3563
X2.3071Y1.1043
X2.3071Y1.0807
X2.3071Y1.061
X2.3071Y1.0413
X2.311Y2.5098
X2.3119Y0.8668
X2.3135Y0.8902
X2.3303Y0.8529
X2.3307Y1.1043
X2.3307Y1.0807
X2.3307Y1.061
X2.3307Y1.0413
X2.3307Y0.6634
X2.3317Y0.9153
X2.3386Y0.7421
X2.341Y1.5982
X2.3465Y0.5295
X2.3504Y1.1004
X2.3504Y1.0807
X2.3504Y1.061
X2.3504Y1.0413
X2.3563Y0.8537
X2.3583Y0.3563
X2.3611Y0.9162
X2.3622Y2.7539
X2.3622Y2.7146
X2.3622Y0.6358
X2.3649Y0.7755
X2.3661Y2.7382
X2.3675Y0.8039
X2.3679Y0.8264
X2.3701Y0.7185
X2.3701Y0.435
X2.378Y1.1004
X2.378Y1.0807
X2.378Y1.061
X2.378Y1.0413
X2.3877Y0.9148
X2.3898Y0.8909
X2.3902Y0.8678
X2.3937Y1.3484
X2.3937Y0.565
X2.3976Y0.3091
X2.4016Y2.2579
X2.4016Y1.3169
X2.4016Y1.0413
X2.4055Y1.1004
X2.4055Y1.0807
X2.4055Y1.061
X2.4127Y0.9164
X2.4291Y0.2224
X2.4331Y0.5138
X2.4372Y0.9164
X2.4488Y2.3524
X2.4646Y1.6083
X2.4803Y1.2894
X2.4803Y0.5453
X2.4921Y2.4862
X2.4921Y0.1122
X2.4961Y2.4587
X2.4961Y0.8839
X2.4961Y0.8091
X2.5079Y1.3091
X2.5079Y0.7382
X2.5118Y1.1988
X2.5157Y0.2146
X2.5276Y1.9193
X2.5276Y1.8445
X2.5315Y1.8799
X2.5315Y1.8248
X2.5315Y0.9075
X2.5433Y0.5768
X2.5472Y0.5177
X2.5512Y1.8563
X2.5512Y1.8248
X2.5551Y2.5335
X2.5551Y0.7382
X2.5709Y1.561
X2.5827Y0.5453
X2.5906Y2.7165
X2.5906Y1.4075
X2.5906Y0.8996
X2.5906Y0.1823
X2.5925Y2.6929
X2.5925Y0.1587
X2.5984Y2.7402
X2.5984Y0.2059
X2.6024Y2.6713
X2.6024Y0.5059
X2.6024Y0.137
X2.6063Y1.2106
X2.6122Y2.7598
X2.6122Y0.2256
X2.6181Y2.6535
X2.6181Y0.1193
X2.626Y1.6437
X2.6339Y2.7717
X2.6339Y0.2374
X2.6417Y2.6437
X2.6417Y0.1095
X2.6575Y2.7756
X2.6575Y0.2414
X2.6673Y2.6417
X2.6673Y0.1075
X2.6732Y1.8996
X2.6831Y2.7697
X2.6831Y0.2355
X2.6909Y2.6516
X2.6909Y0.1173
X2.7047Y2.7559
X2.7047Y0.2217
X2.7087Y2.6673
X2.7087Y1.0925
X2.7087Y1.0728
X2.7087Y1.0531
X2.7087Y1.0374
X2.7087Y0.1331
X2.7165Y0.9547
X2.7185Y2.7362
X2.7185Y0.202
X2.7224Y2.689
X2.7224Y0.1547
X2.7244Y2.7126
X2.7244Y1.0768
X2.7244Y1.0571
X2.7244Y0.1784
X2.7283Y1.0925
X2.7283Y0.9705
X2.7323Y1.0374
X2.7441Y1.0689
X2.7441Y1.0531
X2.748Y1.9783
X2.748Y1.0925
X2.7481Y1.3188
X2.752Y1.4587
X2.752Y1.0374
X2.7559Y0.876
X2.7598Y1.0807
X2.7598Y1.0571
X2.7638Y1.2343
X2.7795Y0.9902
X2.7835Y1.1319
X2.7874Y1.1122
X2.8071Y1.1358
X2.811Y1.2421
X2.8189Y1.1122
X2.8189Y1.0846
X2.8228Y1.0531
X2.8425Y0.9705
X2.8465Y1.0531
X2.8504Y1.1161
X2.8504Y0.8484
X2.8543Y0.9429
X2.8543Y0.9114
X2.8661Y1.0571
X2.8701Y1.1161
T2
X0.2343Y0.4272
X0.2343Y0.4016
X0.2343Y0.376
X0.2402Y0.3465
X0.248Y0.4528
X0.2638Y0.3268
X0.2736Y0.4724
X0.3031Y0.3209
X0.3051Y0.4783
X0.3346Y0.4724
X0.3484Y0.3287
X0.3583Y0.4528
X0.3642Y0.3504
X0.372Y0.4272
X0.372Y0.4016
X0.372Y0.376
X0.4646Y0.4291
X0.4646Y0.4035
X0.4646Y0.378
X0.4705Y0.3484
X0.4783Y0.4547
X0.4941Y0.3287
X0.5039Y0.4744
X0.5335Y0.3228
X0.5354Y0.4803
X0.565Y0.4744
X0.5787Y0.3307
X0.5886Y0.4547
X0.5945Y0.3524
X0.6024Y0.4291
X0.6024Y0.4035
X0.6024Y0.378
X0.7539Y0.4291
X0.7539Y0.4035
X0.7539Y0.378
X0.7598Y0.3484
X0.7677Y0.4547
X0.7835Y0.3287
X0.7933Y0.4744
X0.8228Y0.3228
X0.8248Y0.4803
X0.8543Y0.4744
X0.8681Y0.3307
X0.878Y0.4547
X0.8839Y0.3524
X0.8917Y0.4291
X0.8917Y0.4035
X0.8917Y0.378
X0.9862Y0.4291
X0.9862Y0.4035
X0.9862Y0.378
X0.9921Y0.3484
X1.0Y0.4547
X1.0157Y0.3287
X1.0256Y0.4744
X1.0551Y0.3228
X1.0571Y0.4803
X1.0866Y1.6732
X1.0866Y0.4744
X1.0886Y1.8996
X1.0925Y1.7028
X1.0925Y1.6417
X1.0945Y1.9291
X1.0945Y1.8681
X1.1004Y0.3307
X1.1102Y0.4547
X1.1122Y1.7264
X1.1122Y1.6161
X1.1142Y1.9528
X1.1142Y1.8425
X1.1161Y0.3524
X1.124Y0.4291
X1.124Y0.4035
X1.124Y0.378
X1.1378Y1.7402
X1.1378Y1.6024
X1.1398Y1.9665
X1.1398Y1.8287
X1.1634Y1.7402
X1.1634Y1.6024
X1.1654Y1.9665
X1.1654Y1.8287
X1.189Y1.7402
X1.189Y1.6024
X1.1909Y1.9665
X1.1909Y1.8287
X1.2146Y1.7323
X1.2165Y1.9587
X1.2185Y1.6083
X1.2205Y1.8346
X1.2362Y1.7165
X1.2382Y1.9429
X1.2382Y1.6319
X1.2402Y1.8583
X1.2441Y1.6713
X1.2461Y1.8976
X1.313Y0.4291
X1.313Y0.4035
X1.313Y0.378
X1.3189Y0.3484
X1.3268Y0.4547
X1.3425Y0.3287
X1.3524Y0.4744
X1.3819Y0.3228
X1.3839Y0.4803
X1.4134Y0.4744
X1.4272Y0.3307
X1.437Y0.4547
X1.4429Y0.3524
X1.4508Y0.4291
X1.4508Y0.4035
X1.4508Y0.378
X1.5472Y0.4291
X1.5472Y0.4035
X1.5472Y0.378
X1.5531Y0.3484
X1.561Y0.4547
X1.5768Y0.3287
X1.5866Y0.4744
X1.6161Y0.3228
X1.6181Y0.4803
X1.6476Y0.4744
X1.6614Y0.3307
X1.6713Y0.4547
X1.6772Y0.3524
X1.685Y0.4291
X1.685Y0.4035
X1.685Y0.378
X1.8957Y0.4291
X1.8957Y0.4035
X1.8957Y0.378
X1.9016Y0.3484
X1.9094Y0.4547
X1.9252Y0.3287
X1.935Y0.4744
X1.9646Y0.3228
X1.9665Y0.4803
X1.9961Y0.4744
X2.0098Y0.3307
X2.0197Y0.4547
X2.0256Y0.3524
X2.0335Y0.4291
X2.0335Y0.4035
X2.0335Y0.378
X2.1299Y0.4291
X2.1299Y0.4035
X2.1299Y0.378
X2.1358Y0.3484
X2.1437Y0.4547
X2.1594Y0.3287
X2.1693Y0.4744
X2.1988Y0.3228
X2.2008Y0.4803
X2.2303Y0.4744
X2.2441Y0.3307
X2.2539Y0.4547
X2.2598Y0.3524
X2.2677Y0.4291
X2.2677Y0.4035
X2.2677Y0.378
X2.4469Y0.4272
X2.4469Y0.4016
X2.4469Y0.376
X2.4528Y0.3465
X2.4606Y0.4528
X2.4764Y0.3268
X2.4862Y0.4724
X2.5157Y0.3209
X2.5177Y0.4783
X2.5472Y0.4724
X2.561Y0.3287
X2.5709Y0.4528
X2.5768Y0.3504
X2.5846Y0.4272
X2.5846Y0.4016
X2.5846Y0.376
X2.6811Y0.4291
X2.6811Y0.4035
X2.6811Y0.378
X2.687Y0.3484
X2.6949Y0.4547
X2.7106Y0.3287
X2.7205Y0.4744
X2.75Y0.3228
X2.752Y0.4803
X2.7815Y0.4744
X2.7953Y0.3307
X2.8051Y0.4547
X2.811Y0.3524
X2.8189Y0.4291
X2.8189Y0.4035
X2.8189Y0.378
T4
X2.6811Y2.561
X2.6811Y2.511
X2.6811Y2.461
X2.6811Y2.411
X2.6811Y2.361
X2.6811Y2.311
X2.6811Y2.261
X2.6811Y2.211
X2.6811Y2.161
X2.6811Y2.111
X2.6811Y2.061
X2.7677Y2.561
X2.7677Y2.511
X2.7677Y2.461
X2.7677Y2.411
X2.7677Y2.361
X2.7677Y2.311
X2.7677Y2.261
X2.7677Y2.211
X2.7677Y2.161
X2.7677Y2.111
X2.7677Y2.061
X2.8465Y1.7638
X2.8465Y1.7138
X2.8465Y1.6638
X2.8465Y1.6138
X2.8465Y1.5638
X2.8465Y1.5138
X2.8465Y1.4638
X2.8543Y2.561
X2.8543Y2.511
X2.8543Y2.461
X2.8543Y2.411
X2.8543Y2.361
X2.8543Y2.311
X2.8543Y2.261
X2.8543Y2.211
X2.8543Y2.161
X2.8543Y2.111
X2.8543Y2.061
T5
X2.69Y1.7421
X2.69Y1.6421
X2.69Y1.5421
X2.69Y1.4421
T7
X0.2402Y2.6988
X0.2402Y0.1646
X2.6575Y2.7087
X2.6575Y0.1744
T3
G00X0.1388Y2.5106
M15
G01X0.1073Y2.5106
M16
G05
G00X0.1388Y2.1705
M15
G01X0.1073Y2.1705
M16
G05
G00X0.31Y2.5106
M15
G01X0.2667Y2.5106
M16
G05
G00X0.31Y2.1705
M15
G01X0.2667Y2.1705
M16
G05
T6
G00X0.3031Y0.4173
M15
G01X0.3031Y0.378
M16
G05
G00X0.5335Y0.4193
M15
G01X0.5335Y0.3799
M16
G05
G00X0.8228Y0.4193
M15
G01X0.8228Y0.3799
M16
G05
G00X1.0551Y0.4193
M15
G01X1.0551Y0.3799
M16
G05
G00X1.1476Y1.6713
M15
G01X1.187Y1.6713
M16
G05
G00X1.1496Y1.8976
M15
G01X1.189Y1.8976
M16
G05
G00X1.3819Y0.4193
M15
G01X1.3819Y0.3799
M16
G05
G00X1.6161Y0.4193
M15
G01X1.6161Y0.3799
M16
G05
G00X1.9646Y0.4193
M15
G01X1.9646Y0.3799
M16
G05
G00X2.1988Y0.4193
M15
G01X2.1988Y0.3799
M16
G05
G00X2.5157Y0.4173
M15
G01X2.5157Y0.378
M16
G05
G00X2.75Y0.4193
M15
G01X2.75Y0.3799
M16
G05
M30
