%TF.GenerationSoftware,KiCad,Pcbnew,9.0.0*%
%TF.CreationDate,2025-08-15T19:16:38+03:00*%
%TF.ProjectId,USB-PD-Voltage-supply,5553422d-5044-42d5-966f-6c746167652d,rev?*%
%TF.SameCoordinates,Original*%
%TF.FileFunction,Soldermask,Bot*%
%TF.FilePolarity,Negative*%
%FSLAX46Y46*%
G04 Gerber Fmt 4.6, Leading zero omitted, Abs format (unit mm)*
G04 Created by KiCad (PCBNEW 9.0.0) date 2025-08-15 19:16:38*
%MOMM*%
%LPD*%
G01*
G04 APERTURE LIST*
G04 Aperture macros list*
%AMRoundRect*
0 Rectangle with rounded corners*
0 $1 Rounding radius*
0 $2 $3 $4 $5 $6 $7 $8 $9 X,Y pos of 4 corners*
0 Add a 4 corners polygon primitive as box body*
4,1,4,$2,$3,$4,$5,$6,$7,$8,$9,$2,$3,0*
0 Add four circle primitives for the rounded corners*
1,1,$1+$1,$2,$3*
1,1,$1+$1,$4,$5*
1,1,$1+$1,$6,$7*
1,1,$1+$1,$8,$9*
0 Add four rect primitives between the rounded corners*
20,1,$1+$1,$2,$3,$4,$5,0*
20,1,$1+$1,$4,$5,$6,$7,0*
20,1,$1+$1,$6,$7,$8,$9,0*
20,1,$1+$1,$8,$9,$2,$3,0*%
G04 Aperture macros list end*
%ADD10C,0.100000*%
%ADD11R,1.000000X1.000000*%
%ADD12O,1.000000X1.000000*%
%ADD13C,0.650000*%
%ADD14O,2.100000X1.000000*%
%ADD15O,1.800000X1.000000*%
%ADD16O,4.000000X4.000000*%
%ADD17C,1.600000*%
%ADD18C,1.800000*%
%ADD19R,1.700000X1.700000*%
%ADD20O,1.700000X1.700000*%
%ADD21RoundRect,0.140000X-0.170000X0.140000X-0.170000X-0.140000X0.170000X-0.140000X0.170000X0.140000X0*%
%ADD22RoundRect,0.250000X0.250000X0.475000X-0.250000X0.475000X-0.250000X-0.475000X0.250000X-0.475000X0*%
%ADD23RoundRect,0.140000X0.140000X0.170000X-0.140000X0.170000X-0.140000X-0.170000X0.140000X-0.170000X0*%
G04 APERTURE END LIST*
%TO.C,TP25*%
D10*
X172450000Y-121400000D02*
X177450000Y-121400000D01*
X177450000Y-126400000D01*
X172450000Y-126400000D01*
X172450000Y-121400000D01*
G36*
X172450000Y-121400000D02*
G01*
X177450000Y-121400000D01*
X177450000Y-126400000D01*
X172450000Y-126400000D01*
X172450000Y-121400000D01*
G37*
%TO.C,TP18*%
X124300000Y-121450000D02*
X129300000Y-121450000D01*
X129300000Y-126450000D01*
X124300000Y-126450000D01*
X124300000Y-121450000D01*
G36*
X124300000Y-121450000D02*
G01*
X129300000Y-121450000D01*
X129300000Y-126450000D01*
X124300000Y-126450000D01*
X124300000Y-121450000D01*
G37*
%TO.C,TP20*%
X137500000Y-121400000D02*
X142500000Y-121400000D01*
X142500000Y-126400000D01*
X137500000Y-126400000D01*
X137500000Y-121400000D01*
G36*
X137500000Y-121400000D02*
G01*
X142500000Y-121400000D01*
X142500000Y-126400000D01*
X137500000Y-126400000D01*
X137500000Y-121400000D01*
G37*
%TO.C,TP17*%
X130150000Y-121400000D02*
X135150000Y-121400000D01*
X135150000Y-126400000D01*
X130150000Y-126400000D01*
X130150000Y-121400000D01*
G36*
X130150000Y-121400000D02*
G01*
X135150000Y-121400000D01*
X135150000Y-126400000D01*
X130150000Y-126400000D01*
X130150000Y-121400000D01*
G37*
%TO.C,TP23*%
X157650000Y-121400000D02*
X162650000Y-121400000D01*
X162650000Y-126400000D01*
X157650000Y-126400000D01*
X157650000Y-121400000D01*
G36*
X157650000Y-121400000D02*
G01*
X162650000Y-121400000D01*
X162650000Y-126400000D01*
X157650000Y-126400000D01*
X157650000Y-121400000D01*
G37*
%TO.C,TP16*%
X146250000Y-94100000D02*
X151250000Y-94100000D01*
X151250000Y-89100000D01*
X146250000Y-89100000D01*
X146250000Y-94100000D01*
G36*
X146250000Y-94100000D02*
G01*
X151250000Y-94100000D01*
X151250000Y-89100000D01*
X146250000Y-89100000D01*
X146250000Y-94100000D01*
G37*
%TO.C,TP22*%
X180500000Y-121450000D02*
X185500000Y-121450000D01*
X185500000Y-126450000D01*
X180500000Y-126450000D01*
X180500000Y-121450000D01*
G36*
X180500000Y-121450000D02*
G01*
X185500000Y-121450000D01*
X185500000Y-126450000D01*
X180500000Y-126450000D01*
X180500000Y-121450000D01*
G37*
%TO.C,TP15*%
X146300000Y-88350000D02*
X151300000Y-88350000D01*
X151300000Y-83350000D01*
X146300000Y-83350000D01*
X146300000Y-88350000D01*
G36*
X146300000Y-88350000D02*
G01*
X151300000Y-88350000D01*
X151300000Y-83350000D01*
X146300000Y-83350000D01*
X146300000Y-88350000D01*
G37*
%TO.C,TP24*%
X151700000Y-121400000D02*
X156700000Y-121400000D01*
X156700000Y-126400000D01*
X151700000Y-126400000D01*
X151700000Y-121400000D01*
G36*
X151700000Y-121400000D02*
G01*
X156700000Y-121400000D01*
X156700000Y-126400000D01*
X151700000Y-126400000D01*
X151700000Y-121400000D01*
G37*
%TO.C,TP21*%
X186450000Y-121400000D02*
X191450000Y-121400000D01*
X191450000Y-126400000D01*
X186450000Y-126400000D01*
X186450000Y-121400000D01*
G36*
X186450000Y-121400000D02*
G01*
X191450000Y-121400000D01*
X191450000Y-126400000D01*
X186450000Y-126400000D01*
X186450000Y-121400000D01*
G37*
%TO.C,TP26*%
X166500000Y-121400000D02*
X171500000Y-121400000D01*
X171500000Y-126400000D01*
X166500000Y-126400000D01*
X166500000Y-121400000D01*
G36*
X166500000Y-121400000D02*
G01*
X171500000Y-121400000D01*
X171500000Y-126400000D01*
X166500000Y-126400000D01*
X166500000Y-121400000D01*
G37*
%TO.C,TP19*%
X143400000Y-121400000D02*
X148400000Y-121400000D01*
X148400000Y-126400000D01*
X143400000Y-126400000D01*
X143400000Y-121400000D01*
G36*
X143400000Y-121400000D02*
G01*
X148400000Y-121400000D01*
X148400000Y-126400000D01*
X143400000Y-126400000D01*
X143400000Y-121400000D01*
G37*
%TD*%
D11*
%TO.C,J6*%
X189400000Y-81700000D03*
D12*
X189400000Y-80430000D03*
X189400000Y-79160000D03*
X189400000Y-77890000D03*
X189400000Y-76620000D03*
X189400000Y-75350000D03*
X189400000Y-74080000D03*
X189400000Y-72810000D03*
X189400000Y-71540000D03*
X189400000Y-70270000D03*
X189400000Y-69000000D03*
%TD*%
D11*
%TO.C,J7*%
X191600000Y-81700000D03*
D12*
X191600000Y-80430000D03*
X191600000Y-79160000D03*
X191600000Y-77890000D03*
X191600000Y-76620000D03*
X191600000Y-75350000D03*
X191600000Y-74080000D03*
X191600000Y-72810000D03*
X191600000Y-71540000D03*
X191600000Y-70270000D03*
X191600000Y-69000000D03*
%TD*%
D13*
%TO.C,J4*%
X125905000Y-71710000D03*
X125905000Y-77490000D03*
D14*
X126425000Y-70280000D03*
D15*
X122225000Y-70280000D03*
D14*
X126425000Y-78920000D03*
D15*
X122225000Y-78920000D03*
%TD*%
D16*
%TO.C,*%
X186600000Y-129619560D03*
%TD*%
%TO.C,*%
X125200000Y-65500000D03*
%TD*%
D11*
%TO.C,J5*%
X187200000Y-81700000D03*
D12*
X187200000Y-80430000D03*
X187200000Y-79160000D03*
X187200000Y-77890000D03*
X187200000Y-76620000D03*
X187200000Y-75350000D03*
X187200000Y-74080000D03*
X187200000Y-72810000D03*
X187200000Y-71540000D03*
X187200000Y-70270000D03*
X187200000Y-69000000D03*
%TD*%
D16*
%TO.C,*%
X125200000Y-129869560D03*
%TD*%
%TO.C,*%
X186600000Y-65250000D03*
%TD*%
D11*
%TO.C,J2*%
X191400000Y-89250000D03*
D12*
X191400000Y-90520000D03*
X191400000Y-91790000D03*
X191400000Y-93060000D03*
X191400000Y-94330000D03*
X191400000Y-95600000D03*
X191400000Y-96870000D03*
%TD*%
D17*
%TO.C,J1*%
X124500000Y-88200000D03*
D18*
X129000000Y-88200000D03*
%TD*%
D19*
%TO.C,J3*%
X187425000Y-89800000D03*
D20*
X187425000Y-92340000D03*
X187425000Y-94880000D03*
X187425000Y-97420000D03*
%TD*%
D21*
%TO.C,C19*%
X134925000Y-76970000D03*
X134925000Y-77930000D03*
%TD*%
D22*
%TO.C,C40*%
X143750000Y-108800000D03*
X141850000Y-108800000D03*
%TD*%
%TO.C,C37*%
X128350000Y-112800000D03*
X126450000Y-112800000D03*
%TD*%
%TO.C,C39*%
X128350000Y-110800000D03*
X126450000Y-110800000D03*
%TD*%
%TO.C,C47*%
X161350000Y-110600000D03*
X159450000Y-110600000D03*
%TD*%
%TO.C,C35*%
X143750000Y-110800000D03*
X141850000Y-110800000D03*
%TD*%
D21*
%TO.C,C21*%
X134000000Y-76970000D03*
X134000000Y-77930000D03*
%TD*%
D22*
%TO.C,C38*%
X143750000Y-112800000D03*
X141850000Y-112800000D03*
%TD*%
D23*
%TO.C,C33*%
X143280000Y-107200000D03*
X142320000Y-107200000D03*
%TD*%
D22*
%TO.C,C34*%
X128350000Y-108800000D03*
X126450000Y-108800000D03*
%TD*%
D23*
%TO.C,C32*%
X128000000Y-107200000D03*
X127040000Y-107200000D03*
%TD*%
D22*
%TO.C,C23*%
X133350000Y-70600000D03*
X131450000Y-70600000D03*
%TD*%
%TO.C,C48*%
X176150000Y-112600000D03*
X174250000Y-112600000D03*
%TD*%
%TO.C,C46*%
X176150000Y-110600000D03*
X174250000Y-110600000D03*
%TD*%
%TO.C,C22*%
X133350000Y-74600000D03*
X131450000Y-74600000D03*
%TD*%
D21*
%TO.C,C20*%
X135850000Y-76970000D03*
X135850000Y-77930000D03*
%TD*%
D22*
%TO.C,C45*%
X161350000Y-112600000D03*
X159450000Y-112600000D03*
%TD*%
%TO.C,C24*%
X133350000Y-72600000D03*
X131450000Y-72600000D03*
%TD*%
M02*
