M48
; DRILL file {KiCad 9.0.0} date 2025-08-15T19:16:44+0300
; FORMAT={-:-/ absolute / inch / decimal}
; #@! TF.CreationDate,2025-08-15T19:16:44+03:00
; #@! TF.GenerationSoftware,Kicad,Pcbnew,9.0.0
; #@! TF.FileFunction,Plated,1,4,PTH
FMAT,2
INCH
; #@! TA.AperFunction,Plated,PTH,ViaDrill
T1C0.0079
; #@! TA.AperFunction,Plated,PTH,ViaDrill
T2C0.0118
; #@! TA.AperFunction,Plated,PTH,ComponentDrill
T3C0.0157
; #@! TA.AperFunction,Plated,PTH,ComponentDrill
T4C0.0236
; #@! TA.AperFunction,Plated,PTH,ComponentDrill
T5C0.0256
; #@! TA.AperFunction,Plated,PTH,ComponentDrill
T6C0.0394
; #@! TA.AperFunction,Plated,PTH,ComponentDrill
T7C0.0787
; #@! TA.AperFunction,Plated,PTH,ComponentDrill
T8C0.0984
%
G90
G05
T1
X4.7717Y-4.374
X4.7717Y-4.4528
X4.7756Y-3.7087
X4.7795Y-2.6496
X4.7835Y-3.7835
X4.7874Y-3.3819
X4.7953Y-4.3661
X4.7953Y-4.8031
X4.7953Y-4.937
X4.7992Y-2.7244
X4.7992Y-3.189
X4.7992Y-3.6378
X4.811Y-2.8701
X4.811Y-3.2835
X4.811Y-3.8307
X4.815Y-3.9449
X4.8189Y-4.8937
X4.8268Y-3.4685
X4.8307Y-3.5197
X4.8386Y-3.5984
X4.8425Y-2.9252
X4.8465Y-3.3898
X4.8465Y-3.4528
X4.8465Y-4.3701
X4.8504Y-2.6457
X4.8504Y-3.1496
X4.8543Y-3.0394
X4.8543Y-3.8543
X4.8583Y-3.9173
X4.8583Y-3.9685
X4.8583Y-5.0236
X4.8622Y-2.5709
X4.8626Y-5.1053
X4.8642Y-2.5945
X4.8646Y-5.129
X4.8661Y-2.7205
X4.8701Y-2.5472
X4.8701Y-4.752
X4.8705Y-5.0817
X4.874Y-2.6161
X4.8744Y-5.1506
X4.878Y-3.5394
X4.8839Y-2.5276
X4.8843Y-5.062
X4.8858Y-4.3543
X4.8898Y-2.6339
X4.8898Y-3.5906
X4.8898Y-4.2992
X4.8902Y-5.1683
X4.8937Y-2.8268
X4.8937Y-3.7874
X4.8976Y-2.8819
X4.8976Y-3.3228
X4.8976Y-3.3425
X4.8976Y-3.3622
X4.8976Y-3.9449
X4.8976Y-4.4331
X4.9016Y-2.9961
X4.9055Y-2.5157
X4.9059Y-5.0502
X4.9094Y-2.7717
X4.9094Y-3.0827
X4.9134Y-2.6437
X4.9138Y-5.1782
X4.9173Y-3.3228
X4.9173Y-3.3425
X4.9173Y-3.3622
X4.9213Y-2.9646
X4.9252Y-2.9213
X4.9291Y-2.5118
X4.9295Y-5.0463
X4.9331Y-4.2835
X4.937Y-3.3228
X4.937Y-3.3425
X4.937Y-3.3622
X4.939Y-2.6457
X4.9394Y-5.1802
X4.9528Y-3.5551
X4.9528Y-4.0197
X4.9547Y-2.5177
X4.9551Y-5.0522
X4.9567Y-2.7244
X4.9606Y-3.0039
X4.9606Y-3.7992
X4.9626Y-2.6358
X4.963Y-5.1703
X4.9646Y-2.8898
X4.9685Y-2.685
X4.9685Y-3.622
X4.9764Y-2.5315
X4.9764Y-3.3425
X4.9764Y-3.3622
X4.9764Y-3.3819
X4.9768Y-5.066
X4.9803Y-2.6201
X4.9807Y-5.1546
X4.9902Y-2.5512
X4.9906Y-5.0857
X4.9921Y-3.7559
X4.9941Y-2.5984
X4.9945Y-5.1329
X4.9961Y-2.5748
X4.9961Y-3.3425
X4.9961Y-3.3622
X4.9961Y-3.3819
X4.9961Y-3.6929
X4.9965Y-5.1093
X4.9971Y-4.3643
X4.9971Y-4.3854
X4.9971Y-4.4051
X4.9971Y-4.4247
X4.9973Y-4.3413
X4.9974Y-4.3202
X4.9975Y-4.2996
X5.0Y-3.2205
X5.0Y-3.2402
X5.0Y-3.2598
X5.0039Y-3.5551
X5.0118Y-3.6654
X5.0118Y-4.5354
X5.0157Y-3.3425
X5.0157Y-3.3622
X5.0157Y-3.3819
X5.0197Y-3.2205
X5.0197Y-3.2402
X5.0197Y-3.2598
X5.0276Y-2.6417
X5.0315Y-3.1339
X5.0315Y-3.8543
X5.0315Y-3.9843
X5.0354Y-3.0866
X5.0354Y-3.7441
X5.0394Y-3.2205
X5.0394Y-3.2402
X5.0394Y-3.2598
X5.0394Y-3.6693
X5.0394Y-4.3071
X5.0394Y-4.3307
X5.0394Y-4.4094
X5.0433Y-2.5709
X5.0472Y-3.1654
X5.0472Y-4.3465
X5.0472Y-4.3661
X5.0472Y-4.3898
X5.0512Y-2.7126
X5.0512Y-2.7756
X5.0512Y-3.9291
X5.0551Y-3.626
X5.063Y-4.3386
X5.063Y-4.3583
X5.063Y-4.378
X5.0669Y-2.6457
X5.0669Y-3.3425
X5.0669Y-3.3622
X5.0669Y-3.3819
X5.0709Y-3.0709
X5.0709Y-3.5669
X5.0748Y-2.7953
X5.0827Y-2.5433
X5.0827Y-2.7362
X5.0866Y-3.3425
X5.0866Y-3.3622
X5.0866Y-3.3819
X5.0906Y-4.4291
X5.0906Y-5.1063
X5.0945Y-2.6102
X5.0945Y-4.6654
X5.1024Y-4.4055
X5.1063Y-3.0197
X5.1063Y-3.1654
X5.1063Y-3.3425
X5.1063Y-3.3622
X5.1063Y-3.3819
X5.1102Y-4.4409
X5.1142Y-4.3346
X5.1184Y-4.3559
X5.126Y-4.2323
X5.1299Y-2.5354
X5.1299Y-3.8543
X5.1339Y-2.7165
X5.1339Y-3.1654
X5.1614Y-3.0472
X5.1811Y-3.0906
X5.185Y-2.7165
X5.189Y-3.1654
X5.2008Y-3.3425
X5.2008Y-3.3622
X5.2008Y-3.3819
X5.2087Y-4.2598
X5.2165Y-2.689
X5.2165Y-5.1024
X5.2205Y-2.6181
X5.2205Y-3.185
X5.2205Y-3.3425
X5.2205Y-3.3622
X5.2205Y-3.3819
X5.2244Y-3.1614
X5.2244Y-4.4055
X5.2283Y-3.1063
X5.2362Y-2.5591
X5.2362Y-4.3346
X5.2402Y-3.3425
X5.2402Y-3.3622
X5.2402Y-3.3819
X5.2402Y-4.4882
X5.248Y-3.189
X5.248Y-3.8976
X5.2559Y-2.6575
X5.2638Y-3.6496
X5.2638Y-5.185
X5.2756Y-3.0118
X5.2795Y-3.2362
X5.2874Y-2.6339
X5.2874Y-2.7638
X5.2874Y-2.7835
X5.2874Y-2.8031
X5.2874Y-2.8228
X5.2874Y-2.8425
X5.2874Y-2.8622
X5.2874Y-2.8819
X5.2874Y-2.9016
X5.2874Y-2.9213
X5.2874Y-2.9409
X5.2874Y-2.9606
X5.2874Y-3.0748
X5.2874Y-3.0984
X5.2874Y-3.1181
X5.2874Y-3.1417
X5.2874Y-3.1614
X5.3031Y-3.0118
X5.3031Y-3.2362
X5.3071Y-2.7638
X5.3071Y-2.7835
X5.3071Y-2.8031
X5.3071Y-2.8228
X5.3071Y-2.8425
X5.3071Y-2.8622
X5.3071Y-2.8819
X5.3071Y-2.9016
X5.3071Y-2.9213
X5.3071Y-2.9409
X5.3071Y-2.9606
X5.3071Y-3.1614
X5.3071Y-3.3425
X5.3071Y-3.3622
X5.3071Y-3.3819
X5.3071Y-4.0079
X5.3071Y-4.248
X5.311Y-3.1142
X5.311Y-4.1654
X5.315Y-3.0866
X5.315Y-4.4882
X5.3189Y-3.6417
X5.3268Y-2.5551
X5.3268Y-3.1024
X5.3268Y-3.1299
X5.3268Y-3.3425
X5.3268Y-3.3622
X5.3268Y-3.3819
X5.3307Y-2.6693
X5.3307Y-3.1496
X5.3386Y-3.2441
X5.3425Y-2.6142
X5.3425Y-3.1654
X5.3465Y-3.0118
X5.3465Y-3.1181
X5.3465Y-3.3425
X5.3465Y-3.3622
X5.3465Y-3.3819
X5.3465Y-3.9528
X5.3465Y-4.2362
X5.3504Y-3.0984
X5.3504Y-3.9016
X5.3583Y-2.9488
X5.3583Y-3.1457
X5.3583Y-4.4449
X5.3622Y-4.3976
X5.374Y-3.1102
X5.374Y-3.1339
X5.374Y-3.1614
X5.378Y-2.9646
X5.378Y-3.0157
X5.3819Y-2.8976
X5.3858Y-2.7362
X5.3937Y-3.6457
X5.4016Y-2.8858
X5.4173Y-2.5906
X5.4173Y-2.7402
X5.4213Y-3.0433
X5.4213Y-5.0787
X5.4449Y-2.6575
X5.4449Y-2.8898
X5.4449Y-5.1693
X5.4488Y-3.1299
X5.4606Y-3.8504
X5.4803Y-3.3307
X5.4803Y-3.3504
X5.4803Y-3.3701
X5.4921Y-4.3543
X5.4923Y-3.0061
X5.4961Y-2.8583
X5.4961Y-2.878
X5.4961Y-3.1496
X5.4976Y-2.8971
X5.5Y-2.9882
X5.5Y-3.1811
X5.5Y-3.3307
X5.5Y-3.3504
X5.5Y-3.3701
X5.5079Y-2.6811
X5.5118Y-3.626
X5.5118Y-4.4409
X5.5157Y-2.8583
X5.5157Y-2.878
X5.5157Y-2.8976
X5.5157Y-3.0039
X5.5157Y-4.3071
X5.5197Y-3.3307
X5.5197Y-3.3504
X5.5197Y-3.3701
X5.5354Y-2.8583
X5.5354Y-2.878
X5.5354Y-2.8976
X5.5388Y-2.9471
X5.5394Y-3.0984
X5.5394Y-4.2874
X5.5433Y-3.2402
X5.5433Y-4.4488
X5.5472Y-2.622
X5.5551Y-2.9488
X5.5551Y-2.9724
X5.5551Y-3.2126
X5.5591Y-3.0157
X5.563Y-3.1929
X5.5748Y-2.5669
X5.5748Y-2.7205
X5.5748Y-2.7402
X5.5748Y-2.7598
X5.5748Y-2.7795
X5.5748Y-2.7992
X5.5748Y-2.8189
X5.5748Y-2.9921
X5.5945Y-2.6417
X5.5945Y-2.7205
X5.5945Y-2.7402
X5.5945Y-2.7598
X5.5945Y-2.7795
X5.5945Y-2.7992
X5.5945Y-2.8189
X5.5984Y-2.6811
X5.6102Y-2.9921
X5.6102Y-3.0118
X5.6102Y-5.0945
X5.6104Y-4.3714
X5.6104Y-4.3924
X5.6104Y-4.4121
X5.6104Y-4.4318
X5.6106Y-4.3484
X5.6107Y-4.3273
X5.6108Y-4.3067
X5.6142Y-2.7205
X5.6142Y-2.7402
X5.6142Y-2.7598
X5.6142Y-2.7795
X5.6142Y-2.7992
X5.6142Y-2.8189
X5.622Y-3.2008
X5.622Y-3.2205
X5.622Y-3.2402
X5.6299Y-2.9921
X5.6299Y-3.0118
X5.6299Y-3.8701
X5.6339Y-3.6417
X5.6339Y-5.1654
X5.6417Y-3.2008
X5.6417Y-3.2205
X5.6417Y-3.2402
X5.6496Y-2.9921
X5.6496Y-3.0118
X5.6517Y-4.311
X5.6517Y-4.3347
X5.6517Y-4.4134
X5.6595Y-4.3504
X5.6595Y-4.3701
X5.6595Y-4.3937
X5.6614Y-2.6417
X5.6614Y-3.2008
X5.6614Y-3.2205
X5.6614Y-3.2402
X5.6753Y-4.3425
X5.6753Y-4.3622
X5.6753Y-4.3819
X5.6772Y-4.4843
X5.689Y-2.5512
X5.7008Y-2.6929
X5.7165Y-2.7283
X5.7165Y-3.0315
X5.7165Y-3.0512
X5.7165Y-3.0709
X5.7165Y-3.1024
X5.7165Y-3.122
X5.7165Y-3.1417
X5.7165Y-3.1693
X5.7165Y-3.189
X5.7165Y-3.2087
X5.7165Y-4.3228
X5.7205Y-4.4291
X5.7205Y-4.5118
X5.7323Y-4.3465
X5.7323Y-4.3898
X5.7362Y-3.0315
X5.7362Y-3.0512
X5.7362Y-3.0709
X5.7362Y-3.1024
X5.7362Y-3.122
X5.7362Y-3.1417
X5.7362Y-3.1693
X5.7362Y-3.189
X5.7362Y-3.2087
X5.7559Y-3.0315
X5.7559Y-3.0512
X5.7559Y-3.0709
X5.7559Y-3.1024
X5.7559Y-3.122
X5.7559Y-3.1417
X5.7559Y-3.1693
X5.7559Y-3.189
X5.7559Y-3.2087
X5.7598Y-2.6181
X5.7756Y-3.9724
X5.7835Y-3.0984
X5.7913Y-2.5591
X5.8031Y-5.0906
X5.815Y-2.7008
X5.815Y-2.7638
X5.8228Y-2.6614
X5.8268Y-5.1693
X5.8386Y-3.1732
X5.8504Y-3.7992
X5.8543Y-2.9094
X5.8622Y-3.0866
X5.8898Y-3.1929
X5.9016Y-2.7992
X5.9331Y-3.8071
X5.9488Y-3.0984
X5.9488Y-3.2323
X5.9567Y-4.1929
X5.9567Y-4.2165
X5.9724Y-4.1772
X5.9724Y-4.2362
X5.9764Y-4.2047
X5.9803Y-3.2795
X5.9803Y-5.0669
X5.9843Y-3.6142
X5.9921Y-4.1732
X5.9921Y-5.1614
X5.9961Y-4.2165
X5.9961Y-4.2362
X6.0Y-4.1929
X6.0157Y-3.7008
X6.0197Y-4.1732
X6.0197Y-4.1969
X6.0197Y-4.2165
X6.0197Y-4.2362
X6.0315Y-3.437
X6.0433Y-3.6102
X6.0433Y-4.1732
X6.0433Y-4.1969
X6.0433Y-4.2165
X6.0433Y-4.2362
X6.0433Y-4.5079
X6.0472Y-3.3386
X6.0472Y-3.5354
X6.063Y-3.2559
X6.063Y-4.1772
X6.063Y-4.1969
X6.063Y-4.2165
X6.063Y-4.2362
X6.0748Y-3.1575
X6.0787Y-4.4961
X6.0906Y-4.1772
X6.0906Y-4.1969
X6.0906Y-4.2165
X6.0906Y-4.2362
X6.0906Y-4.5118
X6.1063Y-4.4961
X6.1142Y-3.374
X6.1142Y-4.2362
X6.1181Y-4.1772
X6.1181Y-4.1969
X6.1181Y-4.2165
X6.122Y-3.5394
X6.122Y-3.7008
X6.126Y-4.5079
X6.1417Y-3.4252
X6.1417Y-3.6102
X6.1496Y-4.4961
X6.1535Y-4.4724
X6.1535Y-4.5157
X6.1614Y-5.1614
X6.1732Y-4.4724
X6.1732Y-4.4961
X6.1732Y-4.5276
X6.189Y-4.5157
X6.1909Y-3.687
X6.1929Y-4.4724
X6.1969Y-4.4921
X6.2008Y-3.2402
X6.2008Y-3.3465
X6.2008Y-3.5236
X6.2047Y-5.0394
X6.2126Y-3.6654
X6.2441Y-3.4961
X6.248Y-3.6693
X6.2598Y-3.9409
X6.2598Y-3.9843
X6.3071Y-4.3976
X6.311Y-4.3504
X6.311Y-5.1496
X6.315Y-3.9134
X6.3268Y-4.3976
X6.3307Y-4.189
X6.3307Y-4.2126
X6.3307Y-4.4409
X6.3346Y-4.3504
X6.3465Y-4.1732
X6.3465Y-4.2323
X6.3465Y-4.3976
X6.3504Y-4.2008
X6.3543Y-4.437
X6.3622Y-4.378
X6.3622Y-4.4213
X6.3661Y-4.1693
X6.3661Y-4.3583
X6.3661Y-4.3976
X6.3701Y-4.2126
X6.3701Y-4.2323
X6.374Y-4.189
X6.378Y-3.4882
X6.378Y-3.5315
X6.3819Y-3.6614
X6.3937Y-2.9685
X6.3937Y-2.9921
X6.3937Y-4.1693
X6.3937Y-4.1929
X6.3937Y-4.2126
X6.3937Y-4.2323
X6.3967Y-3.0757
X6.4016Y-3.9724
X6.4055Y-3.8858
X6.4173Y-3.0354
X6.4173Y-4.1693
X6.4173Y-4.1929
X6.4173Y-4.2126
X6.4173Y-4.2323
X6.4252Y-2.9488
X6.4252Y-5.063
X6.4291Y-3.0748
X6.4291Y-4.4016
X6.4291Y-4.4252
X6.4331Y-4.378
X6.4334Y-3.0536
X6.437Y-2.9843
X6.437Y-3.8228
X6.437Y-4.1732
X6.437Y-4.1929
X6.437Y-4.2126
X6.437Y-4.2323
X6.4449Y-3.189
X6.4449Y-3.5
X6.4449Y-4.3622
X6.4488Y-3.7717
X6.4528Y-4.4213
X6.4528Y-5.1575
X6.4606Y-3.9331
X6.4646Y-4.1732
X6.4646Y-4.1929
X6.4646Y-4.2126
X6.4646Y-4.2323
X6.4685Y-4.3622
X6.4764Y-3.6535
X6.4803Y-4.4213
X6.4882Y-3.8543
X6.4882Y-4.2323
X6.4882Y-4.4488
X6.4882Y-4.7362
X6.4904Y-3.5928
X6.4921Y-3.0
X6.4921Y-4.1732
X6.4921Y-4.1929
X6.4921Y-4.2126
X6.4921Y-4.3622
X6.4921Y-4.7992
X6.4921Y-4.8583
X6.4921Y-4.9213
X6.5039Y-4.4291
X6.5079Y-2.811
X6.5079Y-3.8307
X6.5118Y-4.3622
X6.5118Y-4.3858
X6.5118Y-4.4094
X6.5118Y-4.5
X6.5276Y-3.9764
X6.5276Y-4.4803
X6.5276Y-4.5079
X6.529Y-3.1393
X6.5315Y-3.5748
X6.5315Y-4.3622
X6.5394Y-3.9449
X6.5433Y-2.5197
X6.5433Y-2.5472
X6.5433Y-3.3937
X6.5433Y-3.7323
X6.5472Y-3.0354
X6.5472Y-3.0906
X6.5512Y-3.0669
X6.5512Y-3.4921
X6.5512Y-4.5197
X6.5512Y-4.5866
X6.5551Y-4.3622
X6.5551Y-4.6339
X6.5591Y-4.2008
X6.5591Y-4.2244
X6.563Y-4.5669
X6.5669Y-2.7953
X6.5669Y-4.6181
X6.5709Y-3.0276
X6.5709Y-4.5433
X6.5709Y-4.5945
X6.5709Y-4.6535
X6.5748Y-2.8386
X6.5748Y-4.185
X6.5748Y-4.2441
X6.5787Y-4.2126
X6.5787Y-4.3622
X6.5827Y-3.0669
X6.5866Y-3.0197
X6.5866Y-3.0472
X6.5906Y-2.9921
X6.5906Y-4.6339
X6.5945Y-4.1811
X6.5945Y-4.5197
X6.5945Y-4.5472
X6.5945Y-4.6102
X6.5984Y-4.2244
X6.5984Y-4.2441
X6.5984Y-4.5748
X6.6024Y-3.0866
X6.6024Y-4.2008
X6.6063Y-3.063
X6.6102Y-2.9685
X6.6102Y-3.0276
X6.6102Y-3.0433
X6.6142Y-2.8425
X6.6181Y-3.0039
X6.6181Y-5.0472
X6.622Y-3.0827
X6.622Y-3.5906
X6.622Y-4.1811
X6.622Y-4.2047
X6.622Y-4.2244
X6.622Y-4.2441
X6.6303Y-2.8597
X6.6339Y-3.063
X6.6378Y-2.9724
X6.6378Y-4.5197
X6.6417Y-3.0472
X6.6457Y-2.9961
X6.6457Y-3.0236
X6.6457Y-3.0866
X6.6457Y-4.1811
X6.6457Y-4.2047
X6.6457Y-4.2244
X6.6457Y-4.2441
X6.6457Y-4.4528
X6.6496Y-2.815
X6.6535Y-4.5039
X6.6614Y-2.9882
X6.6654Y-2.9724
X6.6654Y-3.0354
X6.6654Y-3.0669
X6.6654Y-3.0866
X6.6654Y-4.185
X6.6654Y-4.2047
X6.6654Y-4.2244
X6.6654Y-4.2441
X6.6654Y-4.5197
X6.6693Y-3.0039
X6.6772Y-4.5
X6.689Y-4.5197
X6.6929Y-4.185
X6.6929Y-4.2047
X6.6929Y-4.2244
X6.6929Y-4.2441
X6.7047Y-4.4961
X6.7087Y-3.4882
X6.7087Y-3.5315
X6.7126Y-2.7953
X6.7126Y-2.8189
X6.7165Y-4.2441
X6.7165Y-4.5197
X6.7205Y-4.185
X6.7205Y-4.2047
X6.7205Y-4.2244
X6.7244Y-4.4724
X6.7323Y-2.9685
X6.7323Y-3.8661
X6.7323Y-4.4961
X6.7323Y-5.0433
X6.7362Y-3.9685
X6.7362Y-4.5197
X6.7402Y-3.0394
X6.7441Y-3.9331
X6.7441Y-4.4724
X6.7598Y-3.063
X6.7598Y-4.4961
X6.7677Y-4.5197
X6.7717Y-2.7992
X6.7717Y-2.8228
X6.7717Y-3.1654
X6.7717Y-3.9291
X6.7717Y-4.4724
X6.7835Y-4.5079
X6.7874Y-4.4882
X6.7992Y-3.0512
X6.8346Y-3.0787
X6.8386Y-3.1654
X6.8425Y-4.0039
X6.8465Y-3.9567
X6.8543Y-5.1378
X6.8701Y-3.3386
X6.874Y-3.5039
X6.8998Y-4.3964
X6.9016Y-3.9094
X6.9016Y-4.374
X6.9037Y-4.4397
X6.9076Y-4.3491
X6.9094Y-3.2244
X6.9195Y-4.3964
X6.9273Y-4.4357
X6.9331Y-2.8031
X6.9331Y-4.1929
X6.9331Y-4.2165
X6.9352Y-4.3767
X6.9352Y-4.42
X6.9391Y-4.357
X6.9391Y-4.3964
X6.9449Y-3.9409
X6.9449Y-5.0906
X6.9488Y-4.1772
X6.9488Y-4.2362
X6.9528Y-4.2047
X6.9685Y-2.8425
X6.9685Y-3.0551
X6.9685Y-4.1732
X6.9724Y-4.2165
X6.9724Y-4.2362
X6.9764Y-4.1929
X6.9882Y-2.9213
X6.9961Y-4.1732
X6.9961Y-4.1969
X6.9961Y-4.2165
X6.9961Y-4.2362
X7.0Y-2.7677
X7.0009Y-4.4107
X7.0025Y-4.3873
X7.0193Y-4.4246
X7.0197Y-4.1732
X7.0197Y-4.1969
X7.0197Y-4.2165
X7.0197Y-4.2362
X7.0197Y-4.6142
X7.0207Y-4.3623
X7.0236Y-3.6772
X7.0276Y-4.5354
X7.0354Y-4.748
X7.0394Y-4.1772
X7.0394Y-4.1969
X7.0394Y-4.2165
X7.0394Y-4.2362
X7.0453Y-4.4238
X7.0472Y-4.9213
X7.0501Y-4.3613
X7.0512Y-2.5236
X7.0512Y-2.563
X7.0512Y-4.6417
X7.0538Y-4.5021
X7.0551Y-2.5394
X7.0564Y-4.4736
X7.0569Y-4.4512
X7.0591Y-4.5591
X7.0591Y-4.8425
X7.0669Y-4.1772
X7.0669Y-4.1969
X7.0669Y-4.2165
X7.0669Y-4.2362
X7.0767Y-4.3627
X7.0787Y-4.3867
X7.0792Y-4.4098
X7.0827Y-3.9291
X7.0827Y-4.7126
X7.0866Y-4.9685
X7.0906Y-3.0197
X7.0906Y-3.9606
X7.0906Y-4.2362
X7.0945Y-4.1772
X7.0945Y-4.1969
X7.0945Y-4.2165
X7.1017Y-4.3612
X7.1181Y-5.0551
X7.122Y-4.7638
X7.1262Y-4.3612
X7.1378Y-2.9252
X7.1535Y-3.6693
X7.1693Y-3.9882
X7.1693Y-4.7323
X7.1811Y-5.1654
X7.185Y-2.8189
X7.185Y-4.3937
X7.185Y-4.4685
X7.1969Y-3.9685
X7.1969Y-4.5394
X7.2008Y-4.0787
X7.2047Y-5.063
X7.2165Y-3.3583
X7.2165Y-3.4331
X7.2205Y-3.3976
X7.2205Y-3.4528
X7.2205Y-4.3701
X7.2323Y-4.7008
X7.2362Y-4.7598
X7.2402Y-3.4213
X7.2402Y-3.4528
X7.2441Y-2.7441
X7.2441Y-4.5394
X7.2598Y-3.7165
X7.2717Y-4.7323
X7.2795Y-2.561
X7.2795Y-3.8701
X7.2795Y-4.378
X7.2795Y-5.0953
X7.2815Y-2.5846
X7.2815Y-5.1189
X7.2874Y-2.5374
X7.2874Y-5.0716
X7.2913Y-2.6063
X7.2913Y-4.7717
X7.2913Y-5.1405
X7.2953Y-4.0669
X7.3012Y-2.5177
X7.3012Y-5.052
X7.3071Y-2.624
X7.3071Y-5.1583
X7.315Y-3.6339
X7.3228Y-2.5059
X7.3228Y-5.0401
X7.3307Y-2.6339
X7.3307Y-5.1681
X7.3465Y-2.502
X7.3465Y-5.0362
X7.3563Y-2.6358
X7.3563Y-5.1701
X7.3622Y-3.378
X7.372Y-2.5079
X7.372Y-5.0421
X7.3799Y-2.626
X7.3799Y-5.1602
X7.3937Y-2.5217
X7.3937Y-5.0559
X7.3976Y-2.6102
X7.3976Y-4.185
X7.3976Y-4.2047
X7.3976Y-4.2244
X7.3976Y-4.2402
X7.3976Y-5.1445
X7.4055Y-4.3228
X7.4075Y-2.5413
X7.4075Y-5.0756
X7.4114Y-2.5886
X7.4114Y-5.1228
X7.4134Y-2.565
X7.4134Y-4.2008
X7.4134Y-4.2205
X7.4134Y-5.0992
X7.4173Y-4.185
X7.4173Y-4.3071
X7.4213Y-4.2402
X7.4331Y-4.2087
X7.4331Y-4.2244
X7.437Y-3.2992
X7.437Y-3.9528
X7.437Y-4.185
X7.4409Y-3.8189
X7.4409Y-4.2402
X7.4449Y-4.4016
X7.4488Y-4.1969
X7.4488Y-4.2205
X7.4528Y-4.0433
X7.4685Y-4.2874
X7.4724Y-4.1457
X7.4764Y-4.1654
X7.4961Y-4.1417
X7.5Y-4.0354
X7.5079Y-4.1654
X7.5079Y-4.1929
X7.5118Y-4.2244
X7.5315Y-4.3071
X7.5354Y-4.2244
X7.5394Y-4.1614
X7.5394Y-4.4291
X7.5433Y-4.3346
X7.5433Y-4.3661
X7.5551Y-4.2205
X7.5591Y-4.1614
T2
X6.5886Y-3.2313
X6.6171Y-3.2717
X6.6171Y-3.3573
X6.6886Y-3.3077
X7.1811Y-2.7913
T3
X4.9232Y-4.8504
X4.9232Y-4.876
X4.9232Y-4.9016
X4.9291Y-4.9311
X4.937Y-4.8248
X4.9528Y-4.9508
X4.9626Y-4.8051
X4.9921Y-4.9567
X4.9941Y-4.7992
X5.0236Y-4.8051
X5.0374Y-4.9488
X5.0472Y-4.8248
X5.0531Y-4.9272
X5.061Y-4.8504
X5.061Y-4.876
X5.061Y-4.9016
X5.1535Y-4.8484
X5.1535Y-4.874
X5.1535Y-4.8996
X5.1594Y-4.9291
X5.1673Y-4.8228
X5.1831Y-4.9488
X5.1929Y-4.8031
X5.2224Y-4.9547
X5.2244Y-4.7972
X5.2539Y-4.8031
X5.2677Y-4.9469
X5.2776Y-4.8228
X5.2835Y-4.9252
X5.2913Y-4.8484
X5.2913Y-4.874
X5.2913Y-4.8996
X5.4429Y-4.8484
X5.4429Y-4.874
X5.4429Y-4.8996
X5.4488Y-4.9291
X5.4567Y-4.8228
X5.4724Y-4.9488
X5.4823Y-4.8031
X5.5118Y-4.9547
X5.5138Y-4.7972
X5.5433Y-4.8031
X5.5571Y-4.9469
X5.5669Y-4.8228
X5.5728Y-4.9252
X5.5807Y-4.8484
X5.5807Y-4.874
X5.5807Y-4.8996
X5.6752Y-4.8484
X5.6752Y-4.874
X5.6752Y-4.8996
X5.6811Y-4.9291
X5.689Y-4.8228
X5.7047Y-4.9488
X5.7146Y-4.8031
X5.7441Y-4.9547
X5.7461Y-4.7972
X5.7756Y-3.6043
X5.7756Y-4.8031
X5.7776Y-3.378
X5.7815Y-3.5748
X5.7815Y-3.6358
X5.7835Y-3.3484
X5.7835Y-3.4094
X5.7894Y-4.9469
X5.7992Y-4.8228
X5.8012Y-3.5512
X5.8012Y-3.6614
X5.8031Y-3.3248
X5.8031Y-3.435
X5.8051Y-4.9252
X5.813Y-4.8484
X5.813Y-4.874
X5.813Y-4.8996
X5.8268Y-3.5374
X5.8268Y-3.6752
X5.8287Y-3.311
X5.8287Y-3.4488
X5.8524Y-3.5374
X5.8524Y-3.6752
X5.8543Y-3.311
X5.8543Y-3.4488
X5.878Y-3.5374
X5.878Y-3.6752
X5.8799Y-3.311
X5.8799Y-3.4488
X5.9035Y-3.5453
X5.9055Y-3.3189
X5.9075Y-3.6693
X5.9094Y-3.4429
X5.9252Y-3.561
X5.9272Y-3.3346
X5.9272Y-3.6457
X5.9291Y-3.4193
X5.9331Y-3.6063
X5.935Y-3.3799
X6.002Y-4.8484
X6.002Y-4.874
X6.002Y-4.8996
X6.0079Y-4.9291
X6.0157Y-4.8228
X6.0315Y-4.9488
X6.0413Y-4.8031
X6.0709Y-4.9547
X6.0728Y-4.7972
X6.1024Y-4.8031
X6.1161Y-4.9469
X6.126Y-4.8228
X6.1319Y-4.9252
X6.1398Y-4.8484
X6.1398Y-4.874
X6.1398Y-4.8996
X6.2362Y-4.8484
X6.2362Y-4.874
X6.2362Y-4.8996
X6.2421Y-4.9291
X6.25Y-4.8228
X6.2657Y-4.9488
X6.2756Y-4.8031
X6.3051Y-4.9547
X6.3071Y-4.7972
X6.3366Y-4.8031
X6.3504Y-4.9469
X6.3602Y-4.8228
X6.3661Y-4.9252
X6.374Y-4.8484
X6.374Y-4.874
X6.374Y-4.8996
X6.5846Y-4.8484
X6.5846Y-4.874
X6.5846Y-4.8996
X6.5906Y-4.9291
X6.5984Y-4.8228
X6.6142Y-4.9488
X6.624Y-4.8031
X6.6535Y-4.9547
X6.6555Y-4.7972
X6.685Y-4.8031
X6.6988Y-4.9469
X6.7087Y-4.8228
X6.7146Y-4.9252
X6.7224Y-4.8484
X6.7224Y-4.874
X6.7224Y-4.8996
X6.8189Y-4.8484
X6.8189Y-4.874
X6.8189Y-4.8996
X6.8248Y-4.9291
X6.8327Y-4.8228
X6.8484Y-4.9488
X6.8583Y-4.8031
X6.8878Y-4.9547
X6.8898Y-4.7972
X6.9193Y-4.8031
X6.9331Y-4.9469
X6.9429Y-4.8228
X6.9488Y-4.9252
X6.9567Y-4.8484
X6.9567Y-4.874
X6.9567Y-4.8996
X7.1358Y-4.8504
X7.1358Y-4.876
X7.1358Y-4.9016
X7.1417Y-4.9311
X7.1496Y-4.8248
X7.1654Y-4.9508
X7.1752Y-4.8051
X7.2047Y-4.9567
X7.2067Y-4.7992
X7.2362Y-4.8051
X7.25Y-4.9488
X7.2598Y-4.8248
X7.2657Y-4.9272
X7.2736Y-4.8504
X7.2736Y-4.876
X7.2736Y-4.9016
X7.3701Y-4.8484
X7.3701Y-4.874
X7.3701Y-4.8996
X7.376Y-4.9291
X7.3839Y-4.8228
X7.3996Y-4.9488
X7.4094Y-4.8031
X7.439Y-4.9547
X7.4409Y-4.7972
X7.4705Y-4.8031
X7.4843Y-4.9469
X7.4941Y-4.8228
X7.5Y-4.9252
X7.5079Y-4.8484
X7.5079Y-4.874
X7.5079Y-4.8996
T5
X7.3701Y-2.7165
X7.3701Y-2.7665
X7.3701Y-2.8165
X7.3701Y-2.8665
X7.3701Y-2.9165
X7.3701Y-2.9665
X7.3701Y-3.0165
X7.3701Y-3.0665
X7.3701Y-3.1165
X7.3701Y-3.1665
X7.3701Y-3.2165
X7.4567Y-2.7165
X7.4567Y-2.7665
X7.4567Y-2.8165
X7.4567Y-2.8665
X7.4567Y-2.9165
X7.4567Y-2.9665
X7.4567Y-3.0165
X7.4567Y-3.0665
X7.4567Y-3.1165
X7.4567Y-3.1665
X7.4567Y-3.2165
X7.5354Y-3.5138
X7.5354Y-3.5638
X7.5354Y-3.6138
X7.5354Y-3.6638
X7.5354Y-3.7138
X7.5354Y-3.7638
X7.5354Y-3.8138
X7.5433Y-2.7165
X7.5433Y-2.7665
X7.5433Y-2.8165
X7.5433Y-2.8665
X7.5433Y-2.9165
X7.5433Y-2.9665
X7.5433Y-3.0165
X7.5433Y-3.0665
X7.5433Y-3.1165
X7.5433Y-3.1665
X7.5433Y-3.2165
T6
X7.3789Y-3.5354
X7.3789Y-3.6354
X7.3789Y-3.7354
X7.3789Y-3.8354
T8
X4.9291Y-2.5787
X4.9291Y-5.113
X7.3465Y-2.5689
X7.3465Y-5.1031
T4
G00X4.8278Y-2.7669
M15
G01X4.7963Y-2.7669
M16
G05
G00X4.8278Y-3.1071
M15
G01X4.7963Y-3.1071
M16
G05
G00X4.999Y-2.7669
M15
G01X4.9557Y-2.7669
M16
G05
G00X4.999Y-3.1071
M15
G01X4.9557Y-3.1071
M16
G05
T7
G00X4.9921Y-4.8602
M15
G01X4.9921Y-4.8996
M16
G05
G00X5.2224Y-4.8583
M15
G01X5.2224Y-4.8976
M16
G05
G00X5.5118Y-4.8583
M15
G01X5.5118Y-4.8976
M16
G05
G00X5.7441Y-4.8583
M15
G01X5.7441Y-4.8976
M16
G05
G00X5.8366Y-3.6063
M15
G01X5.876Y-3.6063
M16
G05
G00X5.8386Y-3.3799
M15
G01X5.878Y-3.3799
M16
G05
G00X6.0709Y-4.8583
M15
G01X6.0709Y-4.8976
M16
G05
G00X6.3051Y-4.8583
M15
G01X6.3051Y-4.8976
M16
G05
G00X6.6535Y-4.8583
M15
G01X6.6535Y-4.8976
M16
G05
G00X6.8878Y-4.8583
M15
G01X6.8878Y-4.8976
M16
G05
G00X7.2047Y-4.8602
M15
G01X7.2047Y-4.8996
M16
G05
G00X7.439Y-4.8583
M15
G01X7.439Y-4.8976
M16
G05
M30
