M48
; DRILL file {KiCad 9.0.0} date 2025-08-18T13:42:09+0300
; FORMAT={-:-/ absolute / metric / decimal}
; #@! TF.CreationDate,2025-08-18T13:42:09+03:00
; #@! TF.GenerationSoftware,Kicad,Pcbnew,9.0.0
; #@! TF.FileFunction,Plated,1,4,PTH
FMAT,2
METRIC
; #@! TA.AperFunction,Plated,PTH,ViaDrill
T1C0.200
; #@! TA.AperFunction,Plated,PTH,ComponentDrill
T2C0.600
; #@! TA.AperFunction,Plated,PTH,ComponentDrill
T3C0.650
; #@! TA.AperFunction,Plated,PTH,ComponentDrill
T4C1.000
; #@! TA.AperFunction,Plated,PTH,ComponentDrill
T5C2.000
; #@! TA.AperFunction,Plated,PTH,ComponentDrill
T6C2.500
%
G90
G05
T1
X121.2Y-111.1
X121.2Y-113.1
X121.3Y-94.2
X121.4Y-67.3
X121.5Y-96.1
X121.6Y-85.9
X121.8Y-110.9
X121.8Y-122.0
X121.8Y-125.4
X121.9Y-69.2
X121.9Y-81.0
X121.9Y-92.4
X122.2Y-72.9
X122.2Y-83.4
X122.2Y-97.3
X122.3Y-100.2
X122.4Y-124.3
X122.6Y-88.1
X122.7Y-89.4
X122.9Y-91.4
X123.0Y-74.3
X123.1Y-86.1
X123.1Y-87.7
X123.1Y-111.0
X123.2Y-67.2
X123.2Y-80.0
X123.3Y-77.2
X123.3Y-97.9
X123.4Y-99.5
X123.4Y-100.8
X123.4Y-127.6
X123.6Y-69.1
X123.7Y-120.7
X123.9Y-89.9
X124.1Y-110.6
X124.2Y-91.2
X124.2Y-109.2
X124.3Y-71.8
X124.3Y-96.2
X124.4Y-73.2
X124.4Y-84.4
X124.4Y-84.9
X124.4Y-85.4
X124.4Y-100.2
X124.4Y-112.6
X124.5Y-76.1
X124.7Y-70.4
X124.7Y-78.3
X124.9Y-84.4
X124.9Y-84.9
X124.9Y-85.4
X125.0Y-75.3
X125.01Y-122.739
X125.01Y-123.489
X125.01Y-124.239
X125.01Y-124.989
X125.1Y-74.2
X125.3Y-108.8
X125.4Y-84.4
X125.4Y-84.9
X125.4Y-85.4
X125.51Y-122.239
X125.51Y-125.739
X125.8Y-90.3
X125.8Y-102.1
X125.9Y-69.2
X126.0Y-76.3
X126.0Y-96.5
X126.1Y-73.4
X126.2Y-68.2
X126.2Y-92.0
X126.26Y-121.989
X126.26Y-125.989
X126.4Y-84.9
X126.4Y-85.4
X126.4Y-85.9
X126.8Y-95.4
X126.9Y-65.4
X126.9Y-84.9
X126.9Y-85.4
X126.9Y-85.9
X126.9Y-93.8
X126.926Y-110.853
X126.926Y-111.388
X126.926Y-111.888
X126.926Y-112.388
X126.932Y-110.27
X126.935Y-109.734
X126.937Y-109.21
X127.0Y-81.8
X127.0Y-82.3
X127.0Y-82.8
X127.1Y-90.3
X127.26Y-121.989
X127.26Y-125.989
X127.3Y-93.1
X127.3Y-115.2
X127.4Y-84.9
X127.4Y-85.4
X127.4Y-85.9
X127.5Y-81.8
X127.5Y-82.3
X127.5Y-82.8
X127.7Y-67.1
X127.8Y-79.6
X127.8Y-97.9
X127.8Y-101.2
X127.9Y-78.4
X127.9Y-95.1
X128.0Y-81.8
X128.0Y-82.3
X128.0Y-82.8
X128.0Y-93.2
X128.0Y-109.4
X128.0Y-110.0
X128.0Y-112.0
X128.01Y-122.239
X128.01Y-125.739
X128.1Y-65.3
X128.2Y-80.4
X128.2Y-110.4
X128.2Y-110.9
X128.2Y-111.5
X128.3Y-68.9
X128.3Y-70.5
X128.3Y-99.8
X128.4Y-92.1
X128.51Y-122.739
X128.51Y-123.489
X128.51Y-124.239
X128.51Y-124.989
X128.6Y-110.2
X128.6Y-110.7
X128.6Y-111.2
X128.7Y-67.2
X128.7Y-84.9
X128.7Y-85.4
X128.7Y-85.9
X128.8Y-78.0
X128.8Y-90.6
X128.9Y-71.0
X129.1Y-64.6
X129.1Y-69.5
X129.2Y-84.9
X129.2Y-85.4
X129.2Y-85.9
X129.3Y-112.5
X129.3Y-129.7
X129.4Y-66.3
X129.4Y-118.5
X129.6Y-111.9
X129.7Y-76.7
X129.7Y-80.4
X129.7Y-84.9
X129.7Y-85.4
X129.7Y-85.9
X129.8Y-112.8
X129.9Y-110.1
X130.008Y-110.639
X130.2Y-107.5
X130.3Y-64.4
X130.3Y-97.9
X130.4Y-69.0
X130.4Y-80.4
X130.876Y-122.676
X130.876Y-123.426
X130.876Y-124.176
X130.876Y-124.926
X131.1Y-77.4
X131.376Y-122.176
X131.376Y-125.676
X131.6Y-78.5
X131.7Y-69.0
X131.8Y-80.4
X132.1Y-84.9
X132.1Y-85.4
X132.1Y-85.9
X132.126Y-121.926
X132.126Y-125.926
X132.3Y-108.2
X132.5Y-68.3
X132.5Y-129.6
X132.6Y-66.5
X132.6Y-80.9
X132.6Y-84.9
X132.6Y-85.4
X132.6Y-85.9
X132.7Y-80.3
X132.7Y-111.9
X132.8Y-78.9
X133.0Y-65.0
X133.0Y-110.1
X133.1Y-84.9
X133.1Y-85.4
X133.1Y-85.9
X133.1Y-114.0
X133.126Y-121.926
X133.126Y-125.926
X133.3Y-81.0
X133.3Y-99.0
X133.5Y-67.5
X133.7Y-92.7
X133.7Y-131.7
X133.876Y-122.176
X133.876Y-125.676
X134.0Y-76.5
X134.1Y-82.2
X134.3Y-66.9
X134.3Y-70.2
X134.3Y-70.7
X134.3Y-71.2
X134.3Y-71.7
X134.3Y-72.2
X134.3Y-72.7
X134.3Y-73.2
X134.3Y-73.7
X134.3Y-74.2
X134.3Y-74.7
X134.3Y-75.2
X134.3Y-78.1
X134.3Y-78.7
X134.3Y-79.2
X134.3Y-79.8
X134.3Y-80.3
X134.376Y-122.676
X134.376Y-123.426
X134.376Y-124.176
X134.376Y-124.926
X134.7Y-76.5
X134.7Y-82.2
X134.8Y-70.2
X134.8Y-70.7
X134.8Y-71.2
X134.8Y-71.7
X134.8Y-72.2
X134.8Y-72.7
X134.8Y-73.2
X134.8Y-73.7
X134.8Y-74.2
X134.8Y-74.7
X134.8Y-75.2
X134.8Y-80.3
X134.8Y-84.9
X134.8Y-85.4
X134.8Y-85.9
X134.8Y-101.8
X134.8Y-107.9
X134.9Y-79.1
X134.9Y-105.8
X135.0Y-78.4
X135.0Y-114.0
X135.1Y-92.5
X135.3Y-64.9
X135.3Y-78.8
X135.3Y-79.5
X135.3Y-84.9
X135.3Y-85.4
X135.3Y-85.9
X135.4Y-67.8
X135.4Y-80.0
X135.6Y-82.4
X135.7Y-66.4
X135.7Y-80.4
X135.8Y-76.5
X135.8Y-79.2
X135.8Y-84.9
X135.8Y-85.4
X135.8Y-85.9
X135.8Y-100.4
X135.8Y-107.6
X135.9Y-78.7
X135.9Y-99.1
X136.1Y-74.9
X136.1Y-79.9
X136.1Y-112.9
X136.2Y-111.7
X136.5Y-79.0
X136.5Y-79.6
X136.5Y-80.3
X136.6Y-75.3
X136.6Y-76.6
X136.7Y-73.6
X136.8Y-69.5
X137.0Y-92.6
X137.2Y-73.3
X137.6Y-65.8
X137.6Y-69.6
X137.7Y-77.3
X137.7Y-129.0
X138.219Y-122.66
X138.219Y-123.41
X138.219Y-124.16
X138.219Y-124.91
X138.3Y-67.5
X138.3Y-73.4
X138.3Y-131.3
X138.4Y-79.5
X138.7Y-97.8
X138.719Y-122.16
X138.719Y-125.66
X139.2Y-84.6
X139.2Y-85.1
X139.2Y-85.6
X139.469Y-121.91
X139.469Y-125.91
X139.5Y-110.6
X139.504Y-76.355
X139.6Y-72.6
X139.6Y-73.1
X139.6Y-80.0
X139.638Y-73.585
X139.7Y-75.9
X139.7Y-80.8
X139.7Y-84.6
X139.7Y-85.1
X139.7Y-85.6
X139.9Y-68.1
X140.0Y-92.1
X140.0Y-112.8
X140.1Y-72.6
X140.1Y-73.1
X140.1Y-73.6
X140.1Y-76.3
X140.1Y-109.4
X140.2Y-84.6
X140.2Y-85.1
X140.2Y-85.6
X140.469Y-121.91
X140.469Y-125.91
X140.6Y-72.6
X140.6Y-73.1
X140.6Y-73.6
X140.686Y-74.857
X140.7Y-78.7
X140.7Y-108.9
X140.8Y-82.3
X140.8Y-113.0
X140.9Y-66.6
X141.1Y-74.9
X141.1Y-75.5
X141.1Y-81.6
X141.2Y-76.6
X141.219Y-122.16
X141.219Y-125.66
X141.3Y-81.1
X141.6Y-65.2
X141.6Y-69.1
X141.6Y-69.6
X141.6Y-70.1
X141.6Y-70.6
X141.6Y-71.1
X141.6Y-71.6
X141.6Y-76.0
X141.719Y-122.66
X141.719Y-123.41
X141.719Y-124.16
X141.719Y-124.91
X142.1Y-67.1
X142.1Y-69.1
X142.1Y-69.6
X142.1Y-70.1
X142.1Y-70.6
X142.1Y-71.1
X142.1Y-71.6
X142.2Y-68.1
X142.5Y-76.0
X142.5Y-76.5
X142.5Y-129.4
X142.503Y-111.033
X142.503Y-111.568
X142.503Y-112.068
X142.503Y-112.568
X142.509Y-110.449
X142.512Y-109.914
X142.514Y-109.389
X142.6Y-69.1
X142.6Y-69.6
X142.6Y-70.1
X142.6Y-70.6
X142.6Y-71.1
X142.6Y-71.6
X142.8Y-81.3
X142.8Y-81.8
X142.8Y-82.3
X143.0Y-76.0
X143.0Y-76.5
X143.0Y-98.3
X143.1Y-92.5
X143.1Y-131.2
X143.3Y-81.3
X143.3Y-81.8
X143.3Y-82.3
X143.5Y-76.0
X143.5Y-76.5
X143.552Y-109.501
X143.552Y-110.101
X143.552Y-112.101
X143.752Y-110.501
X143.752Y-111.001
X143.752Y-111.601
X143.8Y-67.1
X143.8Y-81.3
X143.8Y-81.8
X143.8Y-82.3
X144.124Y-122.66
X144.124Y-123.41
X144.124Y-124.16
X144.124Y-124.91
X144.152Y-110.301
X144.152Y-110.801
X144.152Y-111.301
X144.2Y-113.9
X144.5Y-64.8
X144.624Y-122.16
X144.624Y-125.66
X144.8Y-68.4
X145.2Y-69.3
X145.2Y-77.0
X145.2Y-77.5
X145.2Y-78.0
X145.2Y-78.8
X145.2Y-79.3
X145.2Y-79.8
X145.2Y-80.5
X145.2Y-81.0
X145.2Y-81.5
X145.2Y-109.8
X145.3Y-112.5
X145.3Y-114.6
X145.374Y-121.91
X145.374Y-125.91
X145.6Y-110.4
X145.6Y-111.5
X145.7Y-77.0
X145.7Y-77.5
X145.7Y-78.0
X145.7Y-78.8
X145.7Y-79.3
X145.7Y-79.8
X145.7Y-80.5
X145.7Y-81.0
X145.7Y-81.5
X146.2Y-77.0
X146.2Y-77.5
X146.2Y-78.0
X146.2Y-78.8
X146.2Y-79.3
X146.2Y-79.8
X146.2Y-80.5
X146.2Y-81.0
X146.2Y-81.5
X146.3Y-66.5
X146.374Y-121.91
X146.374Y-125.91
X146.7Y-100.9
X146.742Y-91.209
X146.742Y-92.209
X146.75Y-85.3
X146.75Y-86.3
X146.9Y-78.7
X146.992Y-90.459
X146.992Y-92.959
X147.0Y-84.55
X147.0Y-87.05
X147.1Y-65.0
X147.124Y-122.16
X147.124Y-125.66
X147.4Y-129.3
X147.624Y-122.66
X147.624Y-123.41
X147.624Y-124.16
X147.624Y-124.91
X147.7Y-68.6
X147.7Y-70.2
X147.742Y-89.959
X147.742Y-93.459
X147.75Y-84.05
X147.75Y-87.55
X147.9Y-67.6
X148.0Y-131.3
X148.3Y-80.6
X148.492Y-89.959
X148.492Y-93.459
X148.5Y-84.05
X148.5Y-87.55
X148.6Y-96.5
X148.7Y-73.9
X148.9Y-78.4
X149.242Y-89.959
X149.242Y-93.459
X149.25Y-84.05
X149.25Y-87.55
X149.6Y-81.1
X149.9Y-71.1
X149.992Y-89.959
X149.992Y-93.459
X150.0Y-84.05
X150.0Y-87.55
X150.492Y-90.459
X150.492Y-92.959
X150.5Y-84.55
X150.5Y-87.05
X150.7Y-96.7
X150.742Y-91.209
X150.742Y-92.209
X150.75Y-85.3
X150.75Y-86.3
X151.1Y-78.7
X151.1Y-82.1
X151.3Y-106.5
X151.3Y-107.1
X151.7Y-106.1
X151.7Y-107.6
X151.8Y-106.8
X151.9Y-83.3
X151.9Y-128.7
X152.0Y-91.8
X152.2Y-106.0
X152.2Y-131.1
X152.3Y-107.1
X152.3Y-107.6
X152.4Y-106.5
X152.463Y-122.66
X152.463Y-123.41
X152.463Y-124.16
X152.463Y-124.91
X152.8Y-94.0
X152.9Y-106.0
X152.9Y-106.6
X152.9Y-107.1
X152.9Y-107.6
X152.963Y-122.16
X152.963Y-125.66
X153.2Y-87.3
X153.5Y-91.7
X153.5Y-106.0
X153.5Y-106.6
X153.5Y-107.1
X153.5Y-107.6
X153.5Y-114.5
X153.6Y-84.8
X153.6Y-89.8
X153.713Y-121.91
X153.713Y-125.91
X154.0Y-82.7
X154.0Y-106.1
X154.0Y-106.6
X154.0Y-107.1
X154.0Y-107.6
X154.3Y-80.2
X154.4Y-114.2
X154.7Y-106.1
X154.7Y-106.6
X154.7Y-107.1
X154.7Y-107.6
X154.7Y-114.6
X154.713Y-121.91
X154.713Y-125.91
X155.1Y-114.2
X155.3Y-85.7
X155.3Y-107.6
X155.4Y-106.1
X155.4Y-106.6
X155.4Y-107.1
X155.463Y-122.16
X155.463Y-125.66
X155.5Y-89.9
X155.5Y-94.0
X155.6Y-114.5
X155.963Y-122.66
X155.963Y-123.41
X155.963Y-124.16
X155.963Y-124.91
X156.0Y-87.0
X156.0Y-91.7
X156.2Y-114.2
X156.3Y-113.6
X156.3Y-114.7
X156.5Y-131.1
X156.8Y-113.6
X156.8Y-114.2
X156.8Y-115.0
X157.2Y-114.7
X157.25Y-93.65
X157.3Y-113.6
X157.4Y-114.1
X157.5Y-82.3
X157.5Y-85.0
X157.5Y-89.5
X157.6Y-128.0
X157.8Y-93.1
X158.345Y-122.66
X158.345Y-123.41
X158.345Y-124.16
X158.345Y-124.91
X158.6Y-88.8
X158.7Y-93.2
X158.845Y-122.16
X158.845Y-125.66
X159.0Y-100.1
X159.0Y-101.2
X159.595Y-121.91
X159.595Y-125.91
X160.2Y-111.7
X160.3Y-110.5
X160.3Y-130.8
X160.4Y-99.4
X160.595Y-121.91
X160.595Y-125.91
X160.7Y-111.7
X160.8Y-106.4
X160.8Y-107.0
X160.8Y-112.8
X160.9Y-110.5
X161.2Y-106.0
X161.2Y-107.5
X161.2Y-111.7
X161.3Y-106.7
X161.345Y-122.16
X161.345Y-125.66
X161.4Y-112.7
X161.6Y-111.2
X161.6Y-112.3
X161.7Y-105.9
X161.7Y-110.7
X161.7Y-111.7
X161.8Y-107.0
X161.8Y-107.5
X161.845Y-122.66
X161.845Y-123.41
X161.845Y-124.16
X161.845Y-124.91
X161.9Y-106.4
X162.0Y-88.6
X162.0Y-89.7
X162.1Y-93.0
X162.4Y-75.4
X162.4Y-76.0
X162.4Y-105.9
X162.4Y-106.5
X162.4Y-107.0
X162.4Y-107.5
X162.477Y-78.123
X162.6Y-100.9
X162.7Y-98.7
X163.0Y-77.1
X163.0Y-105.9
X163.0Y-106.5
X163.0Y-107.0
X163.0Y-107.5
X163.2Y-74.9
X163.2Y-128.6
X163.3Y-78.1
X163.3Y-111.8
X163.3Y-112.4
X163.4Y-111.2
X163.408Y-77.561
X163.5Y-75.8
X163.5Y-97.1
X163.5Y-106.0
X163.5Y-106.5
X163.5Y-107.0
X163.5Y-107.5
X163.7Y-81.0
X163.7Y-88.9
X163.7Y-110.8
X163.8Y-95.8
X163.9Y-112.3
X163.9Y-131.0
X164.1Y-99.9
X164.2Y-106.0
X164.2Y-106.5
X164.2Y-107.0
X164.2Y-107.5
X164.3Y-110.8
X164.5Y-92.8
X164.6Y-112.3
X164.8Y-97.9
X164.8Y-107.5
X164.8Y-113.0
X164.8Y-120.3
X164.857Y-91.257
X164.9Y-76.2
X164.9Y-106.0
X164.9Y-106.5
X164.9Y-107.0
X164.9Y-110.8
X164.9Y-121.9
X164.9Y-123.4
X164.9Y-125.0
X165.2Y-112.5
X165.3Y-71.4
X165.3Y-97.3
X165.4Y-110.8
X165.4Y-111.4
X165.4Y-112.0
X165.4Y-114.3
X165.8Y-101.0
X165.8Y-113.8
X165.8Y-114.5
X165.838Y-79.737
X165.9Y-90.8
X165.9Y-110.8
X166.1Y-100.2
X166.2Y-64.0
X166.2Y-64.7
X166.2Y-86.2
X166.2Y-94.8
X166.3Y-77.1
X166.3Y-78.5
X166.4Y-77.9
X166.4Y-88.7
X166.4Y-114.8
X166.4Y-116.5
X166.5Y-110.8
X166.5Y-117.7
X166.6Y-106.7
X166.6Y-107.3
X166.7Y-116.0
X166.8Y-71.0
X166.8Y-117.3
X166.9Y-76.9
X166.9Y-115.4
X166.9Y-116.7
X166.9Y-118.2
X167.0Y-72.1
X167.0Y-106.3
X167.0Y-107.8
X167.1Y-107.0
X167.1Y-110.8
X167.2Y-77.9
X167.221Y-122.618
X167.221Y-123.368
X167.221Y-124.118
X167.221Y-124.868
X167.3Y-76.7
X167.3Y-77.4
X167.35Y-82.075
X167.4Y-76.0
X167.4Y-117.7
X167.5Y-106.2
X167.5Y-114.8
X167.5Y-115.5
X167.5Y-117.1
X167.6Y-107.3
X167.6Y-107.8
X167.6Y-116.2
X167.7Y-78.4
X167.7Y-106.7
X167.721Y-122.118
X167.721Y-125.618
X167.8Y-77.8
X167.9Y-75.4
X167.9Y-76.9
X167.9Y-77.3
X168.0Y-72.2
X168.075Y-83.1
X168.075Y-85.275
X168.1Y-76.3
X168.1Y-128.2
X168.2Y-78.3
X168.2Y-91.2
X168.2Y-106.2
X168.2Y-106.8
X168.2Y-107.3
X168.2Y-107.8
X168.41Y-72.637
X168.471Y-121.868
X168.471Y-125.868
X168.5Y-77.8
X168.6Y-75.5
X168.6Y-114.8
X168.7Y-77.4
X168.8Y-76.1
X168.8Y-76.8
X168.8Y-78.4
X168.8Y-106.2
X168.8Y-106.8
X168.8Y-107.3
X168.8Y-107.8
X168.8Y-113.1
X168.9Y-71.5
X169.0Y-114.4
X169.2Y-75.9
X169.3Y-75.5
X169.3Y-77.1
X169.3Y-77.9
X169.3Y-78.4
X169.3Y-106.3
X169.3Y-106.8
X169.3Y-107.3
X169.3Y-107.8
X169.3Y-114.8
X169.4Y-76.3
X169.471Y-121.868
X169.471Y-125.868
X169.6Y-114.3
X169.89Y-84.015
X169.9Y-114.8
X170.0Y-106.3
X170.0Y-106.8
X170.0Y-107.3
X170.0Y-107.8
X170.221Y-122.118
X170.221Y-125.618
X170.3Y-114.2
X170.4Y-88.6
X170.4Y-89.7
X170.5Y-71.0
X170.5Y-71.6
X170.6Y-107.8
X170.6Y-114.8
X170.7Y-106.3
X170.7Y-106.8
X170.7Y-107.3
X170.721Y-122.618
X170.721Y-123.368
X170.721Y-124.118
X170.721Y-124.868
X170.8Y-113.6
X171.0Y-75.4
X171.0Y-98.2
X171.0Y-114.2
X171.0Y-128.1
X171.1Y-100.8
X171.1Y-114.8
X171.2Y-77.2
X171.3Y-99.9
X171.3Y-113.6
X171.7Y-77.8
X171.7Y-114.2
X171.9Y-114.8
X172.0Y-71.1
X172.0Y-71.7
X172.0Y-80.4
X172.0Y-99.8
X172.0Y-113.6
X172.3Y-114.5
X172.4Y-114.0
X172.7Y-77.5
X173.181Y-122.607
X173.181Y-123.357
X173.181Y-124.107
X173.181Y-124.857
X173.6Y-78.2
X173.681Y-122.107
X173.681Y-125.607
X173.7Y-80.4
X173.8Y-101.7
X173.9Y-100.5
X174.1Y-130.5
X174.431Y-121.857
X174.431Y-125.857
X174.5Y-84.8
X174.6Y-89.0
X175.254Y-111.668
X175.3Y-99.3
X175.3Y-111.1
X175.354Y-112.768
X175.431Y-121.857
X175.431Y-125.857
X175.454Y-110.468
X175.5Y-81.9
X175.754Y-111.668
X175.954Y-112.668
X176.1Y-71.2
X176.1Y-106.5
X176.1Y-107.1
X176.154Y-111.168
X176.154Y-112.268
X176.181Y-122.107
X176.181Y-125.607
X176.254Y-110.668
X176.254Y-111.668
X176.4Y-100.1
X176.4Y-129.3
X176.5Y-106.1
X176.5Y-107.6
X176.6Y-106.8
X176.681Y-122.607
X176.681Y-123.357
X176.681Y-124.107
X176.681Y-124.857
X177.0Y-72.2
X177.0Y-77.6
X177.0Y-106.0
X177.1Y-107.1
X177.1Y-107.6
X177.2Y-106.5
X177.5Y-74.2
X177.7Y-106.0
X177.7Y-106.6
X177.7Y-107.1
X177.7Y-107.6
X177.8Y-70.3
X177.822Y-112.033
X177.864Y-111.439
X178.29Y-112.386
X178.3Y-106.0
X178.3Y-106.6
X178.3Y-107.1
X178.3Y-107.6
X178.3Y-117.2
X178.325Y-110.803
X178.4Y-93.4
X178.5Y-115.2
X178.7Y-120.6
X178.8Y-106.1
X178.8Y-106.6
X178.8Y-107.1
X178.8Y-107.6
X178.951Y-112.365
X179.0Y-125.0
X179.073Y-110.778
X179.1Y-64.1
X179.1Y-65.1
X179.1Y-117.9
X179.167Y-114.353
X179.2Y-64.5
X179.234Y-113.63
X179.244Y-113.06
X179.3Y-115.8
X179.3Y-123.0
X179.5Y-106.1
X179.5Y-106.6
X179.5Y-107.1
X179.5Y-107.6
X179.748Y-110.813
X179.8Y-111.421
X179.81Y-112.008
X179.9Y-99.8
X179.9Y-119.7
X180.0Y-126.2
X180.1Y-76.7
X180.1Y-100.6
X180.1Y-107.6
X180.2Y-106.1
X180.2Y-106.6
X180.2Y-107.1
X180.384Y-110.775
X180.8Y-128.4
X180.9Y-121.0
X181.006Y-110.775
X181.234Y-122.728
X181.234Y-123.478
X181.234Y-124.228
X181.234Y-124.978
X181.3Y-74.3
X181.7Y-93.2
X181.734Y-122.228
X181.734Y-125.728
X182.1Y-101.3
X182.1Y-120.2
X182.4Y-70.9
X182.4Y-131.2
X182.484Y-121.978
X182.484Y-125.978
X182.5Y-71.6
X182.5Y-111.6
X182.5Y-113.5
X182.8Y-100.8
X182.8Y-115.3
X182.9Y-103.6
X183.0Y-128.6
X183.3Y-85.3
X183.3Y-87.2
X183.4Y-86.3
X183.4Y-87.7
X183.4Y-111.0
X183.484Y-121.978
X183.484Y-125.978
X183.7Y-119.4
X183.8Y-120.9
X183.9Y-86.9
X183.9Y-87.7
X184.0Y-69.7
X184.0Y-115.3
X184.234Y-122.228
X184.234Y-125.728
X184.4Y-94.4
X184.7Y-120.2
X184.734Y-122.728
X184.734Y-123.478
X184.734Y-124.228
X184.734Y-124.978
X184.9Y-98.3
X184.9Y-111.2
X185.2Y-121.2
X185.3Y-103.3
X185.8Y-92.3
X187.0Y-85.8
X187.178Y-122.613
X187.178Y-123.363
X187.178Y-124.113
X187.178Y-124.863
X187.678Y-122.113
X187.678Y-125.613
X187.9Y-106.3
X187.9Y-106.8
X187.9Y-107.3
X187.9Y-107.7
X188.1Y-109.8
X188.3Y-106.7
X188.3Y-107.2
X188.4Y-106.3
X188.4Y-109.4
X188.428Y-121.863
X188.428Y-125.863
X188.5Y-107.7
X188.8Y-106.9
X188.8Y-107.3
X188.9Y-83.8
X188.9Y-100.4
X188.9Y-106.3
X189.0Y-97.0
X189.0Y-107.7
X189.1Y-111.8
X189.2Y-106.6
X189.2Y-107.2
X189.3Y-102.7
X189.428Y-121.863
X189.428Y-125.863
X189.7Y-108.9
X189.8Y-105.3
X189.9Y-105.8
X190.178Y-122.113
X190.178Y-125.613
X190.4Y-105.2
X190.5Y-102.5
X190.678Y-122.613
X190.678Y-123.363
X190.678Y-124.113
X190.678Y-124.863
X190.7Y-105.8
X190.7Y-106.5
X190.8Y-107.3
X191.3Y-109.4
X191.4Y-107.3
X191.5Y-105.7
X191.5Y-112.5
X191.6Y-110.1
X191.6Y-110.9
X191.9Y-107.2
X192.0Y-105.7
T3
X187.2Y-69.0
X187.2Y-70.27
X187.2Y-71.54
X187.2Y-72.81
X187.2Y-74.08
X187.2Y-75.35
X187.2Y-76.62
X187.2Y-77.89
X187.2Y-79.16
X187.2Y-80.43
X187.2Y-81.7
X189.4Y-69.0
X189.4Y-70.27
X189.4Y-71.54
X189.4Y-72.81
X189.4Y-74.08
X189.4Y-75.35
X189.4Y-76.62
X189.4Y-77.89
X189.4Y-79.16
X189.4Y-80.43
X189.4Y-81.7
X191.4Y-89.25
X191.4Y-90.52
X191.4Y-91.79
X191.4Y-93.06
X191.4Y-94.33
X191.4Y-95.6
X191.4Y-96.87
X191.6Y-69.0
X191.6Y-70.27
X191.6Y-71.54
X191.6Y-72.81
X191.6Y-74.08
X191.6Y-75.35
X191.6Y-76.62
X191.6Y-77.89
X191.6Y-79.16
X191.6Y-80.43
X191.6Y-81.7
T4
X187.425Y-89.8
X187.425Y-92.34
X187.425Y-94.88
X187.425Y-97.42
T6
X125.2Y-65.5
X125.2Y-129.87
X186.6Y-65.25
X186.6Y-129.62
T2
G00X122.625Y-70.28
M15
G01X121.825Y-70.28
M16
G05
G00X122.625Y-78.92
M15
G01X121.825Y-78.92
M16
G05
G00X126.975Y-70.28
M15
G01X125.875Y-70.28
M16
G05
G00X126.975Y-78.92
M15
G01X125.875Y-78.92
M16
G05
T5
G00X126.8Y-123.45
M15
G01X126.8Y-124.45
M16
G05
G00X132.65Y-123.4
M15
G01X132.65Y-124.4
M16
G05
G00X140.0Y-123.4
M15
G01X140.0Y-124.4
M16
G05
G00X145.9Y-123.4
M15
G01X145.9Y-124.4
M16
G05
G00X148.25Y-91.6
M15
G01X149.25Y-91.6
M16
G05
G00X148.3Y-85.85
M15
G01X149.3Y-85.85
M16
G05
G00X154.2Y-123.4
M15
G01X154.2Y-124.4
M16
G05
G00X160.15Y-123.4
M15
G01X160.15Y-124.4
M16
G05
G00X169.0Y-123.4
M15
G01X169.0Y-124.4
M16
G05
G00X174.95Y-123.4
M15
G01X174.95Y-124.4
M16
G05
G00X183.0Y-123.45
M15
G01X183.0Y-124.45
M16
G05
G00X188.95Y-123.4
M15
G01X188.95Y-124.4
M16
G05
M30
